<?xml version="1.0" encoding="UTF-8" standalone="no"?>
<!-- Created with Inkscape (http://www.inkscape.org/) -->

<svg
   xmlns:dc="http://purl.org/dc/elements/1.1/"
   xmlns:cc="http://creativecommons.org/ns#"
   xmlns:rdf="http://www.w3.org/1999/02/22-rdf-syntax-ns#"
   xmlns:svg="http://www.w3.org/2000/svg"
   xmlns="http://www.w3.org/2000/svg"
   xmlns:xlink="http://www.w3.org/1999/xlink"
   xmlns:sodipodi="http://sodipodi.sourceforge.net/DTD/sodipodi-0.dtd"
   xmlns:inkscape="http://www.inkscape.org/namespaces/inkscape"
   width="744.09448819"
   height="1052.3622047"
   id="svg5472"
   version="1.1"
   inkscape:version="0.48.4 r9939"
   sodipodi:docname="volunteer-profile.svg">
  <defs
     id="defs5474">
    <clipPath
       id="SVGID_5_-12">
      <use
         xlink:href="#SVGID_4_"
         height="1"
         width="1"
         y="0"
         x="0"
         style="overflow:visible"
         id="use3018-3" />
    </clipPath>
    <clipPath
       id="SVGID_5_-3">
      <use
         xlink:href="#SVGID_4_"
         height="1"
         width="1"
         y="0"
         x="0"
         style="overflow:visible"
         id="use3018-41" />
    </clipPath>
    <clipPath
       id="SVGID_5_-0">
      <use
         xlink:href="#SVGID_4_"
         height="1"
         width="1"
         y="0"
         x="0"
         style="overflow:visible"
         id="use3018-2" />
    </clipPath>
    <clipPath
       id="SVGID_5_-8">
      <use
         xlink:href="#SVGID_4_"
         height="1"
         width="1"
         y="0"
         x="0"
         style="overflow:visible"
         id="use3018-65" />
    </clipPath>
    <clipPath
       id="SVGID_5_-06">
      <use
         xlink:href="#SVGID_4_"
         height="1"
         width="1"
         y="0"
         x="0"
         style="overflow:visible"
         id="use3018-1" />
    </clipPath>
    <clipPath
       id="SVGID_4_">
      <use
         xlink:href="#SVGID_3_"
         height="1"
         width="1"
         y="0"
         x="0"
         style="overflow:visible"
         id="use3512" />
    </clipPath>
  </defs>
  <sodipodi:namedview
     id="base"
     pagecolor="#ffffff"
     bordercolor="#666666"
     borderopacity="1.0"
     inkscape:pageopacity="0.0"
     inkscape:pageshadow="2"
     inkscape:zoom="0.70710678"
     inkscape:cx="640.82816"
     inkscape:cy="-384.40842"
     inkscape:document-units="px"
     inkscape:current-layer="layer1"
     showgrid="false"
     showborder="false"
     inkscape:window-width="1918"
     inkscape:window-height="1078"
     inkscape:window-x="0"
     inkscape:window-y="0"
     inkscape:window-maximized="0" />
  <metadata
     id="metadata5477">
    <rdf:RDF>
      <cc:Work
         rdf:about="">
        <dc:format>image/svg+xml</dc:format>
        <dc:type
           rdf:resource="http://purl.org/dc/dcmitype/StillImage" />
        <dc:title></dc:title>
      </cc:Work>
    </rdf:RDF>
  </metadata>
  <g
     inkscape:label="Layer 1"
     inkscape:groupmode="layer"
     id="layer1">
    <rect
       style="color:#000000;fill:#ffffff;fill-opacity:1;fill-rule:nonzero;stroke:none;stroke-width:1;marker:none;visibility:visible;display:inline;overflow:visible;enable-background:accumulate"
       id="rect8259"
       width="1522"
       height="1036.3015"
       x="-134"
       y="858.06067"
       inkscape:export-filename="/home/big/j/Pictures/Design/CorpConnect/volunteer-profile.png"
       inkscape:export-xdpi="90.099998"
       inkscape:export-ydpi="90.099998" />
    <rect
       y="1316.0121"
       x="-5.454824"
       height="534.03577"
       width="1280.8734"
       id="rect7957"
       style="color:#000000;fill:#f2f2f2;fill-opacity:1;fill-rule:nonzero;stroke:none;stroke-width:2;marker:none;visibility:visible;display:inline;overflow:visible;enable-background:accumulate" />
    <rect
       style="color:#000000;fill:#f2f2f2;fill-opacity:1;fill-rule:nonzero;stroke:none;stroke-width:2;marker:none;visibility:visible;display:inline;overflow:visible;enable-background:accumulate"
       id="rect7951"
       width="256.599"
       height="49.497501"
       x="-6.0812206"
       y="1271.5653" />
    <text
       xml:space="preserve"
       style="font-size:40.19329834px;font-style:normal;font-variant:normal;font-weight:bold;font-stretch:normal;text-align:start;line-height:125%;letter-spacing:0px;word-spacing:0px;writing-mode:lr-tb;text-anchor:start;fill:#000000;fill-opacity:1;stroke:none;font-family:Arvo;-inkscape-font-specification:Arvo Bold"
       x="49.722324"
       y="937.59979"
       id="text3004"
       sodipodi:linespacing="125%"><tspan
         sodipodi:role="line"
         id="tspan3006"
         x="49.722324"
         y="937.59979"><tspan
           id="tspan3838"
           style="fill:#60b385;fill-opacity:1">Corp</tspan><tspan
           style="fill:#717171;fill-opacity:1"
           id="tspan3782">Connect</tspan></tspan></text>
    <g
       transform="translate(481.1887,1085.3763)"
       id="g4902">
      <path
         transform="translate(408.10163,-13.131983)"
         d="m 301.02546,-145.17366 c 0,10.87889 -8.81908,19.69797 -19.69798,19.69797 -10.87889,0 -19.69797,-8.81908 -19.69797,-19.69797 0,-10.87889 8.81908,-19.69798 19.69797,-19.69798 10.8789,0 19.69798,8.81909 19.69798,19.69798 z"
         sodipodi:ry="19.697975"
         sodipodi:rx="19.697975"
         sodipodi:cy="-145.17366"
         sodipodi:cx="281.32748"
         id="path4877"
         style="color:#000000;fill:#e6e6e6;fill-opacity:1;fill-rule:nonzero;stroke:none;stroke-width:7.38659573;marker:none;visibility:visible;display:inline;overflow:visible;enable-background:accumulate"
         sodipodi:type="arc" />
      <text
         xml:space="preserve"
         style="font-size:18px;font-style:normal;font-variant:normal;font-weight:normal;font-stretch:normal;line-height:125%;letter-spacing:0px;word-spacing:0px;fill:#07a6ff;fill-opacity:1;stroke:none;font-family:Open Sans;-inkscape-font-specification:Open Sans"
         x="718.21844"
         y="-151.68575"
         id="text4879"
         sodipodi:linespacing="125%"><tspan
           sodipodi:role="line"
           id="tspan4881"
           x="718.21844"
           y="-151.68575">Bob Ross</tspan></text>
    </g>
    <g
       id="g4192"
       style="opacity:0.5622318"
       transform="matrix(0.50746416,0,0,0.50746416,-62.702375,785.2223)">
      <g
         id="g4242"
         transform="translate(-0.04312935,0)">
        <g
           id="layer1-7"
           transform="matrix(0.17789364,0,0,0.17789364,92.010747,130.23408)"
           style="fill:#dfebf4;fill-opacity:1">
          <path
             style="fill:#dfebf4;fill-opacity:1"
             id="path3315"
             clip-path="url(#SVGID_5_-12)"
             transform="matrix(1.1261275,0,0,1.1261275,592.13313,769.48419)"
             d="m 200.897,116.781 c -1.04,0 -2.184,0.428 -3.348,1.089 2.741,-0.802 4.03,-1.089 3.348,-1.089 m 67.869,13.235 0.677,-9.925 -10.473,0.655 1.382,9.27 h 8.414 M 150.528,301.594 c -2.113,-1.988 -0.699,-10.608 -0.699,-10.608 0,0 -31.488,-16.545 -65.767,-26.493 -4.227,-1.225 -2.091,-9.932 2.091,-13.23 l -1.387,-9.297 c -0.693,-4.622 7.005,-27.148 14.698,-29.12 7.699,-2 -0.705,13.235 -0.705,13.235 l -7.688,4.637 c 0,0 9.092,10.592 11.199,10.592 2.092,0 5.591,-5.31 5.591,-5.31 l -9.79,-6.604 9.091,-3.988 0.574,-3.489 1.528,-0.487 15.062,-22.809 c 10.407,-4.258 23.199,-9.535 24.824,-10.31 2.806,-1.316 22.387,-12.569 25.887,-15.213 3.51,-2.666 11.187,-1.988 13.982,-1.988 2.812,0 7,-1.333 7.698,-8.631 0.699,-7.281 3.5,-8.608 5.607,-6.615 2.102,1.967 -2.107,5.293 2.796,6.615 4.893,1.333 9.092,4.644 12.597,1.333 2.557,-2.422 -0.867,-5.186 -3.17,-7.271 h 38.846 l 4.205,-11.947 -9.097,-1.321 -33.596,-3.305 v -3.982 l -2.676,0.456 c 3.635,-19.987 25.236,-16.692 8.972,-28.259 -0.986,-0.71 -15.213,22.418 -18.837,21.97 -6.562,-0.868 -15.029,-0.938 -16.833,1.197 -2.396,2.817 5.363,-9.688 12.038,-13.479 -7.964,2.346 -22.234,-4.903 -47.964,13.273 -8.701,6.15 -30.541,31.066 -39.528,40.645 -37.968,44.826 -41.029,83.175 -41.029,84.876 0,3.31 8.04,5.179 8.733,9.167 0.704,3.95 -13.29,17.218 -13.29,23.839 0,3.044 -7.005,36.114 8.381,77.496 13.647,39.257 40.054,73.879 43.445,76.046 l 9.725,-5.158 c 0,0 -16.091,-28.486 -16.784,-31.141 -0.693,-2.647 18.188,-41.068 27.295,-39.727 9.091,1.29 6.994,3.968 12.591,0.65 5.602,-3.292 9.096,-30.479 15.392,-33.113 6.301,-2.663 13.29,-5.969 12.596,-12.592 -0.729,-6.644 -24.513,-18.557 -26.604,-20.54 m 151.819,-194.755 -18.888,-6.626 3.5,10.608 15.388,-3.982 m -70.666,24.511 c 2.107,0 44.074,-27.81 39.881,-28.481 -4.188,-0.655 -4.887,0 -16.102,-1.327 -11.177,-1.322 -23.084,15.901 -25.875,18.562 -2.802,2.647 -1.859,11.246 2.096,11.246 m 192.63,199.731 5.42,-7.031 -5.42,-1.905 -4.062,5.104 -4.734,7.02 4.05,1.909 4.746,-5.097 m 23.687,22.995 -1.356,-10.228 h -8.785 l -0.682,7.659 -8.139,-1.269 -2.016,-8.3 -4.063,-2.559 -4.745,5.745 -4.735,-1.268 -1.366,4.452 5.428,1.301 v 41.479 l 19.159,4.615 c -0.445,0.759 -0.771,1.41 -0.879,1.756 -1.364,4.477 5.406,6.415 10.144,4.477 1.753,-0.705 12.797,-4.952 16.295,-13.283 4.879,-11.605 8.03,-28.314 8.877,-33.722 l -2.146,-4.693 -13.545,5.117 -7.466,-1.28 h 0.02 m -6.783,-169.88 c -30.978,-46.973 -105.41,-77.669 -105.41,-77.669 l -19.166,10.039 -2.722,-4.453 -6.761,-2.563 v 5.753 l 6.091,5.115 -4.053,1.912 -15.582,1.268 -35.211,19.158 3.381,15.322 -4.075,1.284 -2.015,3.186 11.512,17.223 0.671,5.759 -9.476,1.913 v 11.486 l -5.412,1.273 0.677,8.944 -46.058,31.938 1.355,17.852 c 3.38,4.475 29.798,31.293 29.798,31.293 0,0 30.464,1.263 37.237,-2.551 6.777,-3.831 2.025,3.831 4.068,5.748 2.016,1.923 2.709,15.322 4.724,16.601 2.038,1.271 0,8.923 2.709,11.502 2.71,2.534 2.71,33.19 2.71,33.19 0,0 16.252,27.445 16.252,34.468 0,7.021 -0.683,6.382 12.189,5.742 12.863,-0.628 15.571,-5.742 18.281,-7.649 2.709,-1.908 2.709,-6.383 5.417,-10.229 2.731,-3.839 7.455,-18.499 13.556,-23.602 6.078,-5.126 22.343,-8.96 23.686,-17.879 1.356,-8.949 7.443,-15.972 7.443,-15.972 l 29.278,-30.968 -0.823,4.161 -0.671,15.95 8.81,-3.187 -0.672,-17.25 -3.154,-3.343 0.446,-0.487 c 0,0 -2.037,-3.831 -4.734,-3.831 -2.712,0 -18.974,3.831 -21.672,3.196 -2.711,-0.644 -14.228,-31.292 -16.253,-32.549 -2.039,-1.279 -14.889,-22.359 -14.889,-22.359 0,0 29.776,35.751 34.521,49.795 2.751,8.18 13.089,0.563 21.497,-7.97 l 2.222,5.429 5.407,-1.29 -0.671,-6.381 h 6.088 v 9.573 l -2.024,5.115 -0.694,8.29 5.429,5.119 2.71,-4.459 8.776,-8.311 10.162,-5.108 2.721,5.108 1.354,7.027 -2.709,7.655 -5.417,4.47 -2.708,11.491 v 5.743 l -6.091,-3.836 -0.671,-12.118 -8.8,0.648 -4.051,10.842 6.089,8.948 14.216,1.92 11.507,-10.868 1.354,-21.044 5.127,-6.766 c 3.337,8.576 5.722,17.548 5.722,25.914 0,9.167 7.259,-4.628 3.707,-32.583 0.003,-0.001 -5.567,-66.402 -36.255,-97.088 z m -135.423,27.505 -36.561,-1.294 15.56,-12.759 h 8.127 l 12.874,8.928 v 5.125 m 44.706,-4.469 v 5.743 h -15.569 l 1.354,3.841 -9.493,1.289 -0.66,3.169 -6.772,-1.256 -12.2,-2.568 2.038,-3.181 2.037,-3.846 6.771,-7.022 2.72,5.115 10.142,-0.646 5.418,-5.754 20.999,3.836 -6.785,1.28 m 1.345,-8.305 -8.128,1.273 -1.343,-5.753 10.143,-1.268 1.366,-5.743 7.454,7.666 -9.492,3.814 v 0.011 m 39.289,198.535 -4.746,3.837 0.674,9.579 h 6.088 v -8.278 l 5.441,-7.043 v -14.672 l -3.404,-0.662 -4.053,17.239 0,0 m -45.369,-19.135 c 0,0 -4.746,1.234 0.662,3.185 5.418,1.93 27.09,-31.271 27.09,-31.271 l -18.291,11.487 -9.472,16.6 h 0.011 m -36.862,122.355 -4.052,-3.858 -8.127,-1.289 -1.343,3.869 -10.836,-1.278 -0.681,-5.135 h -8.123 l -8.798,5.135 h -15.56 l -1.355,-3.856 -25.041,-2.59 -4.063,3.867 -10.138,-2.556 -1.359,-9.016 -4.735,-0.661 -5.418,9.677 -18.273,-0.65 c 3.272,1.538 30.551,17.824 72.403,21.214 55.5,4.487 81.896,-8.991 81.896,-8.991 l -2.025,-1.951 -24.371,-1.918 v -0.013 l -10e-4,0 z"
             inkscape:connector-curvature="0" />
          <path
             style="fill:#dfebf4;fill-opacity:1"
             id="path3315-1"
             clip-path="url(#SVGID_5_-3)"
             transform="matrix(1.1261275,0,0,1.1261275,-123.16579,191.65755)"
             d="m 200.897,116.781 c -1.04,0 -2.184,0.428 -3.348,1.089 2.741,-0.802 4.03,-1.089 3.348,-1.089 m 67.869,13.235 0.677,-9.925 -10.473,0.655 1.382,9.27 h 8.414 M 150.528,301.594 c -2.113,-1.988 -0.699,-10.608 -0.699,-10.608 0,0 -31.488,-16.545 -65.767,-26.493 -4.227,-1.225 -2.091,-9.932 2.091,-13.23 l -1.387,-9.297 c -0.693,-4.622 7.005,-27.148 14.698,-29.12 7.699,-2 -0.705,13.235 -0.705,13.235 l -7.688,4.637 c 0,0 9.092,10.592 11.199,10.592 2.092,0 5.591,-5.31 5.591,-5.31 l -9.79,-6.604 9.091,-3.988 0.574,-3.489 1.528,-0.487 15.062,-22.809 c 10.407,-4.258 23.199,-9.535 24.824,-10.31 2.806,-1.316 22.387,-12.569 25.887,-15.213 3.51,-2.666 11.187,-1.988 13.982,-1.988 2.812,0 7,-1.333 7.698,-8.631 0.699,-7.281 3.5,-8.608 5.607,-6.615 2.102,1.967 -2.107,5.293 2.796,6.615 4.893,1.333 9.092,4.644 12.597,1.333 2.557,-2.422 -0.867,-5.186 -3.17,-7.271 h 38.846 l 4.205,-11.947 -9.097,-1.321 -33.596,-3.305 v -3.982 l -2.676,0.456 c 3.635,-19.987 25.236,-16.692 8.972,-28.259 -0.986,-0.71 -15.213,22.418 -18.837,21.97 -6.562,-0.868 -15.029,-0.938 -16.833,1.197 -2.396,2.817 5.363,-9.688 12.038,-13.479 -7.964,2.346 -22.234,-4.903 -47.964,13.273 -8.701,6.15 -30.541,31.066 -39.528,40.645 -37.968,44.826 -41.029,83.175 -41.029,84.876 0,3.31 8.04,5.179 8.733,9.167 0.704,3.95 -13.29,17.218 -13.29,23.839 0,3.044 -7.005,36.114 8.381,77.496 13.647,39.257 40.054,73.879 43.445,76.046 l 9.725,-5.158 c 0,0 -16.091,-28.486 -16.784,-31.141 -0.693,-2.647 18.188,-41.068 27.295,-39.727 9.091,1.29 6.994,3.968 12.591,0.65 5.602,-3.292 9.096,-30.479 15.392,-33.113 6.301,-2.663 13.29,-5.969 12.596,-12.592 -0.729,-6.644 -24.513,-18.557 -26.604,-20.54 m 151.819,-194.755 -18.888,-6.626 3.5,10.608 15.388,-3.982 m -70.666,24.511 c 2.107,0 44.074,-27.81 39.881,-28.481 -4.188,-0.655 -4.887,0 -16.102,-1.327 -11.177,-1.322 -23.084,15.901 -25.875,18.562 -2.802,2.647 -1.859,11.246 2.096,11.246 m 192.63,199.731 5.42,-7.031 -5.42,-1.905 -4.062,5.104 -4.734,7.02 4.05,1.909 4.746,-5.097 m 23.687,22.995 -1.356,-10.228 h -8.785 l -0.682,7.659 -8.139,-1.269 -2.016,-8.3 -4.063,-2.559 -4.745,5.745 -4.735,-1.268 -1.366,4.452 5.428,1.301 v 41.479 l 19.159,4.615 c -0.445,0.759 -0.771,1.41 -0.879,1.756 -1.364,4.477 5.406,6.415 10.144,4.477 1.753,-0.705 12.797,-4.952 16.295,-13.283 4.879,-11.605 8.03,-28.314 8.877,-33.722 l -2.146,-4.693 -13.545,5.117 -7.466,-1.28 h 0.02 m -6.783,-169.88 c -30.978,-46.973 -105.41,-77.669 -105.41,-77.669 l -19.166,10.039 -2.722,-4.453 -6.761,-2.563 v 5.753 l 6.091,5.115 -4.053,1.912 -15.582,1.268 -35.211,19.158 3.381,15.322 -4.075,1.284 -2.015,3.186 11.512,17.223 0.671,5.759 -9.476,1.913 v 11.486 l -5.412,1.273 0.677,8.944 -46.058,31.938 1.355,17.852 c 3.38,4.475 29.798,31.293 29.798,31.293 0,0 30.464,1.263 37.237,-2.551 6.777,-3.831 2.025,3.831 4.068,5.748 2.016,1.923 2.709,15.322 4.724,16.601 2.038,1.271 0,8.923 2.709,11.502 2.71,2.534 2.71,33.19 2.71,33.19 0,0 16.252,27.445 16.252,34.468 0,7.021 -0.683,6.382 12.189,5.742 12.863,-0.628 15.571,-5.742 18.281,-7.649 2.709,-1.908 2.709,-6.383 5.417,-10.229 2.731,-3.839 7.455,-18.499 13.556,-23.602 6.078,-5.126 22.343,-8.96 23.686,-17.879 1.356,-8.949 7.443,-15.972 7.443,-15.972 l 29.278,-30.968 -0.823,4.161 -0.671,15.95 8.81,-3.187 -0.672,-17.25 -3.154,-3.343 0.446,-0.487 c 0,0 -2.037,-3.831 -4.734,-3.831 -2.712,0 -18.974,3.831 -21.672,3.196 -2.711,-0.644 -14.228,-31.292 -16.253,-32.549 -2.039,-1.279 -14.889,-22.359 -14.889,-22.359 0,0 29.776,35.751 34.521,49.795 2.751,8.18 13.089,0.563 21.497,-7.97 l 2.222,5.429 5.407,-1.29 -0.671,-6.381 h 6.088 v 9.573 l -2.024,5.115 -0.694,8.29 5.429,5.119 2.71,-4.459 8.776,-8.311 10.162,-5.108 2.721,5.108 1.354,7.027 -2.709,7.655 -5.417,4.47 -2.708,11.491 v 5.743 l -6.091,-3.836 -0.671,-12.118 -8.8,0.648 -4.051,10.842 6.089,8.948 14.216,1.92 11.507,-10.868 1.354,-21.044 5.127,-6.766 c 3.337,8.576 5.722,17.548 5.722,25.914 0,9.167 7.259,-4.628 3.707,-32.583 0.003,-0.001 -5.567,-66.402 -36.255,-97.088 z m -135.423,27.505 -36.561,-1.294 15.56,-12.759 h 8.127 l 12.874,8.928 v 5.125 m 44.706,-4.469 v 5.743 h -15.569 l 1.354,3.841 -9.493,1.289 -0.66,3.169 -6.772,-1.256 -12.2,-2.568 2.038,-3.181 2.037,-3.846 6.771,-7.022 2.72,5.115 10.142,-0.646 5.418,-5.754 20.999,3.836 -6.785,1.28 m 1.345,-8.305 -8.128,1.273 -1.343,-5.753 10.143,-1.268 1.366,-5.743 7.454,7.666 -9.492,3.814 v 0.011 m 39.289,198.535 -4.746,3.837 0.674,9.579 h 6.088 v -8.278 l 5.441,-7.043 v -14.672 l -3.404,-0.662 -4.053,17.239 0,0 m -45.369,-19.135 c 0,0 -4.746,1.234 0.662,3.185 5.418,1.93 27.09,-31.271 27.09,-31.271 l -18.291,11.487 -9.472,16.6 h 0.011 m -36.862,122.355 -4.052,-3.858 -8.127,-1.289 -1.343,3.869 -10.836,-1.278 -0.681,-5.135 h -8.123 l -8.798,5.135 h -15.56 l -1.355,-3.856 -25.041,-2.59 -4.063,3.867 -10.138,-2.556 -1.359,-9.016 -4.735,-0.661 -5.418,9.677 -18.273,-0.65 c 3.272,1.538 30.551,17.824 72.403,21.214 55.5,4.487 81.896,-8.991 81.896,-8.991 l -2.025,-1.951 -24.371,-1.918 v -0.013 l -10e-4,0 z"
             inkscape:connector-curvature="0" />
          <path
             style="fill:#dfebf4;fill-opacity:1"
             id="path3315-4"
             clip-path="url(#SVGID_5_-0)"
             transform="matrix(1.1261275,0,0,1.1261275,-123.16579,191.65755)"
             d="m 200.897,116.781 c -1.04,0 -2.184,0.428 -3.348,1.089 2.741,-0.802 4.03,-1.089 3.348,-1.089 m 67.869,13.235 0.677,-9.925 -10.473,0.655 1.382,9.27 h 8.414 M 150.528,301.594 c -2.113,-1.988 -0.699,-10.608 -0.699,-10.608 0,0 -31.488,-16.545 -65.767,-26.493 -4.227,-1.225 -2.091,-9.932 2.091,-13.23 l -1.387,-9.297 c -0.693,-4.622 7.005,-27.148 14.698,-29.12 7.699,-2 -0.705,13.235 -0.705,13.235 l -7.688,4.637 c 0,0 9.092,10.592 11.199,10.592 2.092,0 5.591,-5.31 5.591,-5.31 l -9.79,-6.604 9.091,-3.988 0.574,-3.489 1.528,-0.487 15.062,-22.809 c 10.407,-4.258 23.199,-9.535 24.824,-10.31 2.806,-1.316 22.387,-12.569 25.887,-15.213 3.51,-2.666 11.187,-1.988 13.982,-1.988 2.812,0 7,-1.333 7.698,-8.631 0.699,-7.281 3.5,-8.608 5.607,-6.615 2.102,1.967 -2.107,5.293 2.796,6.615 4.893,1.333 9.092,4.644 12.597,1.333 2.557,-2.422 -0.867,-5.186 -3.17,-7.271 h 38.846 l 4.205,-11.947 -9.097,-1.321 -33.596,-3.305 v -3.982 l -2.676,0.456 c 3.635,-19.987 25.236,-16.692 8.972,-28.259 -0.986,-0.71 -15.213,22.418 -18.837,21.97 -6.562,-0.868 -15.029,-0.938 -16.833,1.197 -2.396,2.817 5.363,-9.688 12.038,-13.479 -7.964,2.346 -22.234,-4.903 -47.964,13.273 -8.701,6.15 -30.541,31.066 -39.528,40.645 -37.968,44.826 -41.029,83.175 -41.029,84.876 0,3.31 8.04,5.179 8.733,9.167 0.704,3.95 -13.29,17.218 -13.29,23.839 0,3.044 -7.005,36.114 8.381,77.496 13.647,39.257 40.054,73.879 43.445,76.046 l 9.725,-5.158 c 0,0 -16.091,-28.486 -16.784,-31.141 -0.693,-2.647 18.188,-41.068 27.295,-39.727 9.091,1.29 6.994,3.968 12.591,0.65 5.602,-3.292 9.096,-30.479 15.392,-33.113 6.301,-2.663 13.29,-5.969 12.596,-12.592 -0.729,-6.644 -24.513,-18.557 -26.604,-20.54 m 151.819,-194.755 -18.888,-6.626 3.5,10.608 15.388,-3.982 m -70.666,24.511 c 2.107,0 44.074,-27.81 39.881,-28.481 -4.188,-0.655 -4.887,0 -16.102,-1.327 -11.177,-1.322 -23.084,15.901 -25.875,18.562 -2.802,2.647 -1.859,11.246 2.096,11.246 m 192.63,199.731 5.42,-7.031 -5.42,-1.905 -4.062,5.104 -4.734,7.02 4.05,1.909 4.746,-5.097 m 23.687,22.995 -1.356,-10.228 h -8.785 l -0.682,7.659 -8.139,-1.269 -2.016,-8.3 -4.063,-2.559 -4.745,5.745 -4.735,-1.268 -1.366,4.452 5.428,1.301 v 41.479 l 19.159,4.615 c -0.445,0.759 -0.771,1.41 -0.879,1.756 -1.364,4.477 5.406,6.415 10.144,4.477 1.753,-0.705 12.797,-4.952 16.295,-13.283 4.879,-11.605 8.03,-28.314 8.877,-33.722 l -2.146,-4.693 -13.545,5.117 -7.466,-1.28 h 0.02 m -6.783,-169.88 c -30.978,-46.973 -105.41,-77.669 -105.41,-77.669 l -19.166,10.039 -2.722,-4.453 -6.761,-2.563 v 5.753 l 6.091,5.115 -4.053,1.912 -15.582,1.268 -35.211,19.158 3.381,15.322 -4.075,1.284 -2.015,3.186 11.512,17.223 0.671,5.759 -9.476,1.913 v 11.486 l -5.412,1.273 0.677,8.944 -46.058,31.938 1.355,17.852 c 3.38,4.475 29.798,31.293 29.798,31.293 0,0 30.464,1.263 37.237,-2.551 6.777,-3.831 2.025,3.831 4.068,5.748 2.016,1.923 2.709,15.322 4.724,16.601 2.038,1.271 0,8.923 2.709,11.502 2.71,2.534 2.71,33.19 2.71,33.19 0,0 16.252,27.445 16.252,34.468 0,7.021 -0.683,6.382 12.189,5.742 12.863,-0.628 15.571,-5.742 18.281,-7.649 2.709,-1.908 2.709,-6.383 5.417,-10.229 2.731,-3.839 7.455,-18.499 13.556,-23.602 6.078,-5.126 22.343,-8.96 23.686,-17.879 1.356,-8.949 7.443,-15.972 7.443,-15.972 l 29.278,-30.968 -0.823,4.161 -0.671,15.95 8.81,-3.187 -0.672,-17.25 -3.154,-3.343 0.446,-0.487 c 0,0 -2.037,-3.831 -4.734,-3.831 -2.712,0 -18.974,3.831 -21.672,3.196 -2.711,-0.644 -14.228,-31.292 -16.253,-32.549 -2.039,-1.279 -14.889,-22.359 -14.889,-22.359 0,0 29.776,35.751 34.521,49.795 2.751,8.18 13.089,0.563 21.497,-7.97 l 2.222,5.429 5.407,-1.29 -0.671,-6.381 h 6.088 v 9.573 l -2.024,5.115 -0.694,8.29 5.429,5.119 2.71,-4.459 8.776,-8.311 10.162,-5.108 2.721,5.108 1.354,7.027 -2.709,7.655 -5.417,4.47 -2.708,11.491 v 5.743 l -6.091,-3.836 -0.671,-12.118 -8.8,0.648 -4.051,10.842 6.089,8.948 14.216,1.92 11.507,-10.868 1.354,-21.044 5.127,-6.766 c 3.337,8.576 5.722,17.548 5.722,25.914 0,9.167 7.259,-4.628 3.707,-32.583 0.003,-0.001 -5.567,-66.402 -36.255,-97.088 z m -135.423,27.505 -36.561,-1.294 15.56,-12.759 h 8.127 l 12.874,8.928 v 5.125 m 44.706,-4.469 v 5.743 h -15.569 l 1.354,3.841 -9.493,1.289 -0.66,3.169 -6.772,-1.256 -12.2,-2.568 2.038,-3.181 2.037,-3.846 6.771,-7.022 2.72,5.115 10.142,-0.646 5.418,-5.754 20.999,3.836 -6.785,1.28 m 1.345,-8.305 -8.128,1.273 -1.343,-5.753 10.143,-1.268 1.366,-5.743 7.454,7.666 -9.492,3.814 v 0.011 m 39.289,198.535 -4.746,3.837 0.674,9.579 h 6.088 v -8.278 l 5.441,-7.043 v -14.672 l -3.404,-0.662 -4.053,17.239 0,0 m -45.369,-19.135 c 0,0 -4.746,1.234 0.662,3.185 5.418,1.93 27.09,-31.271 27.09,-31.271 l -18.291,11.487 -9.472,16.6 h 0.011 m -36.862,122.355 -4.052,-3.858 -8.127,-1.289 -1.343,3.869 -10.836,-1.278 -0.681,-5.135 h -8.123 l -8.798,5.135 h -15.56 l -1.355,-3.856 -25.041,-2.59 -4.063,3.867 -10.138,-2.556 -1.359,-9.016 -4.735,-0.661 -5.418,9.677 -18.273,-0.65 c 3.272,1.538 30.551,17.824 72.403,21.214 55.5,4.487 81.896,-8.991 81.896,-8.991 l -2.025,-1.951 -24.371,-1.918 v -0.013 l -10e-4,0 z"
             inkscape:connector-curvature="0" />
          <path
             style="fill:#dfebf4;fill-opacity:1"
             id="path3315-0"
             clip-path="url(#SVGID_5_-8)"
             transform="matrix(1.1261275,0,0,1.1261275,-123.16579,191.65755)"
             d="m 200.897,116.781 c -1.04,0 -2.184,0.428 -3.348,1.089 2.741,-0.802 4.03,-1.089 3.348,-1.089 m 67.869,13.235 0.677,-9.925 -10.473,0.655 1.382,9.27 h 8.414 M 150.528,301.594 c -2.113,-1.988 -0.699,-10.608 -0.699,-10.608 0,0 -31.488,-16.545 -65.767,-26.493 -4.227,-1.225 -2.091,-9.932 2.091,-13.23 l -1.387,-9.297 c -0.693,-4.622 7.005,-27.148 14.698,-29.12 7.699,-2 -0.705,13.235 -0.705,13.235 l -7.688,4.637 c 0,0 9.092,10.592 11.199,10.592 2.092,0 5.591,-5.31 5.591,-5.31 l -9.79,-6.604 9.091,-3.988 0.574,-3.489 1.528,-0.487 15.062,-22.809 c 10.407,-4.258 23.199,-9.535 24.824,-10.31 2.806,-1.316 22.387,-12.569 25.887,-15.213 3.51,-2.666 11.187,-1.988 13.982,-1.988 2.812,0 7,-1.333 7.698,-8.631 0.699,-7.281 3.5,-8.608 5.607,-6.615 2.102,1.967 -2.107,5.293 2.796,6.615 4.893,1.333 9.092,4.644 12.597,1.333 2.557,-2.422 -0.867,-5.186 -3.17,-7.271 h 38.846 l 4.205,-11.947 -9.097,-1.321 -33.596,-3.305 v -3.982 l -2.676,0.456 c 3.635,-19.987 25.236,-16.692 8.972,-28.259 -0.986,-0.71 -15.213,22.418 -18.837,21.97 -6.562,-0.868 -15.029,-0.938 -16.833,1.197 -2.396,2.817 5.363,-9.688 12.038,-13.479 -7.964,2.346 -22.234,-4.903 -47.964,13.273 -8.701,6.15 -30.541,31.066 -39.528,40.645 -37.968,44.826 -41.029,83.175 -41.029,84.876 0,3.31 8.04,5.179 8.733,9.167 0.704,3.95 -13.29,17.218 -13.29,23.839 0,3.044 -7.005,36.114 8.381,77.496 13.647,39.257 40.054,73.879 43.445,76.046 l 9.725,-5.158 c 0,0 -16.091,-28.486 -16.784,-31.141 -0.693,-2.647 18.188,-41.068 27.295,-39.727 9.091,1.29 6.994,3.968 12.591,0.65 5.602,-3.292 9.096,-30.479 15.392,-33.113 6.301,-2.663 13.29,-5.969 12.596,-12.592 -0.729,-6.644 -24.513,-18.557 -26.604,-20.54 m 151.819,-194.755 -18.888,-6.626 3.5,10.608 15.388,-3.982 m -70.666,24.511 c 2.107,0 44.074,-27.81 39.881,-28.481 -4.188,-0.655 -4.887,0 -16.102,-1.327 -11.177,-1.322 -23.084,15.901 -25.875,18.562 -2.802,2.647 -1.859,11.246 2.096,11.246 m 192.63,199.731 5.42,-7.031 -5.42,-1.905 -4.062,5.104 -4.734,7.02 4.05,1.909 4.746,-5.097 m 23.687,22.995 -1.356,-10.228 h -8.785 l -0.682,7.659 -8.139,-1.269 -2.016,-8.3 -4.063,-2.559 -4.745,5.745 -4.735,-1.268 -1.366,4.452 5.428,1.301 v 41.479 l 19.159,4.615 c -0.445,0.759 -0.771,1.41 -0.879,1.756 -1.364,4.477 5.406,6.415 10.144,4.477 1.753,-0.705 12.797,-4.952 16.295,-13.283 4.879,-11.605 8.03,-28.314 8.877,-33.722 l -2.146,-4.693 -13.545,5.117 -7.466,-1.28 h 0.02 m -6.783,-169.88 c -30.978,-46.973 -105.41,-77.669 -105.41,-77.669 l -19.166,10.039 -2.722,-4.453 -6.761,-2.563 v 5.753 l 6.091,5.115 -4.053,1.912 -15.582,1.268 -35.211,19.158 3.381,15.322 -4.075,1.284 -2.015,3.186 11.512,17.223 0.671,5.759 -9.476,1.913 v 11.486 l -5.412,1.273 0.677,8.944 -46.058,31.938 1.355,17.852 c 3.38,4.475 29.798,31.293 29.798,31.293 0,0 30.464,1.263 37.237,-2.551 6.777,-3.831 2.025,3.831 4.068,5.748 2.016,1.923 2.709,15.322 4.724,16.601 2.038,1.271 0,8.923 2.709,11.502 2.71,2.534 2.71,33.19 2.71,33.19 0,0 16.252,27.445 16.252,34.468 0,7.021 -0.683,6.382 12.189,5.742 12.863,-0.628 15.571,-5.742 18.281,-7.649 2.709,-1.908 2.709,-6.383 5.417,-10.229 2.731,-3.839 7.455,-18.499 13.556,-23.602 6.078,-5.126 22.343,-8.96 23.686,-17.879 1.356,-8.949 7.443,-15.972 7.443,-15.972 l 29.278,-30.968 -0.823,4.161 -0.671,15.95 8.81,-3.187 -0.672,-17.25 -3.154,-3.343 0.446,-0.487 c 0,0 -2.037,-3.831 -4.734,-3.831 -2.712,0 -18.974,3.831 -21.672,3.196 -2.711,-0.644 -14.228,-31.292 -16.253,-32.549 -2.039,-1.279 -14.889,-22.359 -14.889,-22.359 0,0 29.776,35.751 34.521,49.795 2.751,8.18 13.089,0.563 21.497,-7.97 l 2.222,5.429 5.407,-1.29 -0.671,-6.381 h 6.088 v 9.573 l -2.024,5.115 -0.694,8.29 5.429,5.119 2.71,-4.459 8.776,-8.311 10.162,-5.108 2.721,5.108 1.354,7.027 -2.709,7.655 -5.417,4.47 -2.708,11.491 v 5.743 l -6.091,-3.836 -0.671,-12.118 -8.8,0.648 -4.051,10.842 6.089,8.948 14.216,1.92 11.507,-10.868 1.354,-21.044 5.127,-6.766 c 3.337,8.576 5.722,17.548 5.722,25.914 0,9.167 7.259,-4.628 3.707,-32.583 0.003,-0.001 -5.567,-66.402 -36.255,-97.088 z m -135.423,27.505 -36.561,-1.294 15.56,-12.759 h 8.127 l 12.874,8.928 v 5.125 m 44.706,-4.469 v 5.743 h -15.569 l 1.354,3.841 -9.493,1.289 -0.66,3.169 -6.772,-1.256 -12.2,-2.568 2.038,-3.181 2.037,-3.846 6.771,-7.022 2.72,5.115 10.142,-0.646 5.418,-5.754 20.999,3.836 -6.785,1.28 m 1.345,-8.305 -8.128,1.273 -1.343,-5.753 10.143,-1.268 1.366,-5.743 7.454,7.666 -9.492,3.814 v 0.011 m 39.289,198.535 -4.746,3.837 0.674,9.579 h 6.088 v -8.278 l 5.441,-7.043 v -14.672 l -3.404,-0.662 -4.053,17.239 0,0 m -45.369,-19.135 c 0,0 -4.746,1.234 0.662,3.185 5.418,1.93 27.09,-31.271 27.09,-31.271 l -18.291,11.487 -9.472,16.6 h 0.011 m -36.862,122.355 -4.052,-3.858 -8.127,-1.289 -1.343,3.869 -10.836,-1.278 -0.681,-5.135 h -8.123 l -8.798,5.135 h -15.56 l -1.355,-3.856 -25.041,-2.59 -4.063,3.867 -10.138,-2.556 -1.359,-9.016 -4.735,-0.661 -5.418,9.677 -18.273,-0.65 c 3.272,1.538 30.551,17.824 72.403,21.214 55.5,4.487 81.896,-8.991 81.896,-8.991 l -2.025,-1.951 -24.371,-1.918 v -0.013 l -10e-4,0 z"
             inkscape:connector-curvature="0" />
          <path
             style="fill:#dfebf4;fill-opacity:1"
             id="path3315-3"
             clip-path="url(#SVGID_5_-06)"
             transform="matrix(1.1261275,0,0,1.1261275,-104.21727,237.13399)"
             d="m 200.897,116.781 c -1.04,0 -2.184,0.428 -3.348,1.089 2.741,-0.802 4.03,-1.089 3.348,-1.089 m 67.869,13.235 0.677,-9.925 -10.473,0.655 1.382,9.27 h 8.414 M 150.528,301.594 c -2.113,-1.988 -0.699,-10.608 -0.699,-10.608 0,0 -31.488,-16.545 -65.767,-26.493 -4.227,-1.225 -2.091,-9.932 2.091,-13.23 l -1.387,-9.297 c -0.693,-4.622 7.005,-27.148 14.698,-29.12 7.699,-2 -0.705,13.235 -0.705,13.235 l -7.688,4.637 c 0,0 9.092,10.592 11.199,10.592 2.092,0 5.591,-5.31 5.591,-5.31 l -9.79,-6.604 9.091,-3.988 0.574,-3.489 1.528,-0.487 15.062,-22.809 c 10.407,-4.258 23.199,-9.535 24.824,-10.31 2.806,-1.316 22.387,-12.569 25.887,-15.213 3.51,-2.666 11.187,-1.988 13.982,-1.988 2.812,0 7,-1.333 7.698,-8.631 0.699,-7.281 3.5,-8.608 5.607,-6.615 2.102,1.967 -2.107,5.293 2.796,6.615 4.893,1.333 9.092,4.644 12.597,1.333 2.557,-2.422 -0.867,-5.186 -3.17,-7.271 h 38.846 l 4.205,-11.947 -9.097,-1.321 -33.596,-3.305 v -3.982 l -2.676,0.456 c 3.635,-19.987 25.236,-16.692 8.972,-28.259 -0.986,-0.71 -15.213,22.418 -18.837,21.97 -6.562,-0.868 -15.029,-0.938 -16.833,1.197 -2.396,2.817 5.363,-9.688 12.038,-13.479 -7.964,2.346 -22.234,-4.903 -47.964,13.273 -8.701,6.15 -30.541,31.066 -39.528,40.645 -37.968,44.826 -41.029,83.175 -41.029,84.876 0,3.31 8.04,5.179 8.733,9.167 0.704,3.95 -13.29,17.218 -13.29,23.839 0,3.044 -7.005,36.114 8.381,77.496 13.647,39.257 40.054,73.879 43.445,76.046 l 9.725,-5.158 c 0,0 -16.091,-28.486 -16.784,-31.141 -0.693,-2.647 18.188,-41.068 27.295,-39.727 9.091,1.29 6.994,3.968 12.591,0.65 5.602,-3.292 9.096,-30.479 15.392,-33.113 6.301,-2.663 13.29,-5.969 12.596,-12.592 -0.729,-6.644 -24.513,-18.557 -26.604,-20.54 m 151.819,-194.755 -18.888,-6.626 3.5,10.608 15.388,-3.982 m -70.666,24.511 c 2.107,0 44.074,-27.81 39.881,-28.481 -4.188,-0.655 -4.887,0 -16.102,-1.327 -11.177,-1.322 -23.084,15.901 -25.875,18.562 -2.802,2.647 -1.859,11.246 2.096,11.246 m 192.63,199.731 5.42,-7.031 -5.42,-1.905 -4.062,5.104 -4.734,7.02 4.05,1.909 4.746,-5.097 m 23.687,22.995 -1.356,-10.228 h -8.785 l -0.682,7.659 -8.139,-1.269 -2.016,-8.3 -4.063,-2.559 -4.745,5.745 -4.735,-1.268 -1.366,4.452 5.428,1.301 v 41.479 l 19.159,4.615 c -0.445,0.759 -0.771,1.41 -0.879,1.756 -1.364,4.477 5.406,6.415 10.144,4.477 1.753,-0.705 12.797,-4.952 16.295,-13.283 4.879,-11.605 8.03,-28.314 8.877,-33.722 l -2.146,-4.693 -13.545,5.117 -7.466,-1.28 h 0.02 m -6.783,-169.88 c -30.978,-46.973 -105.41,-77.669 -105.41,-77.669 l -19.166,10.039 -2.722,-4.453 -6.761,-2.563 v 5.753 l 6.091,5.115 -4.053,1.912 -15.582,1.268 -35.211,19.158 3.381,15.322 -4.075,1.284 -2.015,3.186 11.512,17.223 0.671,5.759 -9.476,1.913 v 11.486 l -5.412,1.273 0.677,8.944 -46.058,31.938 1.355,17.852 c 3.38,4.475 29.798,31.293 29.798,31.293 0,0 30.464,1.263 37.237,-2.551 6.777,-3.831 2.025,3.831 4.068,5.748 2.016,1.923 2.709,15.322 4.724,16.601 2.038,1.271 0,8.923 2.709,11.502 2.71,2.534 2.71,33.19 2.71,33.19 0,0 16.252,27.445 16.252,34.468 0,7.021 -0.683,6.382 12.189,5.742 12.863,-0.628 15.571,-5.742 18.281,-7.649 2.709,-1.908 2.709,-6.383 5.417,-10.229 2.731,-3.839 7.455,-18.499 13.556,-23.602 6.078,-5.126 22.343,-8.96 23.686,-17.879 1.356,-8.949 7.443,-15.972 7.443,-15.972 l 29.278,-30.968 -0.823,4.161 -0.671,15.95 8.81,-3.187 -0.672,-17.25 -3.154,-3.343 0.446,-0.487 c 0,0 -2.037,-3.831 -4.734,-3.831 -2.712,0 -18.974,3.831 -21.672,3.196 -2.711,-0.644 -14.228,-31.292 -16.253,-32.549 -2.039,-1.279 -14.889,-22.359 -14.889,-22.359 0,0 29.776,35.751 34.521,49.795 2.751,8.18 13.089,0.563 21.497,-7.97 l 2.222,5.429 5.407,-1.29 -0.671,-6.381 h 6.088 v 9.573 l -2.024,5.115 -0.694,8.29 5.429,5.119 2.71,-4.459 8.776,-8.311 10.162,-5.108 2.721,5.108 1.354,7.027 -2.709,7.655 -5.417,4.47 -2.708,11.491 v 5.743 l -6.091,-3.836 -0.671,-12.118 -8.8,0.648 -4.051,10.842 6.089,8.948 14.216,1.92 11.507,-10.868 1.354,-21.044 5.127,-6.766 c 3.337,8.576 5.722,17.548 5.722,25.914 0,9.167 7.259,-4.628 3.707,-32.583 0.003,-0.001 -5.567,-66.402 -36.255,-97.088 z m -135.423,27.505 -36.561,-1.294 15.56,-12.759 h 8.127 l 12.874,8.928 v 5.125 m 44.706,-4.469 v 5.743 h -15.569 l 1.354,3.841 -9.493,1.289 -0.66,3.169 -6.772,-1.256 -12.2,-2.568 2.038,-3.181 2.037,-3.846 6.771,-7.022 2.72,5.115 10.142,-0.646 5.418,-5.754 20.999,3.836 -6.785,1.28 m 1.345,-8.305 -8.128,1.273 -1.343,-5.753 10.143,-1.268 1.366,-5.743 7.454,7.666 -9.492,3.814 v 0.011 m 39.289,198.535 -4.746,3.837 0.674,9.579 h 6.088 v -8.278 l 5.441,-7.043 v -14.672 l -3.404,-0.662 -4.053,17.239 0,0 m -45.369,-19.135 c 0,0 -4.746,1.234 0.662,3.185 5.418,1.93 27.09,-31.271 27.09,-31.271 l -18.291,11.487 -9.472,16.6 h 0.011 m -36.862,122.355 -4.052,-3.858 -8.127,-1.289 -1.343,3.869 -10.836,-1.278 -0.681,-5.135 h -8.123 l -8.798,5.135 h -15.56 l -1.355,-3.856 -25.041,-2.59 -4.063,3.867 -10.138,-2.556 -1.359,-9.016 -4.735,-0.661 -5.418,9.677 -18.273,-0.65 c 3.272,1.538 30.551,17.824 72.403,21.214 55.5,4.487 81.896,-8.991 81.896,-8.991 l -2.025,-1.951 -24.371,-1.918 v -0.013 l -10e-4,0 z"
             inkscape:connector-curvature="0" />
          <radialGradient
             gradientTransform="matrix(7.6562887,0,0,7.6562887,-72.160001,452.7993)"
             gradientUnits="userSpaceOnUse"
             id="SVGID_1_"
             r="20.4727"
             cy="24.3286"
             cx="24.223101">
            <stop
               offset="0.94760001"
               style="stop-color:#000000;stop-opacity:0.40000001"
               id="stop3491" />
            <stop
               offset="1"
               style="stop-color:#000000;stop-opacity:0"
               id="stop3493" />
          </radialGradient>
          <linearGradient
             gradientTransform="matrix(2.4117309,0,0,2.4117309,-1392.3581,-2431.4769)"
             gradientUnits="userSpaceOnUse"
             id="SVGID_2_"
             y2="1036.85"
             x2="755.56299"
             y1="1036.85"
             x1="625.57001">
            <stop
               offset="0"
               style="stop-color:#0053bd;stop-opacity:1"
               id="stop3498" />
            <stop
               offset="0.99440002"
               style="stop-color:#0032a4;stop-opacity:1"
               id="stop3500" />
          </linearGradient>
          <g
             id="g3606"
             transform="matrix(1.9140664,0,0,1.9140664,-1228.1565,-289.91756)"
             style="fill:#dfebf4;fill-opacity:1">
            <path
               style="fill:#dfebf4;fill-opacity:1"
               id="path3502"
               d="m 798.36657,387.8025 c -41.59662,0 -80.86439,16.33954 -110.59375,46 -29.75234,29.67577 -46.15625,68.91869 -46.15625,110.5 0,86.562 70.31816,156.96875 156.75,156.96875 86.4395,0 156.78125,-70.40675 156.78125,-156.96875 0,-86.28638 -70.34175,-156.5 -156.78125,-156.5 z m 0,6.46875 c 82.87167,0 150.3125,67.31271 150.3125,150.03125 0,83.00182 -67.44083,150.53125 -150.3125,150.53125 -82.86401,0 -150.28125,-67.53708 -150.28125,-150.53125 0,-39.84333 15.72267,-77.44782 44.25,-105.90625 28.51202,-28.44311 66.16496,-44.125 106.03125,-44.125 z"
               inkscape:connector-curvature="0" />
            <path
               style="fill:#dfebf4;fill-opacity:1"
               id="path3530"
               clip-path="url(#SVGID_4_)"
               transform="matrix(7.6562887,0,0,7.6562887,617.77417,363.90588)"
               d="m 17.279,6.581 c -0.094,0 -0.197,0.039 -0.302,0.098 0.247,-0.073 0.363,-0.098 0.302,-0.098 m 6.117,1.192 0.061,-0.895 -0.944,0.059 0.125,0.835 h 0.758 M 12.739,23.237 c -0.19,-0.179 -0.063,-0.956 -0.063,-0.956 0,0 -2.838,-1.491 -5.927,-2.388 -0.381,-0.11 -0.188,-0.895 0.188,-1.192 L 6.812,17.863 c -0.063,-0.417 0.631,-2.447 1.325,-2.625 0.694,-0.18 -0.063,1.193 -0.063,1.193 l -0.693,0.418 c 0,0 0.819,0.955 1.009,0.955 0.188,0 0.504,-0.479 0.504,-0.479 L 8.012,16.73 8.831,16.371 8.883,16.057 9.021,16.013 10.378,13.957 c 0.938,-0.384 2.091,-0.859 2.237,-0.929 0.253,-0.119 2.018,-1.133 2.333,-1.371 0.316,-0.24 1.008,-0.179 1.26,-0.179 0.253,0 0.631,-0.12 0.694,-0.778 0.063,-0.656 0.315,-0.776 0.505,-0.596 0.189,0.177 -0.19,0.477 0.252,0.596 0.441,0.12 0.819,0.418 1.135,0.12 0.23,-0.218 -0.078,-0.467 -0.286,-0.655 h 3.501 L 22.388,9.088 21.568,8.969 18.542,8.67 V 8.312 L 18.3,8.353 C 18.628,6.552 20.574,6.849 19.109,5.806 19.02,5.742 17.738,7.827 17.411,7.786 16.82,7.708 16.057,7.702 15.894,7.894 15.678,8.148 16.377,7.021 16.979,6.679 16.261,6.89 14.975,6.237 12.656,7.875 c -0.784,0.554 -2.752,2.8 -3.563,3.663 -3.422,4.04 -3.698,7.496 -3.698,7.649 0,0.298 0.725,0.467 0.787,0.826 0.063,0.356 -1.198,1.552 -1.198,2.148 0,0.274 -0.631,3.255 0.755,6.984 1.23,3.538 3.61,6.658 3.916,6.854 l 0.876,-0.465 c 0,0 -1.45,-2.567 -1.513,-2.807 -0.063,-0.238 1.639,-3.701 2.46,-3.58 0.819,0.116 0.63,0.357 1.135,0.059 0.505,-0.297 0.82,-2.747 1.387,-2.984 0.568,-0.24 1.198,-0.538 1.135,-1.135 -0.064,-0.598 -2.207,-1.671 -2.396,-1.85 M 26.422,5.685 24.72,5.087 25.035,6.043 26.422,5.685 m -6.369,2.209 c 0.19,0 3.972,-2.506 3.594,-2.567 -0.377,-0.059 -0.44,0 -1.451,-0.12 -1.007,-0.119 -2.081,1.433 -2.332,1.673 -0.252,0.239 -0.167,1.014 0.189,1.014 m 17.361,18.001 0.488,-0.634 -0.488,-0.172 -0.366,0.46 -0.427,0.633 0.365,0.172 0.428,-0.459 m 2.135,2.072 -0.122,-0.922 h -0.792 l -0.062,0.69 -0.733,-0.114 -0.182,-0.748 -0.366,-0.23 -0.428,0.518 -0.427,-0.114 -0.123,0.401 0.489,0.117 v 3.738 l 1.727,0.416 c -0.04,0.068 -0.069,0.127 -0.079,0.158 -0.123,0.403 0.487,0.578 0.914,0.403 0.158,-0.063 1.153,-0.446 1.469,-1.197 0.439,-1.046 0.724,-2.552 0.8,-3.039 l -0.193,-0.423 -1.221,0.461 -0.673,-0.115 h 0.002 M 38.938,12.656 c -2.792,-4.233 -9.5,-7 -9.5,-7 L 27.71,6.561 27.465,6.16 26.856,5.929 v 0.519 l 0.549,0.461 -0.365,0.172 -1.404,0.114 -3.173,1.727 0.305,1.381 -0.367,0.116 -0.182,0.287 1.038,1.552 0.061,0.519 -0.854,0.172 v 1.035 l -0.488,0.115 0.061,0.806 -4.151,2.878 0.122,1.609 c 0.305,0.403 2.686,2.82 2.686,2.82 0,0 2.746,0.114 3.356,-0.23 0.611,-0.345 0.183,0.345 0.367,0.518 0.182,0.173 0.244,1.381 0.426,1.496 0.184,0.115 0,0.804 0.244,1.037 0.244,0.229 0.244,2.991 0.244,2.991 0,0 1.465,2.474 1.465,3.106 0,0.632 -0.062,0.575 1.099,0.518 1.159,-0.057 1.403,-0.518 1.647,-0.689 0.244,-0.171 0.244,-0.575 0.488,-0.922 0.246,-0.346 0.672,-1.667 1.222,-2.127 0.548,-0.462 2.014,-0.808 2.135,-1.611 0.122,-0.807 0.671,-1.439 0.671,-1.439 l 2.639,-2.791 -0.074,0.375 -0.061,1.438 0.794,-0.287 -0.061,-1.555 -0.284,-0.301 0.04,-0.044 c 0,0 -0.184,-0.345 -0.427,-0.345 -0.244,0 -1.71,0.345 -1.953,0.288 -0.244,-0.058 -1.282,-2.82 -1.465,-2.934 -0.184,-0.115 -1.342,-2.015 -1.342,-2.015 0,0 2.684,3.222 3.111,4.488 0.248,0.737 1.18,0.051 1.938,-0.718 l 0.2,0.489 0.487,-0.116 -0.061,-0.575 h 0.549 v 0.863 l -0.183,0.461 -0.063,0.747 0.489,0.461 0.244,-0.402 0.791,-0.749 0.916,-0.46 0.245,0.46 0.122,0.633 -0.244,0.69 -0.488,0.403 -0.244,1.036 v 0.518 l -0.549,-0.346 -0.061,-1.092 -0.793,0.059 -0.365,0.977 0.549,0.807 1.281,0.173 1.037,-0.979 0.122,-1.896 0.462,-0.61 c 0.301,0.773 0.516,1.582 0.516,2.335 0,0.826 0.654,-0.417 0.334,-2.937 -0.001,-0.003 -0.503,-5.987 -3.268,-8.753 z m -12.206,2.479 -3.295,-0.117 1.402,-1.15 h 0.732 l 1.16,0.805 v 0.462 m 4.031,-0.403 v 0.518 h -1.403 l 0.122,0.346 -0.855,0.116 -0.06,0.286 -0.61,-0.113 -1.1,-0.231 0.184,-0.287 0.184,-0.347 0.61,-0.633 0.245,0.461 0.914,-0.058 0.488,-0.519 1.893,0.346 -0.612,0.115 m 0.121,-0.748 -0.732,0.115 -0.121,-0.519 0.914,-0.114 0.123,-0.518 0.672,0.691 -0.856,0.345 0,0 m 3.541,17.893 -0.428,0.346 0.061,0.863 h 0.549 V 32.34 l 0.49,-0.635 v -1.322 l -0.307,-0.06 -0.365,1.554 0,0 m -4.089,-1.725 c 0,0 -0.428,0.111 0.06,0.287 0.488,0.174 2.441,-2.818 2.441,-2.818 l -1.648,1.035 -0.853,1.496 0,0 M 27.013,41.18 26.648,40.832 25.916,40.716 25.795,41.065 24.818,40.95 24.756,40.487 h -0.732 l -0.793,0.463 h -1.402 l -0.122,-0.348 -2.257,-0.233 -0.366,0.349 -0.914,-0.23 -0.123,-0.813 -0.427,-0.06 -0.488,0.872 -1.647,-0.059 c 0.295,0.139 2.753,1.606 6.525,1.912 5.002,0.404 7.381,-0.811 7.381,-0.811 l -0.183,-0.176 -2.195,-0.173 0,0 0,0 z"
               inkscape:connector-curvature="0" />
          </g>
          <linearGradient
             gradientTransform="matrix(2.4117309,0,0,2.4117309,-1790.3582,-1817.4903)"
             gradientUnits="userSpaceOnUse"
             id="SVGID_7_"
             y2="1069.14"
             x2="690.94098"
             y1="977.15698"
             x1="690.94098">
            <stop
               offset="0"
               style="stop-color:#ffffff;stop-opacity:1"
               id="stop3533" />
            <stop
               offset="1"
               style="stop-color:#94caff;stop-opacity:1"
               id="stop3535" />
          </linearGradient>
          <linearGradient
             gradientTransform="matrix(7.6562887,0,0,7.6562887,-188.32754,493.2054)"
             gradientUnits="userSpaceOnUse"
             id="SVGID_8_"
             y2="32.2952"
             x2="19.853399"
             y1="5.1606002"
             x1="25.3057">
            <stop
               offset="0"
               style="stop-color:#ffffff;stop-opacity:1"
               id="stop3540" />
            <stop
               offset="0.49720001"
               style="stop-color:#00a100;stop-opacity:1"
               id="stop3542" />
            <stop
               offset="0.99440002"
               style="stop-color:#000000;stop-opacity:1"
               id="stop3544" />
          </linearGradient>
        </g>
        <g
           style="fill:#69a2cc;fill-opacity:1;fill-rule:evenodd;stroke:none"
           id="g3950"
           transform="matrix(0.40725621,0,0,0.40725621,70.114202,209.87782)">
          <g
             id="Layer_x0020_1"
             style="fill:#69a2cc;fill-opacity:1;stroke:none">
            <g
               id="g3956"
               style="fill:#69a2cc;fill-opacity:1;stroke:none">
              <g
                 id="g3960"
                 transform="matrix(0.50892613,0,0,0.50892613,59.504425,32.304683)"
                 style="fill:#69a2cc;fill-opacity:1;stroke:none">
                <path
                   id="path3933"
                   d="m 205,167 v -53 c 0,-9 -8,-17 -18,-17 -9,0 -17,8 -17,17 v 166 c 0,14 10,30 10,40 v 65 c 0,5 4,10 10,10 h 95 c 5,0 10,-4 10,-10 v -64 c 37,-21 48,-31 77,-123 l 13,-23 c 3,-4 1,-9 -3,-11 -14,-8 -32,-3 -40,10 l -2,4 -18,32 c -7,1 -12,-3 -12,-10 V 81 c 0,-9 -8,-17 -18,-17 -9,0 -17,8 -17,17 V 61 c 0,-9 -8,-17 -18,-17 -9,0 -17,8 -17,17 v 10 c 0,-9 -8,-17 -18,-17 -9,0 -17,8 -17,17 v 96 z"
                   class="fil0 str0"
                   inkscape:connector-curvature="0"
                   style="fill:#69a2cc;fill-opacity:1;stroke:none" />
                <path
                   id="path3937"
                   d="m 322,210 c -11,23 -75,0 -76,73"
                   class="fil2 str1"
                   inkscape:connector-curvature="0"
                   style="fill:#69a2cc;fill-opacity:1;stroke:none" />
              </g>
            </g>
          </g>
        </g>
        <path
           sodipodi:type="arc"
           style="color:#000000;fill:none;stroke:#69a2cc;stroke-width:21.48986053;stroke-linecap:square;stroke-linejoin:round;stroke-miterlimit:4;stroke-opacity:1;stroke-dasharray:none;stroke-dashoffset:0;marker:none;visibility:visible;display:inline;overflow:visible;enable-background:accumulate"
           id="path4171"
           sodipodi:cx="120.01333"
           sodipodi:cy="276.93723"
           sodipodi:rx="84.306885"
           sodipodi:ry="84.306885"
           d="m 204.32021,276.93723 c 0,46.5614 -37.74547,84.30688 -84.30688,84.30688 -46.561408,0 -84.306886,-37.74548 -84.306886,-84.30688 0,-46.56141 37.745478,-84.30689 84.306886,-84.30689 46.56141,0 84.30688,37.74548 84.30688,84.30689 z"
           transform="matrix(0.60793307,0,0,0.60793307,72.246137,96.47741)" />
        <rect
           y="302.67709"
           x="131.49437"
           height="10.375182"
           width="24.111971"
           id="rect4223"
           style="color:#000000;fill:#69a2cc;fill-opacity:1;stroke:none;stroke-width:7.38659573;marker:none;visibility:visible;display:inline;overflow:visible;enable-background:accumulate" />
      </g>
    </g>
    <rect
       style="opacity:0.5622318;color:#000000;fill:#ececec;fill-opacity:1;fill-rule:nonzero;stroke:none;stroke-width:2;marker:none;visibility:visible;display:inline;overflow:visible;enable-background:accumulate"
       id="rect5593"
       width="2265.7722"
       height="131.31984"
       x="-442.44681"
       y="1001.8546" />
    <rect
       style="opacity:0.5622318;color:#000000;fill:#69a2cb;fill-opacity:0.56078641;fill-rule:nonzero;stroke:none;stroke-width:2;marker:none;visibility:visible;display:inline;overflow:visible;enable-background:accumulate"
       id="rect5595"
       width="109.09647"
       height="95.964493"
       x="-5.0507627"
       y="1017.0068" />
    <text
       xml:space="preserve"
       style="font-size:58.55737305px;font-style:normal;font-variant:normal;font-weight:bold;font-stretch:normal;text-align:start;line-height:125%;letter-spacing:0px;word-spacing:0px;writing-mode:lr-tb;text-anchor:start;fill:#4d4d4d;fill-opacity:1;stroke:none;font-family:Arvo;-inkscape-font-specification:Arvo Bold"
       x="126.74698"
       y="1066.7423"
       id="text3004-6"
       sodipodi:linespacing="125%"><tspan
         sodipodi:role="line"
         id="tspan3006-2"
         x="126.74698"
         y="1066.7423">Bob Ross</tspan></text>
    <text
       xml:space="preserve"
       style="font-size:14px;font-style:normal;font-variant:normal;font-weight:normal;font-stretch:normal;line-height:125%;letter-spacing:0px;word-spacing:0px;fill:#000000;fill-opacity:1;stroke:none;font-family:Open Sans;-inkscape-font-specification:Open Sans"
       x="130.30966"
       y="1106.9104"
       id="text5628"
       sodipodi:linespacing="125%"><tspan
         sodipodi:role="line"
         id="tspan5630"
         x="130.30966"
         y="1106.9104">Joined January 1, 2013</tspan></text>
    <rect
       style="opacity:0.5622318;color:#000000;fill:#cbcbcb;fill-opacity:0.56078641;fill-rule:nonzero;stroke:none;stroke-width:2;marker:none;visibility:visible;display:inline;overflow:visible;enable-background:accumulate"
       id="rect5691"
       width="1270.7719"
       height="49.497475"
       x="4.0406098"
       y="1194.7937" />
    <text
       xml:space="preserve"
       style="font-size:21.2488308px;font-style:normal;font-variant:normal;font-weight:normal;font-stretch:normal;line-height:125%;letter-spacing:0px;word-spacing:0px;fill:#000000;fill-opacity:1;stroke:none;font-family:Open Sans;-inkscape-font-specification:Open Sans"
       x="-7.7825007"
       y="1180.9307"
       id="text5693"
       sodipodi:linespacing="125%"><tspan
         sodipodi:role="line"
         id="tspan5695"
         x="-7.7825007"
         y="1180.9307">Profile <tspan
   style="font-weight:bold"
   id="tspan5697">54%</tspan> complete</tspan></text>
    <rect
       y="1194.7937"
       x="-6.0609155"
       height="49.497475"
       width="638.41638"
       id="rect5699"
       style="opacity:0.5622318;color:#000000;fill:#60b385;fill-opacity:1;fill-rule:nonzero;stroke:none;stroke-width:2;marker:none;visibility:visible;display:inline;overflow:visible;enable-background:accumulate" />
    <text
       xml:space="preserve"
       style="font-size:23.26896477px;font-style:normal;font-variant:normal;font-weight:bold;font-stretch:normal;line-height:125%;letter-spacing:0px;word-spacing:0px;fill:#4d4d4d;fill-opacity:1;stroke:none;font-family:Arvo;-inkscape-font-specification:Arvo Bold"
       x="10.295001"
       y="1302.9136"
       id="text6209"
       sodipodi:linespacing="125%"><tspan
         sodipodi:role="line"
         id="tspan6211"
         x="10.295001"
         y="1302.9136">Basic Information</tspan></text>
    <text
       sodipodi:linespacing="125%"
       id="text6213"
       y="1302.9136"
       x="277.31259"
       style="font-size:23.26896477000000019px;font-style:normal;font-variant:normal;font-weight:bold;font-stretch:normal;line-height:125%;letter-spacing:0px;word-spacing:0px;fill:#808080;fill-opacity:1;stroke:none;font-family:Arvo;-inkscape-font-specification:Arvo Bold"
       xml:space="preserve"><tspan
         y="1302.9136"
         x="277.31259"
         id="tspan6215"
         sodipodi:role="line">Your Documents</tspan></text>
    <text
       xml:space="preserve"
       style="font-size:23.26896477px;font-style:normal;font-variant:normal;font-weight:bold;font-stretch:normal;line-height:125%;letter-spacing:0px;word-spacing:0px;fill:#808080;fill-opacity:1;stroke:none;font-family:Arvo;-inkscape-font-specification:Arvo Bold"
       x="536.78778"
       y="1302.9136"
       id="text6217"
       sodipodi:linespacing="125%"><tspan
         sodipodi:role="line"
         id="tspan6219"
         x="536.78778"
         y="1302.9136">Skills</tspan></text>
    <text
       sodipodi:linespacing="125%"
       id="text6221"
       y="1302.9136"
       x="992.5163"
       style="font-size:23.26896477000000019px;font-style:normal;font-variant:normal;font-weight:bold;font-stretch:normal;line-height:125%;letter-spacing:0px;word-spacing:0px;fill:#1db362;fill-opacity:0.69804132;stroke:none;font-family:Arvo;-inkscape-font-specification:Arvo Bold"
       xml:space="preserve"><tspan
         y="1302.9136"
         x="992.5163"
         id="tspan6223"
         sodipodi:role="line">LinkedIn Connection</tspan></text>
    <text
       xml:space="preserve"
       style="font-size:23.26896477px;font-style:normal;font-variant:normal;font-weight:bold;font-stretch:normal;line-height:125%;letter-spacing:0px;word-spacing:0px;fill:#808080;fill-opacity:1;stroke:none;font-family:Arvo;-inkscape-font-specification:Arvo Bold"
       x="838.45575"
       y="1302.9136"
       id="text7931"
       sodipodi:linespacing="125%"><tspan
         sodipodi:role="line"
         id="tspan7933"
         x="838.45575"
         y="1302.9136">History</tspan></text>
    <text
       xml:space="preserve"
       style="font-size:93.92847443px;font-style:normal;font-variant:normal;font-weight:300;font-stretch:normal;text-align:start;line-height:125%;letter-spacing:0px;word-spacing:0px;writing-mode:lr-tb;text-anchor:start;fill:#07a6ff;fill-opacity:1;stroke:none;font-family:Open Sans;-inkscape-font-specification:Open Sans Light"
       x="1164.5963"
       y="1084.4791"
       id="text7935"
       sodipodi:linespacing="125%"><tspan
         sodipodi:role="line"
         id="tspan7937"
         x="1164.5963"
         y="1084.4791">13</tspan></text>
    <text
       xml:space="preserve"
       style="font-size:22.21456528px;font-style:normal;font-variant:normal;font-weight:normal;font-stretch:normal;line-height:125%;letter-spacing:0px;word-spacing:0px;fill:#14aafe;fill-opacity:0.95686275;stroke:none;font-family:Open Sans;-inkscape-font-specification:Open Sans"
       x="1143.1156"
       y="1114.1617"
       id="text7939"
       sodipodi:linespacing="125%"><tspan
         sodipodi:role="line"
         x="1143.1156"
         y="1114.1617"
         id="tspan7943">applications</tspan></text>
    <text
       sodipodi:linespacing="125%"
       id="text7947"
       y="1302.9136"
       x="667.19312"
       style="font-size:23.26896477px;font-style:normal;font-variant:normal;font-weight:bold;font-stretch:normal;line-height:125%;letter-spacing:0px;word-spacing:0px;fill:#808080;fill-opacity:1;stroke:none;font-family:Arvo;-inkscape-font-specification:Arvo Bold"
       xml:space="preserve"><tspan
         y="1302.9136"
         x="667.19312"
         id="tspan7949"
         sodipodi:role="line">Interests</tspan></text>
    <g
       id="g8061"
       transform="translate(13,0)">
      <text
         xml:space="preserve"
         style="font-size:23.5468998px;font-style:normal;font-variant:normal;font-weight:normal;font-stretch:normal;text-indent:0;text-align:start;text-decoration:none;line-height:125%;letter-spacing:0px;word-spacing:0px;text-transform:none;direction:ltr;block-progression:tb;writing-mode:lr-tb;text-anchor:start;baseline-shift:baseline;color:#000000;fill:#4d4d4d;fill-opacity:1;fill-rule:nonzero;stroke:none;marker:none;visibility:visible;display:inline;overflow:visible;enable-background:accumulate;font-family:Open Sans;-inkscape-font-specification:Open Sans"
         x="12.774436"
         y="1397.5551"
         id="text7969"
         sodipodi:linespacing="125%"><tspan
           sodipodi:role="line"
           id="tspan7971"
           x="12.774436"
           y="1397.5551">Date of birth</tspan></text>
      <rect
         style="color:#000000;fill:#719dc0;fill-opacity:1;fill-rule:nonzero;stroke:none;stroke-width:2;marker:none;visibility:visible;display:inline;overflow:visible;enable-background:accumulate"
         id="rect7973"
         width="204.69034"
         height="45.446712"
         x="236.07623"
         y="1367.4384" />
      <text
         xml:space="preserve"
         style="font-size:33.20851135000000198px;font-style:normal;font-variant:normal;font-weight:bold;font-stretch:normal;line-height:125%;letter-spacing:0px;word-spacing:0px;fill:#ffffff;fill-opacity:1;stroke:none;font-family:Arvo;-inkscape-font-specification:Arvo Bold;text-indent:0;text-align:start;text-decoration:none;text-transform:none;direction:ltr;block-progression:tb;writing-mode:lr-tb;text-anchor:start;baseline-shift:baseline;color:#000000;fill-rule:nonzero;marker:none;visibility:visible;display:inline;overflow:visible;enable-background:accumulate"
         x="256.36649"
         y="1402.8213"
         id="text7975"
         sodipodi:linespacing="125%"><tspan
           sodipodi:role="line"
           id="tspan7977"
           x="256.36649"
           y="1402.8213">5/12/1955</tspan></text>
    </g>
    <g
       id="g8068"
       transform="translate(13,0.75)">
      <text
         sodipodi:linespacing="125%"
         id="text7979"
         y="1483.0172"
         x="12.774437"
         style="font-size:23.5468998px;font-style:normal;font-variant:normal;font-weight:normal;font-stretch:normal;text-indent:0;text-align:start;text-decoration:none;line-height:125%;letter-spacing:0px;word-spacing:0px;text-transform:none;direction:ltr;block-progression:tb;writing-mode:lr-tb;text-anchor:start;baseline-shift:baseline;color:#000000;fill:#4d4d4d;fill-opacity:1;fill-rule:nonzero;stroke:none;stroke-width:1;marker:none;visibility:visible;display:inline;overflow:visible;enable-background:accumulate;font-family:Open Sans;-inkscape-font-specification:Open Sans"
         xml:space="preserve"><tspan
           y="1483.0172"
           x="12.774437"
           id="tspan7981"
           sodipodi:role="line">Place of birth</tspan></text>
      <rect
         y="1447.4384"
         x="236.07623"
         height="50.446712"
         width="470.69034"
         id="rect7983"
         style="color:#000000;fill:#719dc0;fill-opacity:1;fill-rule:nonzero;stroke:none;stroke-width:2;marker:none;visibility:visible;display:inline;overflow:visible;enable-background:accumulate" />
      <text
         sodipodi:linespacing="125%"
         id="text7985"
         y="1481.5071"
         x="252.26208"
         style="font-size:33.20851135px;font-style:normal;font-variant:normal;font-weight:bold;font-stretch:normal;line-height:125%;letter-spacing:0px;word-spacing:0px;fill:#ffffff;fill-opacity:1;stroke:none;font-family:Arvo;-inkscape-font-specification:Arvo Bold"
         xml:space="preserve"><tspan
           y="1481.5071"
           x="252.26208"
           id="tspan7987"
           sodipodi:role="line">Birmingham, Alabama</tspan></text>
    </g>
    <g
       id="g8075"
       transform="translate(13,0)">
      <text
         xml:space="preserve"
         style="font-size:23.5468998px;font-style:normal;font-variant:normal;font-weight:normal;font-stretch:normal;text-indent:0;text-align:start;text-decoration:none;line-height:125%;letter-spacing:0px;word-spacing:0px;text-transform:none;direction:ltr;block-progression:tb;writing-mode:lr-tb;text-anchor:start;baseline-shift:baseline;color:#000000;fill:#4d4d4d;fill-opacity:1;fill-rule:nonzero;stroke:none;stroke-width:1;marker:none;visibility:visible;display:inline;overflow:visible;enable-background:accumulate;font-family:Open Sans;-inkscape-font-specification:Open Sans"
         x="12.774437"
         y="1567.0172"
         id="text8025"
         sodipodi:linespacing="125%"><tspan
           sodipodi:role="line"
           id="tspan8027"
           x="12.774437"
           y="1567.0172">Social security #</tspan></text>
      <rect
         style="color:#000000;fill:#719dc0;fill-opacity:1;fill-rule:nonzero;stroke:none;stroke-width:2;marker:none;visibility:visible;display:inline;overflow:visible;enable-background:accumulate"
         id="rect8029"
         width="217.69034"
         height="50.446712"
         x="236.07623"
         y="1531.4384" />
      <text
         xml:space="preserve"
         style="font-size:33.20851135000000198px;font-style:normal;font-variant:normal;font-weight:bold;font-stretch:normal;line-height:125%;letter-spacing:0px;word-spacing:0px;fill:#ffffff;fill-opacity:1;stroke:none;font-family:Arvo;-inkscape-font-specification:Arvo Bold;text-indent:0;text-align:start;text-decoration:none;text-transform:none;direction:ltr;block-progression:tb;writing-mode:lr-tb;text-anchor:start;baseline-shift:baseline;color:#000000;fill-rule:nonzero;marker:none;visibility:visible;display:inline;overflow:visible;enable-background:accumulate"
         x="256.36649"
         y="1566.8213"
         id="text8031"
         sodipodi:linespacing="125%"><tspan
           sodipodi:role="line"
           id="tspan8033"
           x="256.36649"
           y="1566.8213">  1234</tspan></text>
    </g>
    <text
       xml:space="preserve"
       style="font-size:31.06395721px;font-style:normal;font-variant:normal;font-weight:normal;font-stretch:normal;line-height:125%;letter-spacing:0px;word-spacing:0px;fill:#000000;fill-opacity:1;stroke:none;font-family:Open Sans;-inkscape-font-specification:Open Sans"
       x="136.01724"
       y="1684.1956"
       id="text8092"
       sodipodi:linespacing="125%"><tspan
         sodipodi:role="line"
         id="tspan8094"
         x="136.01724"
         y="1684.1956">Resume</tspan></text>
    <text
       sodipodi:linespacing="125%"
       id="text8096"
       y="1712.2917"
       x="137.2966"
       style="font-size:18.02859688px;font-style:italic;font-variant:normal;font-weight:normal;font-stretch:normal;line-height:125%;letter-spacing:0px;word-spacing:0px;fill:#999999;fill-opacity:1;stroke:none;font-family:Open Sans;-inkscape-font-specification:Open Sans Italic"
       xml:space="preserve"><tspan
         y="1712.2917"
         x="137.2966"
         id="tspan8098"
         sodipodi:role="line">Not uploaded yet</tspan></text>
    <text
       sodipodi:linespacing="125%"
       id="text8129"
       y="1684.1956"
       x="422.97562"
       style="font-size:31.06395721px;font-style:normal;font-variant:normal;font-weight:normal;font-stretch:normal;line-height:125%;letter-spacing:0px;word-spacing:0px;fill:#000000;fill-opacity:1;stroke:none;font-family:Open Sans;-inkscape-font-specification:Open Sans"
       xml:space="preserve"><tspan
         y="1684.1956"
         x="422.97562"
         id="tspan8131"
         sodipodi:role="line">Resume</tspan></text>
    <text
       xml:space="preserve"
       style="font-size:18.02859688px;font-style:italic;font-variant:normal;font-weight:normal;font-stretch:normal;line-height:125%;letter-spacing:0px;word-spacing:0px;fill:#999999;fill-opacity:1;stroke:none;font-family:Open Sans;-inkscape-font-specification:Open Sans Italic"
       x="424.25497"
       y="1712.2917"
       id="text8133"
       sodipodi:linespacing="125%"><tspan
         sodipodi:role="line"
         id="tspan8135"
         x="424.25497"
         y="1712.2917"
         style="font-style:normal;fill:#4d4d4d;-inkscape-font-specification:Open Sans">Uploaded 2/2/2013</tspan></text>
    <text
       sodipodi:linespacing="125%"
       id="text8137"
       y="1740.2917"
       x="424.25497"
       style="font-size:18.02859688px;font-style:italic;font-variant:normal;font-weight:normal;font-stretch:normal;line-height:125%;letter-spacing:0px;word-spacing:0px;fill:#07a6ff;fill-opacity:1;stroke:none;font-family:Open Sans;-inkscape-font-specification:Open Sans Italic"
       xml:space="preserve"><tspan
         style="font-style:normal;fill:#07a6ff;fill-opacity:1;-inkscape-font-specification:Open Sans"
         y="1740.2917"
         x="424.25497"
         id="tspan8139"
         sodipodi:role="line">bob_ross.pdf</tspan></text>
    <g
       id="g8163"
       transform="translate(-86.82338,0)">
      <rect
         y="1662.3622"
         x="716.59796"
         height="106.41968"
         width="96.745163"
         id="rect8141"
         style="color:#000000;fill:#d6d6d6;fill-opacity:1;fill-rule:nonzero;stroke:none;stroke-width:1;marker:none;visibility:visible;display:inline;overflow:visible;enable-background:accumulate" />
      <rect
         y="1677.1042"
         x="729.95801"
         height="13.820739"
         width="70.485771"
         id="rect8143"
         style="color:#000000;fill:#bcbcbc;fill-opacity:1;fill-rule:nonzero;stroke:none;stroke-width:1;marker:none;visibility:visible;display:inline;overflow:visible;enable-background:accumulate" />
      <rect
         style="color:#000000;fill:#bcbcbc;fill-opacity:1;fill-rule:nonzero;stroke:none;stroke-width:1;marker:none;visibility:visible;display:inline;overflow:visible;enable-background:accumulate"
         id="rect8145"
         width="70.485771"
         height="13.820739"
         x="729.95801"
         y="1699.2174" />
      <rect
         y="1721.3307"
         x="729.95801"
         height="13.820739"
         width="70.485771"
         id="rect8147"
         style="color:#000000;fill:#bcbcbc;fill-opacity:1;fill-rule:nonzero;stroke:none;stroke-width:1;marker:none;visibility:visible;display:inline;overflow:visible;enable-background:accumulate" />
      <rect
         style="color:#000000;fill:#bcbcbc;fill-opacity:1;fill-rule:nonzero;stroke:none;stroke-width:1;marker:none;visibility:visible;display:inline;overflow:visible;enable-background:accumulate"
         id="rect8149"
         width="70.485771"
         height="13.820739"
         x="729.95801"
         y="1743.4438" />
    </g>
    <text
       xml:space="preserve"
       style="font-size:31.06395721px;font-style:normal;font-variant:normal;font-weight:normal;font-stretch:normal;line-height:125%;letter-spacing:0px;word-spacing:0px;fill:#000000;fill-opacity:1;stroke:none;font-family:Open Sans;-inkscape-font-specification:Open Sans"
       x="742.17664"
       y="1684.1956"
       id="text8151"
       sodipodi:linespacing="125%"><tspan
         sodipodi:role="line"
         id="tspan8153"
         x="742.17664"
         y="1684.1956">Cover Letter</tspan></text>
    <text
       sodipodi:linespacing="125%"
       id="text8155"
       y="1712.2917"
       x="743.45599"
       style="font-size:18.02859688px;font-style:italic;font-variant:normal;font-weight:normal;font-stretch:normal;line-height:125%;letter-spacing:0px;word-spacing:0px;fill:#999999;fill-opacity:1;stroke:none;font-family:Open Sans;-inkscape-font-specification:Open Sans Italic"
       xml:space="preserve"><tspan
         style="font-style:normal;fill:#4d4d4d;-inkscape-font-specification:Open Sans"
         y="1712.2917"
         x="743.45599"
         id="tspan8157"
         sodipodi:role="line">Uploaded 2/2/2013</tspan></text>
    <text
       xml:space="preserve"
       style="font-size:18.02859688px;font-style:italic;font-variant:normal;font-weight:normal;font-stretch:normal;line-height:125%;letter-spacing:0px;word-spacing:0px;fill:#07a6ff;fill-opacity:1;stroke:none;font-family:Open Sans;-inkscape-font-specification:Open Sans Italic"
       x="743.45599"
       y="1740.2917"
       id="text8159"
       sodipodi:linespacing="125%"><tspan
         sodipodi:role="line"
         id="tspan8161"
         x="743.45599"
         y="1740.2917"
         style="font-style:normal;fill:#07a6ff;fill-opacity:1;-inkscape-font-specification:Open Sans">bob_ross.pdf</tspan></text>
    <g
       id="g8170"
       transform="translate(-402.193,0)">
      <rect
         style="color:#000000;fill:#d6d6d6;fill-opacity:1;fill-rule:nonzero;stroke:none;stroke-width:1;marker:none;visibility:visible;display:inline;overflow:visible;enable-background:accumulate"
         id="rect8172"
         width="96.745163"
         height="106.41968"
         x="716.59796"
         y="1662.3622" />
      <rect
         style="color:#000000;fill:#bcbcbc;fill-opacity:1;fill-rule:nonzero;stroke:none;stroke-width:1;marker:none;visibility:visible;display:inline;overflow:visible;enable-background:accumulate"
         id="rect8174"
         width="70.485771"
         height="13.820739"
         x="729.95801"
         y="1677.1042" />
      <rect
         y="1699.2174"
         x="729.95801"
         height="13.820739"
         width="70.485771"
         id="rect8176"
         style="color:#000000;fill:#bcbcbc;fill-opacity:1;fill-rule:nonzero;stroke:none;stroke-width:1;marker:none;visibility:visible;display:inline;overflow:visible;enable-background:accumulate" />
      <rect
         style="color:#000000;fill:#bcbcbc;fill-opacity:1;fill-rule:nonzero;stroke:none;stroke-width:1;marker:none;visibility:visible;display:inline;overflow:visible;enable-background:accumulate"
         id="rect8178"
         width="70.485771"
         height="13.820739"
         x="729.95801"
         y="1721.3307" />
      <rect
         y="1743.4438"
         x="729.95801"
         height="13.820739"
         width="70.485771"
         id="rect8180"
         style="color:#000000;fill:#bcbcbc;fill-opacity:1;fill-rule:nonzero;stroke:none;stroke-width:1;marker:none;visibility:visible;display:inline;overflow:visible;enable-background:accumulate" />
    </g>
    <g
       transform="translate(-690.69257,0)"
       id="g8182">
      <rect
         y="1662.3622"
         x="716.59796"
         height="106.41968"
         width="96.745163"
         id="rect8184"
         style="color:#000000;fill:#d6d6d6;fill-opacity:1;fill-rule:nonzero;stroke:none;stroke-width:1;marker:none;visibility:visible;display:inline;overflow:visible;enable-background:accumulate" />
      <rect
         y="1677.1042"
         x="729.95801"
         height="13.820739"
         width="70.485771"
         id="rect8186"
         style="color:#000000;fill:#bcbcbc;fill-opacity:1;fill-rule:nonzero;stroke:none;stroke-width:1;marker:none;visibility:visible;display:inline;overflow:visible;enable-background:accumulate" />
      <rect
         style="color:#000000;fill:#bcbcbc;fill-opacity:1;fill-rule:nonzero;stroke:none;stroke-width:1;marker:none;visibility:visible;display:inline;overflow:visible;enable-background:accumulate"
         id="rect8188"
         width="70.485771"
         height="13.820739"
         x="729.95801"
         y="1699.2174" />
      <rect
         y="1721.3307"
         x="729.95801"
         height="13.820739"
         width="70.485771"
         id="rect8190"
         style="color:#000000;fill:#bcbcbc;fill-opacity:1;fill-rule:nonzero;stroke:none;stroke-width:1;marker:none;visibility:visible;display:inline;overflow:visible;enable-background:accumulate" />
      <rect
         style="color:#000000;fill:#bcbcbc;fill-opacity:1;fill-rule:nonzero;stroke:none;stroke-width:1;marker:none;visibility:visible;display:inline;overflow:visible;enable-background:accumulate"
         id="rect8192"
         width="70.485771"
         height="13.820739"
         x="729.95801"
         y="1743.4438" />
    </g>
    <g
       id="g8212">
      <path
         transform="translate(-10,-16.450472)"
         d="m 782,1489.8622 a 18.5,18.5 0 1 1 -37,0 18.5,18.5 0 1 1 37,0 z"
         sodipodi:ry="18.5"
         sodipodi:rx="18.5"
         sodipodi:cy="1489.8622"
         sodipodi:cx="763.5"
         id="path8194"
         style="color:#000000;fill:#b3b3b3;fill-opacity:1;fill-rule:nonzero;stroke:none;stroke-width:1;marker:none;visibility:visible;display:inline;overflow:visible;enable-background:accumulate"
         sodipodi:type="arc" />
      <text
         sodipodi:linespacing="125%"
         id="text8208"
         y="1478.6617"
         x="739.66748"
         style="font-size:14px;font-style:normal;font-variant:normal;font-weight:bold;font-stretch:normal;text-align:start;line-height:125%;letter-spacing:0px;word-spacing:0px;writing-mode:lr-tb;text-anchor:start;fill:#ffffff;fill-opacity:1;stroke:none;font-family:Open Sans;-inkscape-font-specification:Open Sans Bold"
         xml:space="preserve"><tspan
           y="1478.6617"
           x="739.66748"
           id="tspan8210"
           sodipodi:role="line">edit</tspan></text>
    </g>
    <g
       id="g8217"
       transform="translate(-259.50819,83.4386)">
      <path
         sodipodi:type="arc"
         style="color:#000000;fill:#b3b3b3;fill-opacity:1;fill-rule:nonzero;stroke:none;stroke-width:1;marker:none;visibility:visible;display:inline;overflow:visible;enable-background:accumulate"
         id="path8219"
         sodipodi:cx="763.5"
         sodipodi:cy="1489.8622"
         sodipodi:rx="18.5"
         sodipodi:ry="18.5"
         d="m 782,1489.8622 c 0,10.2173 -8.28273,18.5 -18.5,18.5 -10.21727,0 -18.5,-8.2827 -18.5,-18.5 0,-10.2173 8.28273,-18.5 18.5,-18.5 10.21727,0 18.5,8.2827 18.5,18.5 z"
         transform="translate(-10,-16.450472)" />
      <text
         xml:space="preserve"
         style="font-size:14px;font-style:normal;font-variant:normal;font-weight:bold;font-stretch:normal;text-align:start;line-height:125%;letter-spacing:0px;word-spacing:0px;writing-mode:lr-tb;text-anchor:start;fill:#ffffff;fill-opacity:1;stroke:none;font-family:Open Sans;-inkscape-font-specification:Open Sans Bold"
         x="739.66748"
         y="1478.6617"
         id="text8221"
         sodipodi:linespacing="125%"><tspan
           sodipodi:role="line"
           id="tspan8223"
           x="739.66748"
           y="1478.6617">edit</tspan></text>
    </g>
    <g
       transform="translate(-272.94322,-83.4386)"
       id="g8225">
      <path
         transform="translate(-10,-16.450472)"
         d="m 782,1489.8622 c 0,10.2173 -8.28273,18.5 -18.5,18.5 -10.21727,0 -18.5,-8.2827 -18.5,-18.5 0,-10.2173 8.28273,-18.5 18.5,-18.5 10.21727,0 18.5,8.2827 18.5,18.5 z"
         sodipodi:ry="18.5"
         sodipodi:rx="18.5"
         sodipodi:cy="1489.8622"
         sodipodi:cx="763.5"
         id="path8227"
         style="color:#000000;fill:#b3b3b3;fill-opacity:1;fill-rule:nonzero;stroke:none;stroke-width:1;marker:none;visibility:visible;display:inline;overflow:visible;enable-background:accumulate"
         sodipodi:type="arc" />
      <text
         sodipodi:linespacing="125%"
         id="text8229"
         y="1478.6617"
         x="739.66748"
         style="font-size:14px;font-style:normal;font-variant:normal;font-weight:bold;font-stretch:normal;text-align:start;line-height:125%;letter-spacing:0px;word-spacing:0px;writing-mode:lr-tb;text-anchor:start;fill:#ffffff;fill-opacity:1;stroke:none;font-family:Open Sans;-inkscape-font-specification:Open Sans Bold"
         xml:space="preserve"><tspan
           y="1478.6617"
           x="739.66748"
           id="tspan8231"
           sodipodi:role="line">edit</tspan></text>
    </g>
  </g>
</svg>
