<?xml version="1.0" encoding="utf-8"?>
<!-- Generator: Adobe Illustrator 16.0.0, SVG Export Plug-In . SVG Version: 6.00 Build 0)  -->
<!DOCTYPE svg PUBLIC "-//W3C//DTD SVG 1.1//EN" "http://www.w3.org/Graphics/SVG/1.1/DTD/svg11.dtd">
<svg version="1.1" xmlns="http://www.w3.org/2000/svg" xmlns:xlink="http://www.w3.org/1999/xlink" x="0px" y="0px" width="320px"
	 height="30px" viewBox="0 0 320 30" style="enable-background:new 0 0 320 30;" xml:space="preserve">
<style type="text/css">
<![CDATA[
	.st0{fill:#E0DEC8;}
	.st1{clip-path:url(#SVGID_12_);fill:none;}
	.st2{clip-path:url(#SVGID_2_);}
	.st3{clip-path:url(#SVGID_4_);}
	.st4{clip-path:url(#SVGID_6_);}
	.st5{clip-path:url(#SVGID_8_);}
	.st6{fill:#695845;}
	.st7{fill:#695846;}
	.st8{clip-path:url(#SVGID_10_);fill:none;}
	.st9{fill:#D1CDB3;}
	.st10{clip-path:url(#SVGID_10_);}
	.st11{clip-path:url(#SVGID_12_);}
	.st12{fill:#DAD7BC;}
]]>
</style>
<g id="Layer_1">
	<g>
		<g>
			<defs>
				<rect id="SVGID_1_" y="-351" width="320" height="80"/>
			</defs>
			<clipPath id="SVGID_2_">
				<use xlink:href="#SVGID_1_"  style="overflow:visible;"/>
			</clipPath>
			<g class="st2">
				<path class="st12" d="M1130.8,2.9c-17.5-32-36-63.5-54.8-94.7c-0.8-1.3-1.5-2.6-2.2-3.9c-3.3-6.3-3.3-6.3-9.2-2.7
					c-30.4,18.3-61.2,36-91.8,53.9c-5,2.9-5.6,2.8-8.6-2.2c-14.1-24-27.6-48.3-41.4-72.5c-9.7-16.9-19.7-33.6-29.7-50.3
					c-2.9-4.8-4.1-5-9.2-1.9c-30.6,18.7-61.7,36.4-92.6,54.4c-6.2,3.6-6.5,3.5-10.1-2.6c-8.3-14-17.2-27.8-24.9-42.2
					c-2.7-5-3.5-5.4-8.5-2.4c-19.8,11.7-39.6,23.4-59.5,34.9c-12.5,7.3-25.1,14.6-37.6,21.9c-7,4.1-7.7,3.8-11.3-3.2
					c-11-21.2-23.4-41.5-35.9-61.8c-16.1-26.1-30-53.4-45.9-79.7c-12.6-20.8-25.4-41.5-37.4-62.7c-10.7-19.2-21.5-38.6-32.7-57.7
					c-3.7-6.3-7.8-12.4-11.4-18.8c-0.8-1.5-2.5-2.9-1.1-5c-3.3,0-6.7,0-10,0c15.8,27.2,33.2,53.5,47,81.8c1.7,3.5,1.2,5-2.2,6.9
					c-29.5,17.1-58.9,34.4-88.3,51.7c-2.9,1.7-4,1.4-5.7-1.4c-13.7-23.4-27.6-46.7-41.3-70.1c-3.9-6.8-6.9-14-10.7-20.9
					c-1.7-3-1.2-4.5,1.8-6.2c12.6-7.2,25-14.5,37.5-21.9c11-6.5,22.2-12.6,32.8-19.9c-5.3,0-10.7,0-16,0
					c-15.2,10.2-31.4,18.6-47.1,28c-4.7,2.8-9.5,5.5-14.3,8.2c-1.3,0.7-2.4,2-3.6-0.2c-6.6-12.3-15-23.5-21.1-36.1c-3,0-6,0-9,0
					c2.3,7,6.6,13,10.4,19.2c12,20.1,24.4,40,35.4,60.8c1,1.9,1.9,3.9,2.8,5.8c3.7,7.9,3.7,7.9-4,12.3c-28.3,16.5-56.6,33-84.8,49.7
					c-2.7,1.6-3.9,1.4-5.4-1.2c-8.2-14.1-16.2-28.3-24.7-42.2c-8.7-14.2-17-28.6-24.5-43.4c-4.8-9.5-4.9-9.6,4.4-15.1
					c15-8.9,30.2-17.5,45.2-26.4c10.8-6.4,21.6-13.1,32.3-19.6c-5.3,0-10.7,0-16,0c0,2.6-2.3,3.1-3.9,4
					c-22.6,13.4-45.4,26.7-68.2,39.9c-0.6,0.3-1.2,0.6-1.8,1c-5.9,3.4-6.3,4.3-2.8,10.1c8,13,15.6,26.4,23.4,39.6
					c3.7,6.3,3.6,7-2.8,10.9c-20.9,12.8-42.2,24.8-63.3,37.3c-8.8,5.2-17.6,10.2-26.4,15.3c-5,2.9-6.3,2.6-9.3-2.2
					C132-255,123.1-269.2,115-284c-2.6-4.6-3.1-4.9-7.6-2.1c-31.1,18.7-62.6,36.8-94,55.1c-10.6,6.2-9.4,5-3.6,14.7
					c7.4,12.5,14.7,25,22,37.5c3.1,5.4,3.1,5.8-2.2,9c-19.7,12.2-39.9,23.5-59.8,35.3c-11.5,6.8-23,13.4-34.5,20.2
					c-5.2,3.1-5.6,4.5-2.3,9.5C-55.6-87.7-46.1-69.6-35.6-52c2.9,4.8,2.7,5.5-1.9,8.4c-30.8,18.9-61.6,37.9-92.6,56.4
					c-1.3,0.8-2.6,1.6-4.1,1.7c-0.2,0-0.4,0-0.5,0c-1.5,3,1.4,4.9,2.5,7.2c3,0,6,0,9,0c-1.6-2.9-1-4.4,2.2-6.3
					c28.9-17.3,57.7-34.9,86.4-52.5c3.5-2.1,5.3-2.3,7.6,1.8c10.7,19.1,21.8,38,32.8,57c2.7,0,5.3,0,8,0C10.4,14.9,7.1,8,3.6,1.2
					c-1.5-3-1.5-4.7,1.9-6.6c29.8-17.2,59.4-34.7,89-52.2c2.5-1.5,3.5-1.1,4.9,1.3c13.3,22.8,26.8,45.5,40.2,68.2
					c1.9,3.1,3.4,6.5,5.1,9.7c3,0,6,0,9,0c-2.9-8.4-7.8-15.8-12.1-23.4c-5.1-9.2-5.4-9.2,3.6-14.5c28.2-16.7,56.5-33.2,84.7-49.8
					c1.7-1,2.9-1.9,4.3,0.6c16.4,29.3,35.2,57.2,50.5,87.1c3.3,0,6.7,0,10,0C288.5,9.9,282.4-2,276-13.6c-2.2-4.1-1.4-6.1,2.7-8.4
					c27.6-16,55.1-32.2,82.5-48.4c8-4.8,7.9-5,12.5,3c14.7,25.3,30.8,49.7,44.3,75.7c2.3,4.4,4.5,8.9,6.7,13.4c4,0,8,0,12,0
					c-9-15.1-18-30.3-25.4-46.4c-1.3-2.8-0.7-3.5,1.6-4.8c29.6-17.3,59.1-34.7,88.6-52.1c2.9-1.7,4.5-2.2,6.5,1.4
					c13.8,25,30,48.7,43.5,74c3.1,5.9,5.8,12,8.9,17.9c1.3,2.5,0.5,3.5-1.7,4.6c-3.1,1.6-6,3.6-8.9,5.4c9.3,0,18.7,0,28,0
					C567.5,4.4,557.3-12.9,548.4-31c-1.5-3-1.3-4.4,1.7-6.2c29.4-17.2,58.8-34.5,88.1-51.9c3.4-2,4.8-1.3,6.8,1.9
					c13.5,23.3,27.4,46.3,40.9,69.6c4,6.9,7.2,14.2,10.8,21.3c1.3,2.6,0.7,4-1.9,5.5c-7.1,3.9-14,8.2-21,12.4c5.7,0,11.3,0,17,0
					c6-3.7,12-7.3,18-11c-0.7-2-1.3-4-2-6c-1.5-1.4-2.1-3.1-2.9-5.7c2.5,1.7,2.8,4,3.9,5.7c1,2,2,4,3,6c2,3.7,4,7.3,6,11
					c2.7,0,5.3,0,8,0c-3.3-4.5-4.6-9.9-7.4-14.7c-1.4-2.4,0-3.5,1.9-4.7c21.1-12.3,42.1-24.7,63.2-37c8.7-5.1,17.5-10.1,26.2-15.4
					c2.1-1.3,3.4-1.6,4.8,0.8c13.6,23,27.2,46,40.8,69c0.3,0.5,0.3,1.3,0.5,1.9c3.3,0,6.7,0,10,0c-3.4-6.8-6.7-13.7-10.2-20.5
					c-1.5-3-1.5-4.6,1.9-6.6c29.8-17.2,59.4-34.7,89-52.2c2.5-1.5,3.5-1.1,4.9,1.3c13.3,22.8,26.8,45.5,40.2,68.2
					c1.9,3.1,3.4,6.5,5.1,9.7c2.7,0,5.3,0,8,0C999.6,11,993.1,1.9,987.8-7.8c-4.6-8.5-9.4-16.8-14.3-25.1c-1.5-2.5-1.2-3.8,1.5-5.4
					c29.4-17.2,58.8-34.5,88-51.9c3.5-2.1,5.2-1.8,7.2,1.8c14.6,26.3,31.1,51.5,45.4,77.9c2,3.6,3.1,7.8,5.4,11.2
					c3,4.5,1.2,6.4-2.8,8.6c-7,3.8-13.7,8.1-20.6,12.2c6,0,12,0,18,0c3.4-2,6.9-3.8,10-6.1c3.1-2.3,4.6-1.4,5.8,1.7
					c0.6,1.5,1.4,3,2.2,4.4c2.7,0,5.3,0,8,0C1137.4,16,1134.3,9.3,1130.8,2.9z M431.7-251.1c28.1-16.5,56.2-33,84.3-49.6
					c2.4-1.4,3.8-1.7,5.4,1.2c13.5,23.1,27.3,46.1,40.8,69.2c4.3,7.5,7.9,15.4,11.8,23.1c0.3,0.6,0.5,1.2,0.7,1.7
					c0.4,1.9-1.2,2.3-2.3,2.9c-30,17.6-59.9,35.2-89.9,52.9c-1.8,1-3,1.6-4.4-0.8c-16.6-29.2-35.3-57.2-50.4-87.3
					C423.5-246.3,423.6-246.4,431.7-251.1z M291.2-241.8c29.3-17,58.6-34.2,87.8-51.4c2.3-1.4,4-2.3,5.9,1.1
					c16.2,29.6,35.7,57.3,50.5,87.7c1,2.1,1.8,4.3,2.6,6.1c0.1,2.6-1.8,3-3.1,3.7c-26.5,15.6-53,31.2-79.6,46.7
					c-3.2,1.9-6.4,3.6-9.5,5.6c-1.9,1.3-3.1,1.3-4.3-0.9c-15.7-28-33.6-54.7-48.3-83.2c-1.4-2.7-2.3-5.6-3.9-8
					C287-237.9,287.7-239.7,291.2-241.8z M153.6-232c27.9-16.2,55.8-32.5,83.6-48.8c2.9-1.7,5.6-3.5,8.2-5.1
					c1.9-0.1,2.3,1.1,2.8,2.1c16.3,28.6,34.2,56.3,49.6,85.5c5.4,10.1,5.4,10.2-4.5,16c-18.8,11-37.7,21.9-56.5,32.9
					c-8.9,5.2-17.8,10.4-26.6,15.8c-2.9,1.8-4.2,0.9-5.8-1.7c-13.8-23.5-27.9-46.9-41.5-70.6c-4-7-7.9-14.2-10.9-21.8
					C151.1-230.1,151.6-230.9,153.6-232z M27.2-197.1c-4.2-7.2-7.4-14.9-11.3-22.2c-1.5-2.9-0.7-4.3,2-5.9
					c29.3-17.1,58.4-34.4,87.6-51.6c1.1-0.7,2.4-1.2,3.5-1.8c2.2,0.2,2.4,2.2,3.2,3.4c8.2,13.7,16.1,27.5,24.4,41.2
					c7.9,13.1,15.5,26.4,22.8,39.8c1.4,2.6,2.1,5.7,3.8,8.1c3.2,4.6,1.3,6.5-2.9,8.9c-28.6,16.6-57.2,33.3-85.6,50.2
					c-3.5,2.1-5,2.4-7.4-1.8C54.2-151.7,40.5-174.3,27.2-197.1z M88.3-64.2C58.5-46.9,28.9-29.4-0.8-12c-1.6,1-3,2.1-4.4-0.5
					c-16.6-30.4-36.6-58.8-51.6-90.1c-3-6.4-3-6.3,3-9.8c28.1-16.5,56.2-33.1,84.3-49.6c1.6-0.9,3.2-1.7,4.5-2.3
					c1.9,0.1,2.4,1.2,3,2.2c17,30.7,36.9,59.7,52.3,91.4C91.9-67.4,91.5-66.1,88.3-64.2z M223.5-72.6c-15.7,9.3-31.6,18.5-47.3,27.8
					c-13.2,7.7-26.4,15.5-39.5,23.4c-3.5,2.1-5.2,2.1-7.5-1.9C112-53.1,93.1-82,77.8-112.9c-1.4-2.9-1.6-4.5,1.5-6.4
					c29.8-17.3,59.5-34.7,89.2-52.2c2.7-1.6,3.7-1.4,5.3,1.3c13.7,23.4,27.6,46.7,41.2,70.1c3.9,6.8,7.2,13.9,10.7,20.9
					c0.5,1,0.8,2.2,1.2,3.4C226.7-73.8,224.8-73.3,223.5-72.6z M360.8-80.1c-29.6,17.2-59.2,34.5-88.6,51.9c-2.9,1.7-4.2,1.8-6-1.4
					c-15.1-26.6-31.8-52.3-46.2-79.2c-2.3-4.2-4.1-8.7-6.3-13c-1.6-3.1,0.9-3.8,2.6-4.9c11.3-6.7,22.6-13.3,34-20
					c18.1-10.6,36.2-21.2,54.2-31.7c1-0.6,2.1-1.1,3-1.6c1.7-0.1,2.1,1.2,2.6,2.1c16.5,30,36.3,58.1,51.2,88.9c0.5,1,1,2.1,1.5,3.1
					C363.9-83.2,363.4-81.6,360.8-80.1z M497.8-89.6c-30.2,17.5-60.3,35.2-90.5,52.8c-0.7,0.4-1.4,0.9-2,1.2c-1.6-0.2-2-1.5-2.5-2.5
					c-16.5-29.8-36.3-57.8-51-88.6c-3.3-6.8-3.3-6.8,3-10.5c28.2-16.6,56.5-33.2,84.7-49.9c3.6-2.1,5.3-2.4,7.8,2
					c10.6,18.6,21.8,36.9,32.8,55.4c6.8,11.4,13.1,23.2,18.8,35.2C499.9-92.3,500.2-91,497.8-89.6z M635.7-99
					c-1.1,3.8-8.1,6-12.6,8.7c-26.2,15.4-52.5,30.8-78.8,46.2c-0.7,0.4-1.4,0.8-2,1.2c-1.5,0.4-1.9-0.7-2.3-1.5
					c-16.8-30.5-37-58.9-52-90.4c-2.2-4.7-1.5-6.8,2.8-9.3c28.9-16.7,57.7-33.8,86.6-50.6c1.8-1,3.4-2.7,5.2,0.5
					c15.4,27.3,32.8,53.3,47.3,81C632.4-108.6,636.9-102.9,635.7-99z M803.3-57.3c-19.4,11.4-38.7,22.7-58.1,34
					c-10.2,6-20.4,11.8-30.5,18c-3,1.9-4.5,2-6.5-1.4c-13.8-23.7-28-47.2-41.7-70.9c-3.8-6.6-7.3-13.4-10.2-20.5
					c-1.1-2.7-1-3.8,1.7-5.3c17.3-9.9,34.5-20,51.7-30.2c11.9-7,23.8-14,35.5-21.3c3.8-2.3,5.7-2.6,8.3,2
					c15.8,28.1,33.7,55,48.3,83.8c1.5,3,2.8,6,4.1,8.8C805.9-58.3,804.4-58,803.3-57.3z M938.7-63.8c-29.7,17.2-59.1,34.6-88.6,52
					c-1.8,1.1-3,1.5-4.3-0.8c-16.7-30.5-36.7-59.1-51.9-90.5c-2.2-4.5-1.5-6.5,2.7-8.9c28.6-16.6,57.1-33.5,85.7-50.2
					c1.3-0.8,2.7-1.4,3.7-1.9c1.8-0.2,2.4,0.8,3,1.9c16.9,30.6,36.7,59.5,52.1,90.9C942.8-67.6,942.5-66.1,938.7-63.8z"/>
			</g>
		</g>
	</g>
</g>
<g id="Layer_2">
	<g>
		<g>
			<defs>
				<polygon id="SVGID_7_" points="-0.1,-3 319.9,-3 319.9,33.7 -0.1,33.7 				"/>
			</defs>
			<clipPath id="SVGID_4_">
				<use xlink:href="#SVGID_7_"  style="overflow:visible;"/>
			</clipPath>
			<g class="st3">
				<g>
					<path class="st0" d="M127.9,10.9C127.9,10.9,127.8,10.9,127.9,10.9c-0.1,0.1-0.1,0.1-0.1,0.2c0,0,0.1,0,0.1,0
						C127.9,11,127.9,11,127.9,10.9z"/>
					<path class="st0" d="M105,8.3c-0.3,0-0.5,0-0.8-0.1c0,0-0.1,0-0.1,0C104.7,8.3,104.8,8.3,105,8.3z"/>
					<path class="st0" d="M124.2,10.8C124.6,10.9,124.4,10.7,124.2,10.8L124.2,10.8z"/>
					<path class="st0" d="M112.4,9C112.4,9,112.5,9,112.4,9C112.5,9,112.5,9,112.4,9z"/>
					<path class="st0" d="M408.1,87.5c0.2-1.6-0.3-2.3-0.1-3.9c-0.6-1.9,0-4.3-0.5-6.5c0.3-0.3,0.3-0.7,0.3-1.1
						c-0.5-5.2,0.2-9.2,0-13.3c0-0.6,0.1-1.2,0.1-1.8c-0.2-0.7-0.5-1.2-0.4-2.2c-0.5-2.6-1.8-5.4-1.9-7.7c-1-2.1-0.9-4.7-1.9-6.8
						c-0.2-2.2-0.8-4.3-1.5-6.4c0.2-1.1,0.1-1.9-0.4-2.9v-1.1c-0.2-0.4-0.3-0.8-0.2-1.3c-0.6-0.8-0.4-2-1.1-2.8
						c0-1.4-0.7-2.1-0.6-3.5c-0.4-1.8-0.9-2.6-1.3-4.3c-0.8-1.2-0.9-2.6-2-3.7c-0.4-1.7-1.7-3.1-3.7-4.2c-0.2,0.2-0.7,0.2-1.4,0.2
						c-0.4-0.2-0.3-0.6,0.3-0.6c-0.4-0.2-0.5-0.4-0.5-0.7c-1.1,0-1.5-0.1-2.2,0.2c-0.5-0.1-0.9-0.2-1.4-0.3
						c-1.2,0.1-0.2-0.5-1.2-0.5c-0.8,0-0.8,0.2-1,0.4c0.8,0,0.7,0.2,0.9,0.4c-1,0-0.8-0.4-1.7-0.4c-0.8-0.2-0.9-0.6-1.7-0.9
						c-1,0,0.3,0.5,0.5,0.7c-0.2,0.2-0.7,0.3-0.7,0.5c-0.9,0-0.9-0.2-1.7-0.2c-1.2-0.1-0.4-0.9-1.6-1c0.1,0.4,0.4,0.6,0.7,0.9
						c-0.2,0.2-0.7-0.2-0.7-0.4c-1,0.1-0.1,0.6-0.3,0.9c-1.9,0-1.5-0.7-2.4-1.1c-1.2,0.5-1.9,1.1-4.4,1.1c-0.4,0,0,0.4-0.5,0.4
						c-0.7-0.1-0.9,0.1-1.4-0.2c-0.5-0.2-0.7-0.2-1.4-0.1c-0.8,0-0.7-0.2-0.9-0.4c-1,0.2,0.1,0.9-0.5,1.2c-0.3-0.2-0.9-0.4-1.2-0.7
						c0.2-0.2-0.5-0.2-0.7-0.3c0.1-0.2,0-0.3-0.5-0.3c0.2,0.4-0.8,0.5-0.7,0.1c-0.4,0.1-0.2,0.4-0.7,0.4c-1.3,0.1-1.4-0.3-1.7-0.6
						c-1,0.1-0.9,0.7-1.2,1.1c-0.5-0.1-0.4-0.4-0.7-0.6c-0.5,0.1-0.1,0.6-0.3,0.8c0.1,0.2-0.3,0.2-0.7,0.2c-0.3,0,0,0.1,0,0.2
						c-0.7,0-0.8-0.6-1.4-0.3c-0.6,0-0.4-0.1,0-0.1c-0.1-0.1-0.6-0.1-1-0.1c-1.1-0.3,0,0.4-1.5,0.3c-0.2-0.1-0.3-0.8-0.9-1
						c-0.1-0.3-0.9-0.3-1.4-0.4c0.2-0.3-0.5-0.4-0.5-0.6c-0.7,0,0.2,0.2,0,0.4c-0.8-0.1-0.5,0.2-1,0.3c-1.6,0.1-2.4-0.6-3.8-0.3
						c-0.9-0.1-0.3,0.4-0.5,0.5c-0.3,0.2-1.8,0-1.5,0.5c-1.3,0-0.7-0.7-1.4-0.9c-0.6-0.1-0.9-0.3-1.4-0.4c-0.3,0.1,0.4,0.5,0.5,0.7
						c-0.6-0.2-1.2,0.1-1.7-0.1c-0.2-0.2-0.8-0.2-1.2-0.4c0-0.3,0.2-0.7-0.2-0.8c-0.6,0.1-0.1,0.4-0.5,0.4c-0.6,0-0.4,0.3-1,0.3
						c-0.3-0.3,1-0.9-0.4-1c0.4,0.4-0.2,0.3-1.2,0.2c0.4,0.4,0.5,0.9,0.4,1.6c-0.3,0.3-1.1,0.4-1.7,0.5c-0.4-0.3-1-0.4-1,0
						c-0.5-0.4-0.5-1-1.6-1.2c0.1,0.2,0.5,0.4-0.3,0.4c-0.5-0.2,0.6-0.8-0.7-0.9c1.1,0.6-1.6,0.5-1.2,1.2c0.6,0,0.5,0.5,0.1,0.5
						c-0.2-0.1-0.3-0.2-0.2-0.5c0,0,0,0,0.1,0c-1.1,0,0.5-0.6-0.7-0.6c-0.6,0.5,0.8,0.7,0.2,1.1c0.1,0.2-0.5,0.2-0.5,0.1
						c-0.4,0,0,0.3,0.2,0.4c0.1,0.2-0.4,0.2-0.3,0.4c-0.6,0.1-0.7-0.1-1.7-0.2c-0.4-0.2,0.3-0.6-0.2-0.9c-0.5,0-0.1,0.3-0.3,0.4
						c-0.8,0-0.4-0.3-0.9-0.4c-0.2,0.2-1,0.3-0.7-0.1c-0.4,0.2-0.7,0.4-1,0.6c-0.1,0.3-1.4,0.1-1.2,0.5c-0.5,0-0.5-0.1-0.5-0.3
						c-0.9-0.1-0.3,0.4-1.2,0.3c-0.4-0.8-1.1-1.4-1.6-2.1c-0.1-0.2,0.1-0.3,0.3-0.4c-0.1-0.3-0.7-0.3-0.5-0.7
						c0.1-0.2-0.2-0.2-0.2-0.4c-0.2-0.1-0.4-0.3-0.5-0.1c-1.3,0-0.8,0.4-0.5,0.6c-0.3,0.2-0.7,0.3-1,0.5c-0.1,0.3-0.9,0.2-1.2,0.4
						c-0.6,0.6-1,1.2-1.7,1.7c0.1,0.9-0.7,1.5-0.6,2.4c-0.9,1.4-1.9,3.2-2.5,4.7l-2.7,1.4c0,0,0,0,0,0c-0.8-0.3-0.4-0.7-1-1.1
						c-0.3,0.3,0.4,0.4-0.7,0.5c0-0.3-0.2,0-0.7,0c-0.4,0-0.4-0.2-0.7-0.2c0.3-0.2-0.2-0.4-0.1-0.8c-0.2-0.2-0.3-0.4-0.5-0.6
						c-0.2-0.2,0.7-0.5-0.3-0.5c0.3,0.2-0.4,0.2-0.5,0.3c-0.1,0.1,0.4,0.4-0.5,0.4c0.3-0.6-1.1-0.5-0.8-1.1c-1.8,0.1-1.2-0.6-2-0.8
						c-0.4,0.2-0.7-0.2-1.2-0.2c-0.5,0.2-1.8,0.3-2.1,0.5c-0.4,0.1-0.4,0.4-0.7,0.5c-0.2-0.5-0.5-0.9-0.9-1.3
						c0.1-0.1,0.2-0.3,0.3-0.4c-0.3,0.1-0.4,0-0.5,0c0-0.1,0.1-0.2-0.1-0.2c-0.6-1.4-1.7-2.6-3.5-3.5c-0.2,0.2-0.7,0.2-1.4,0.2
						c-0.4-0.2-0.3-0.6,0.3-0.6c-0.4-0.2-0.5-0.4-0.5-0.7c-1.1,0-1.5-0.1-2.2,0.2c-0.5-0.1-0.9-0.2-1.4-0.3
						c-1.2,0.1-0.2-0.5-1.2-0.5c-0.8,0-0.8,0.2-1,0.4c0.8,0,0.7,0.2,0.9,0.4c-1,0-0.8-0.4-1.7-0.4c-0.8-0.2-0.9-0.6-1.7-0.9
						c-1,0,0.3,0.5,0.5,0.7c-0.2,0.2-0.7,0.3-0.7,0.5c-0.9,0-0.9-0.2-1.7-0.2c-1.2-0.1-0.4-0.9-1.6-1c0.1,0.4,0.4,0.6,0.7,0.9
						c-0.2,0.2-0.7-0.2-0.7-0.4c-1,0.1-0.1,0.6-0.3,0.9c-1.9,0-1.5-0.7-2.4-1.1c-1.2,0.5-1.9,1.1-4.4,1.1c-0.4,0,0,0.4-0.5,0.4
						c-0.7-0.1-0.9,0.1-1.4-0.2c-0.5-0.2-0.7-0.2-1.4-0.1c-0.8,0-0.7-0.2-0.9-0.4c-1,0.2,0.1,0.9-0.5,1.2c-0.3-0.2-0.9-0.4-1.2-0.7
						c0.2-0.2-0.5-0.2-0.7-0.3c0.1-0.2,0-0.3-0.5-0.3c0.2,0.4-0.8,0.5-0.7,0.1c-0.4,0.1-0.2,0.4-0.7,0.4c-1.3,0.1-1.4-0.3-1.7-0.6
						c-1,0.1-0.9,0.7-1.2,1.1c-0.5-0.1-0.4-0.4-0.7-0.6c-0.5,0.1-0.1,0.6-0.3,0.8c0.1,0.2-0.3,0.2-0.7,0.2c-0.3,0,0,0.1,0,0.2
						c-0.7,0-0.8-0.6-1.4-0.3c-0.6,0-0.4-0.1,0-0.1c-0.1-0.1-0.6-0.1-1-0.1c-1.1-0.3,0,0.4-1.5,0.3c-0.2-0.1-0.3-0.8-0.9-1
						c-0.1-0.3-0.9-0.3-1.4-0.4c0.2-0.3-0.5-0.4-0.5-0.6c-0.7,0,0.2,0.2,0,0.4c-0.8-0.1-0.5,0.2-1,0.3c-1.6,0.1-2.4-0.6-3.8-0.3
						c-0.9-0.1-0.3,0.4-0.5,0.5c-0.3,0.2-1.8,0-1.5,0.5c-1.3,0-0.7-0.7-1.4-0.9c-0.6-0.1-0.9-0.3-1.4-0.4c-0.3,0.1,0.4,0.5,0.5,0.7
						c-0.6-0.2-1.2,0.1-1.7-0.1c-0.2-0.2-0.8-0.2-1.2-0.4c0-0.3,0.2-0.7-0.2-0.8c-0.6,0.1-0.1,0.4-0.5,0.4c-0.6,0-0.4,0.3-1,0.3
						c-0.3-0.3,1-0.9-0.4-1c0.4,0.4-0.2,0.3-1.2,0.2c0.4,0.4,0.5,0.9,0.4,1.6c-0.3,0.3-1.1,0.4-1.7,0.5c-0.4-0.3-1-0.4-1,0
						c-0.5-0.4-0.5-1-1.6-1.2c0.1,0.2,0.5,0.4-0.3,0.4c-0.5-0.2,0.6-0.8-0.7-0.9c1.1,0.6-1.6,0.5-1.2,1.2c-1.2,0,0.5-0.6-0.7-0.6
						c-0.6,0.5,0.8,0.7,0.2,1.1c0.1,0.2-0.5,0.2-0.5,0.1c-0.4,0,0,0.3,0.2,0.4c0.1,0.2-0.4,0.2-0.3,0.4c-0.6,0.1-0.7,0.4-1.7,0.3
						c-0.4-0.2,0.3-0.6-0.2-0.9c-0.5,0-0.1,0.3-0.3,0.4c-0.8,0-0.4-0.3-0.9-0.4c-0.2,0.2-1,0.3-0.7-0.1c-0.4,0.2-0.7,0.4-1,0.6
						c-0.1,0.3-1.4,0.1-1.2,0.5c-0.5,0-0.5-0.1-0.5-0.3c-0.9-0.1-0.3,0.4-1.2,0.3c-0.4-0.8-1.1-1.4-1.6-2.1
						c-0.1-0.2,0.1-0.3,0.3-0.4c-0.1-0.3-0.7-0.3-0.5-0.7c0.1-0.2-0.2-0.2-0.2-0.4c-0.2-0.1-0.4-0.3-0.5-0.1c-1.3,0-0.8,0.4-0.5,0.6
						c-0.3,0.2-0.7,0.3-1,0.5c-0.1,0.3-0.9,0.2-1.2,0.4c-0.6,0.6-1,1.2-1.7,1.7c0.1,0.8-0.5,1.3-0.6,2c-0.1,0.1,0.1,0.4-0.9,0.3
						c-0.2-0.1-0.3-0.8-0.9-1c-0.1-0.3-0.9-0.3-1.4-0.4c0.2-0.3-0.5-0.4-0.5-0.6c-0.7,0,0.2,0.2,0,0.4c-0.8-0.1-0.5,0.2-1,0.3
						c-1.6,0.1-2.4-0.6-3.8-0.3c-0.9-0.1-0.3,0.4-0.5,0.5c-0.3,0.2-1.8,0-1.5,0.5c-1.3,0-0.7-0.7-1.4-0.9c-0.6-0.1-0.9-0.3-1.4-0.4
						c-0.3,0.1,0.4,0.5,0.5,0.7c-0.6-0.2-1.2,0.1-1.7-0.1c-0.2-0.2-0.8-0.2-1.2-0.4c0-0.3,0.2-0.7-0.2-0.8c-0.6,0.1-0.1,0.4-0.5,0.4
						c-0.6,0-0.4,0.3-1,0.3c-0.3-0.3,1-0.9-0.4-1c0.4,0.4-0.2,0.3-1.2,0.2c0.4,0.4,0.5,0.9,0.4,1.6c-0.2,0.2-0.6,0.3-1,0.4
						c-0.2-0.5-0.4-1-0.6-1.5c0.2-0.3,0-1.7-0.3-2.1c-0.4,1,0.1,2.5-0.7,2.5c0.1-1.1-0.2-1.6-0.5-2.1c-0.1-0.9,0.2-2.1-0.5-2.1
						c0,1.3,0.4,3.2-0.4,3.7c0.1-2.1-0.2-2.8,0.4-4.3c-0.6-2.5-0.2-1.8-0.9-4.1c-0.1,0.6,0.4,2.1-0.4,1.9c0.2-1.6,0.1-1.7-0.5-1.8
						V4.8c0-0.4-0.1-1.2-0.3-0.6l0.1,4.6c-0.1,0.6,0.3,0.6,0.5,0.9c-1-0.1-0.2,1.1,0,1.2c-0.4,0.3-0.4,0.6-0.4,1.2
						c-0.1,1-0.1-2-0.2-1.1c0,0.6,0,1.2,0,1.8c-0.4-0.3-0.8-0.6-1.3-0.9c-0.2,0.2-0.7,0.2-1.4,0.2c-0.4-0.2-0.3-0.6,0.3-0.6
						c-0.4-0.2-0.5-0.4-0.5-0.7c-1.1,0-1.5-0.1-2.2,0.2c-0.5-0.1-0.9-0.2-1.4-0.3c-1.2,0.1-0.2-0.5-1.2-0.5c-0.8,0-0.8,0.2-1,0.4
						c0.8,0,0.7,0.2,0.9,0.4c-1,0-0.8-0.4-1.7-0.4c-0.8-0.2-0.9-0.6-1.7-0.9c-1,0,0.3,0.5,0.5,0.7c-0.2,0.2-0.7,0.3-0.7,0.5
						c-0.9,0-0.9-0.2-1.7-0.2c-1.2-0.1-0.4-0.9-1.6-1c0.1,0.4,0.4,0.6,0.7,0.9c-0.2,0.2-0.7-0.2-0.7-0.4c-1,0.1-0.1,0.6-0.3,0.9
						c-1.9,0-1.5-0.7-2.4-1.1c-1.2,0.5-1.9,1.1-4.4,1.1c-0.4,0,0,0.4-0.5,0.4c-0.7-0.1-0.9,0.1-1.4-0.2c-0.5-0.2-0.7-0.2-1.4-0.1
						c-0.8,0-0.7-0.2-0.9-0.4c-1,0.2,0.1,0.9-0.5,1.2c-0.3-0.2-0.9-0.4-1.2-0.7c0.2-0.2-0.5-0.2-0.7-0.3c0.1-0.2,0-0.3-0.5-0.3
						c0.2,0.4-0.8,0.5-0.7,0.1c-0.4,0.1-0.2,0.4-0.7,0.4c-1.3,0.1-1.4-0.3-1.7-0.6c-1,0.1-0.9,0.7-1.2,1.1c-0.5-0.1-0.4-0.4-0.7-0.6
						c-0.5,0.1-0.1,0.6-0.3,0.8c0.1,0.2-0.3,0.2-0.7,0.2c-0.3,0,0,0.1,0,0.2c-0.7,0-0.8-0.6-1.4-0.3c-0.6,0-0.4-0.1,0-0.1
						c-0.1-0.1-0.6-0.1-1-0.1c-1.1-0.3,0,0.4-1.5,0.3c-0.2-0.1-0.3-0.8-0.9-1c-0.1-0.3-0.9-0.3-1.4-0.4c0.2-0.3-0.5-0.4-0.5-0.6
						c-0.7,0,0.2,0.2,0,0.4c-0.8-0.1-0.5,0.2-1,0.3c-1.6,0.1-2.4-0.6-3.8-0.3c-0.9-0.1-0.3,0.4-0.5,0.5c-0.3,0.2-1.8,0-1.5,0.5
						c-1.3,0-0.7-0.7-1.4-0.9c-0.6-0.1-0.9-0.3-1.4-0.4c-0.3,0.1,0.4,0.5,0.5,0.7c-0.6-0.2-1.2,0.1-1.7-0.1
						c-0.2-0.2-0.8-0.2-1.2-0.4c0-0.3,0.2-0.7-0.2-0.8c-0.6,0.1-0.1,0.4-0.5,0.4c-0.6,0-0.4,0.3-1,0.3c-0.3-0.3,1-0.9-0.4-1
						c0.4,0.4-0.2,0.3-1.2,0.2c0.4,0.4,0.5,0.9,0.4,1.6c-0.3,0.3-1.1,0.4-1.7,0.5c-0.4-0.3-1-0.4-1,0c-0.5-0.4-0.5-1-1.6-1.2
						c0.1,0.2,0.5,0.4-0.3,0.4c-0.5-0.2,0.6-0.8-0.7-0.9c1,0.5-1,0.5-1.2,1c0.6,0,0.5,0.5,0.1,0.5c-0.1-0.1-0.2-0.2-0.2-0.3
						c-0.9,0,0.6-0.6-0.6-0.6c-0.6,0.5,0.8,0.7,0.2,1.1c0.1,0.2-0.5,0.2-0.5,0.1c-0.4,0,0,0.3,0.2,0.4c0.1,0.2-0.4,0.2-0.3,0.4
						c-0.5,0.1-0.7,0.3-1.3,0.3c-0.3,0-0.6-0.1-0.6-0.1c0.3-0.5,1.4-1,1.3-1.5c0,0,0,0.1-0.2,0c0,0,0-0.1-0.2-0.1
						c-0.5,0,0,0.1,0.2,0.2c-0.5-0.1-0.8-0.1-0.7,0c0.3,0.2,0,0.3-0.3,0.4c-0.5-0.2,0.1-0.1,0.3-0.2c-0.3-0.1-1-0.1-1.2-0.3
						c0.6,0-0.1-0.3,0.1-0.4c-0.1,0.1-0.4,0-0.3,0.2c-0.2,0.1-0.4,0.2-0.6,0.3c-0.3,0-0.3-0.1-0.7-0.2c-0.2,0.1-0.2,0.2-0.5,0.2
						c0.3,0.1,0.7,0.2,0,0.1c-0.6-0.2,0.8-0.3-0.9-0.5c0,0.4-0.5,0.7-1.2,0.9c0,0.2-0.5,0.4-0.6,0.4c-0.5-0.5,0.1-0.8-0.2-1.2
						c0,0.1-0.1,0.1-0.5,0c-0.1-0.2,0.7-0.1-0.4-0.3c-0.4-0.2-0.2,0.2-0.9,0.1c0-0.2,0.1-0.3,0.3-0.4c0-0.1-0.1-0.2-0.3-0.3
						c0-0.2,0.7-0.2,0.3-0.5c-0.2,0-0.4,0.1-0.6,0.1c0,0,0,0,0-0.1V9.5c0.1,0,0.2-0.1-0.2-0.1l-0.1-0.1c-0.1,0-0.1,0-0.2-0.1
						s0.1-0.1-0.4-0.2c-0.9-0.2-0.5,0.1-1.2-0.1c-0.4,0-0.1,0.3-1,0.1c-0.1-0.3,0.6-0.2,0.8-0.3c-0.8-0.1-1,0-1.3,0.2
						c-0.4,0.1-0.5,0.3-1.3,0.2c0.1-0.1-0.3-0.1-0.4-0.2c0.2,0,0.5,0,0.6,0.1c-1.5-0.3-1,0.3-2.4,0.2c-0.6-0.2,0.9-0.2,0.3-0.4
						c-0.1,0.1-1.5-0.2-0.7,0c-0.4,0-0.5,0.1-0.8,0.1c0.4,0.1,0.8,0.1,0.7,0.2c-0.2,0-0.2,0.2-1,0c-0.3-0.2,0.8,0.1,0.5-0.1
						c-1.1-0.2-0.5,0.2-1.5,0.1c0.3-0.2,1-0.5,0.7-0.7c-0.6,0.2-1.3,0.4-2.1,0.6c0-0.1-0.4-0.1-0.7-0.2c0.3,0,1.2,0,0.3-0.2
						c-0.7,0.1-0.8,0.1-0.1,0.3c-0.6-0.1,0.1,0.3-0.5,0.1c0-0.1-1-0.2-0.9-0.3c0.9,0.2,0.2-0.3,1-0.2c-0.8-0.2,0.7-0.2,0.1-0.3
						c-0.1,0-0.2,0-0.3,0.1c0.1,0,0.1,0,0.2,0c-0.6,0.1-0.5,0.4-1.3,0.4c0.1,0.2-0.4,0.2-0.3,0.4c-0.7-0.1-0.1,0.3-1,0.1
						c0-0.6,0.8-0.8,1.5-1c-0.2,0-0.4-0.1-0.7-0.1c-0.1,0.3-1.2,0.3-1.4,0.6c-0.9,0-1.3,0.2-1.5,0.4c-0.5,0-0.4,0.2-0.8,0.2
						c-0.1,0.1-0.1,0.3-0.8,0.2c0-0.2,0.5-0.2,0.6-0.3c0-0.5,1.6-0.7,1.5-1.1c-0.8,0.4-2.6,0.4-2.9,1c-0.5,0-0.3,0.2-1.1,0
						c0-0.1,0-0.2,0-0.3c0.2-0.1,0.5-0.2,0.5-0.5c0.3,0,0.9-0.2,0.5-0.3c-0.4,0.1-0.6,0.2-1,0.3c0.1-0.7,0.2-1.4,0.2-1.9
						c-0.8-0.3-0.4-0.7-1-1.1c-0.3,0.3,0.4,0.4-0.7,0.5c0-0.3-0.2,0-0.7,0c-0.4,0-0.4-0.2-0.7-0.2c0.3-0.2-0.2-0.4-0.1-0.8
						c-0.2-0.2-0.3-0.4-0.5-0.6c-0.2-0.2,0.7-0.5-0.3-0.5c0.3,0.2-0.4,0.2-0.5,0.3c-0.1,0.1,0.4,0.4-0.5,0.4
						c0.3-0.6-1.1-0.5-0.8-1.1c-1.8,0.1-1.2-0.6-2-0.8c-0.4,0.2-0.7-0.2-1.2-0.2c-0.5,0.2-1.8,0.3-2.1,0.5c-0.5,0.2-0.3,0.6-1.4,0.7
						C84,3,84.1,2.2,84.8,1.7c-1,0.2-0.1-0.4-0.7-0.3c0-0.2-0.1-0.4-0.5-0.5c-1.2,1.5-2.6,3.2-3.3,4.6c-0.4,0.1-0.8,0.3-1.2,0.4
						c-0.4,0.2,0.1,0.7-0.9,0.8c0.3-0.4,0.1-0.6,0.4-0.9c-0.2-0.1-0.1-0.5,0.2-0.6c0-0.1-0.3-0.2-0.2,0c-0.4,0.4-1.2,0.7-1.6,1
						c-0.3,0.2,0,0.7-0.4,0.9c-0.8-0.3-0.3-1.1-0.8-1.4c-0.3,0.7-0.4,1.4-0.8,2.1c0,0.1-0.1,0.1-0.1,0.2h-0.1c-0.8,0-0.8,0.2-1,0.4
						c0.6,0,0.7,0.2,0.8,0.3v0.1c-0.7,0-0.7-0.2-1.1-0.3c0.1-0.2,0.2-0.4,0.3-0.6c0.1-0.2-1.1,0-0.7-0.4c-0.2-0.3,0.2-0.5,0.2-0.8
						c0-0.1-0.3,0-0.2,0.1c-0.3,0.3-0.2,0.6-0.2,0.9c-0.2,0.1-0.3,0.3-0.4,0.5c-0.3-0.2-0.6-0.5-1-0.6c-1,0,0.3,0.5,0.5,0.7
						c-0.2,0.2-0.7,0.3-0.7,0.5c-0.4,0-0.7,0-0.9-0.1c0-0.1-0.1-0.2-0.3-0.2v0.1c-0.1,0-0.3,0-0.5,0c-1.2-0.1-0.4-0.9-1.6-1
						c0.1,0.4,0.4,0.6,0.7,0.9C68.5,8.7,68,8.3,68,8.1c-1,0.1-0.1,0.6-0.3,0.9c-1.9,0-1.5-0.7-2.4-1.1C64.1,8.4,63.4,9,60.9,9
						c-0.4,0,0,0.4-0.5,0.4c-0.7-0.1-0.9,0.1-1.4-0.2C58.5,9,58.3,9,57.6,9.1c-0.8,0-0.7-0.2-0.9-0.4c-1,0.2,0.1,0.9-0.5,1.2
						c-0.3-0.2-0.9-0.4-1.2-0.7C55.2,9,54.5,9,54.3,8.9c0.1-0.2,0-0.3-0.5-0.3C54,9,53,9.1,53.1,8.7c-0.4,0.1-0.2,0.4-0.7,0.4
						c-1.3,0.1-1.4-0.3-1.7-0.6c-1,0.1-0.9,0.7-1.2,1.1C49,9.5,49.1,9.2,48.8,9c-0.5,0.1-0.1,0.6-0.3,0.8c0.1,0.2-0.3,0.2-0.7,0.2
						c-0.3,0,0,0.1,0,0.2c-0.7,0-0.8-0.6-1.4-0.3c-0.6,0-0.4-0.1,0-0.1c-0.1-0.1-0.6-0.1-1-0.1c-1.1-0.3,0,0.4-1.5,0.3
						c-0.2-0.1-0.3-0.8-0.9-1c-0.1-0.3-0.9-0.3-1.4-0.4c0.2-0.3-0.5-0.4-0.5-0.6c-0.7,0,0.2,0.2,0,0.4c-0.8-0.1-0.5,0.2-1,0.3
						c-1.6,0.1-2.4-0.6-3.8-0.3c-0.9-0.1-0.3,0.4-0.5,0.5c-0.3,0.2-1.8,0-1.5,0.5c-1.3,0-0.7-0.7-1.4-0.9c-0.6-0.1-0.9-0.3-1.4-0.4
						c-0.3,0.1,0.4,0.5,0.5,0.7c-0.6-0.2-1.2,0.1-1.7-0.1c-0.2-0.2-0.8-0.2-1.2-0.4c0-0.3,0.2-0.7-0.2-0.8c-0.6-0.1-0.1,0.2-0.4,0.2
						c-0.6,0-0.4,0.3-1,0.3c-0.3-0.3,1-0.9-0.4-1c0.4,0.4-0.2,0.3-1.2,0.2c0.4,0.4,0.5,0.9,0.4,1.6c-0.3,0.3-1.1,0.4-1.7,0.5
						c-0.4-0.3-1-0.4-1,0c-0.5-0.4-0.5-1-1.6-1.2c0.1,0.2,0.5,0.4-0.3,0.4c-0.5-0.2,0.6-0.8-0.7-0.9c1.1,0.6-1.6,0.5-1.2,1.2
						c-0.2,0-0.3,0-0.4-0.1c0,0,0-0.1-0.1-0.1c0.1-0.2,0.4-0.3-0.2-0.4C18.3,6.3,17.5,8,17.4,6c-0.4-1.3-0.7-2.1-0.9-3.6
						c-0.6,0.1,0.2-0.7-0.7-0.4c-0.4,1.3,1.1,3.6,0.7,5.2c0.3,1,0.7-1,0.4-0.1c-0.4-1.1-0.4,1.2-0.6,0c-0.2-0.8-0.3-1.7-1-2.3
						c-0.5,1.1,0.5,1.7,0.3,2.6h-0.7c-0.1-0.4,0.6-1.2-0.5-1.3c-0.2,1.2,0.3,0.7,1,2.7c-0.1,0.5,0.4,0.7,0,1c-0.3,0-0.5,0-0.3-0.2
						c-0.1,0-0.1,0.1-0.2,0.1c-0.1-0.3-0.1-0.5,0.1-0.8c-0.7-0.5-0.7-1.6-0.6-2c0-0.2-0.4-0.1-0.5-0.2c0.6-0.1-0.1-0.7,0.4-0.8
						c-0.8-0.1-0.1,3.3-0.5,2.9C14,7.9,13.2,7.4,14,7c-1.1,0.1,0.3-0.7-1-0.7c0,0.3,0,0.6,0.3,0.7c-0.7-0.1-0.4,0.3-0.5,0.5
						c0.3,0.4,0.6,0.2,0.3,0.6C13,8.2,13,8.2,12.9,8.3c-0.3,0-0.7,0-0.7,0.1c0.5,0.2,0.3,0,1,0c0.2,0.3,0.3-3-0.2-2.8
						c-0.3,0-0.6-0.2-0.7,0c0.4,0,0.8,0,1,0.2c-0.6,0-0.8-0.2-1,0.2c0,0.4,0.8,1.3,0.1,1.9c-0.5-0.6-0.1,1.6-0.6,0.9
						c0-0.2,0.4-0.1,0.5-0.3c-0.2,0-0.5,0-0.5-0.1c0.9-0.3,1-0.3,0.9-1.1c-0.8,0-1.3,0.1-1.9,0.2c0.2-0.8-0.1-1.2,0.4-2.2
						c-0.3-0.3,0.1-0.4-0.3-0.5c0,0.2-0.7,0.1-0.7,0.3c0.6,0.2-0.6,0.7-0.2,1.2C9.8,6.5,9.8,6.7,9.5,6.9c0.1,1.2,0.4-0.4,0.2,1
						c0,0-0.1,0-0.1-0.1C9.4,7.7,9.3,7.5,9.3,7.4s0-0.1,0-0.2c-0.1-0.5-0.2-1,0-1.6C9,5.3,9.4,8.8,8.8,8.7C9.4,8.1,8.9,7.5,9,7.1
						c0-0.2,0.3-0.4,0.2-0.6c0-0.2,0-0.7-0.7-0.7c0,0.6-0.2,0.7,0,1.2c-0.6,0.3,0,0.6-0.4,1.2c0.8,0.2,0.1,0.2,0,0.6
						c0.1,0.1,1-3.2,0.3-3c-0.1-0.1,0-0.2-0.2-0.2C8,6.1,8.5,5.9,8.7,6C8.1,6.2,8.6,6.2,8.2,6.4c0.3,0.3,0.1,0.4,0,0.7
						C7.6,7.2,8,7.5,8.2,7.7c-0.3,0.2-0.7,3.3-1,3.5c0,0,0,0,0,0.1c-0.3-0.2-0.8-0.3-0.6-0.7c-1.8,0.1-1.2-0.6-2-0.8
						C4.2,10,3.9,9.6,3.4,9.6C2.8,9.7,1.5,9.7,1.1,9.9c-0.5,0.2-0.1,0.8-1.2,0.9c-0.7-0.5-0.8-1.5-0.1-2c-1,0.2-0.1-0.4-0.7-0.3
						C-0.9,8.3-1,8.1-1.4,8C-2.6,9.5-4,8.2-4.7,9.6C-5.1,9.7-5.5,9.9-5.9,10c-0.4,0.2,0.1,0.7-0.9,0.8c0.3-0.4,0.1-0.6,0.4-0.9
						c-0.2-0.1-0.1-0.5,0.2-0.6c0-0.1-0.3-0.2-0.2,0c-0.4,0.4-1.2,0.7-1.6,1c-0.3,0.2,0,0.7-0.4,0.9c-0.8-0.3-0.3-1.1-0.8-1.4
						c-0.3,0.7-0.4,1.4-0.8,2.1c-0.1,0.3-0.3,0.7-0.4,1c-0.6,0.3-0.3,0.7-1.1,0.9c-0.3-0.5-0.1-1.3,0.3-1.9c0.1-0.2-1.1,0-0.7-0.4
						c-0.2-0.3,0.2-0.5,0.2-0.8c0-0.1-0.3,0-0.2,0.1c-0.3,0.3-0.2,0.6-0.2,0.9c-0.4,0.3-0.4,0.7-0.7,1c-0.1,0.2,0.2,0.3,0.3,0.5
						c-0.7,0.2-0.2,0.6-1.1,0.8c-1.6,0.2-1.5-0.2-1-0.5c-0.3,0,0.4-0.8-0.3-1c-0.2,0.9-1,1.6-1,2.5c-0.6,0.7-0.3,0.9-1.1,1.6
						c-0.3,0.2,0,0.5,0.5,0.3c-0.6,0-0.2-0.3,0.2-0.3c-0.3,0.2,0.7,0.2,0,0.4c0.4,0.2-0.6,0.2-0.5,0.4c0.8-0.1,0.1,0.2,0.7,0.2
						c0.4,0.1,0.5,0.3,0.5,0.5c0.4,0.3,0.6,0.7,1,1.1c-0.3,0.3-0.4,0.7-0.7,1c0.3,0.4,0.6,0.7,0.6,1.2c1.1,0.7,1.7,1.1,2.8,1.8
						c0.3,0.9,0.5,1.8,0.9,2.6c0.2,0.4,0.6,1,0.3,1.3c-0.1,0.1,0.2,0.1,0.2,0.1c0.2,0.9-0.1,1.7,0.6,2.2c0.1-0.8-0.4-1-0.4-1.8
						c0.8-0.8-0.8-1.8,0-2.8c0.8,0.3,0.3,1.3,1.1,1.8c0.2,0.9,0.1,1.4,0.9,2c0.5-1-0.9-1.5-0.4-2.6c0-0.1-0.3-0.3-0.4-0.5
						c0.1-0.8-0.6-1.2-0.4-1.8c0.8,0,0.7,0.3,1.2,0.3c0.4,0.7,0.8,1.3,0.9,2c0.4,0.2,0.7,0.4,1,0.7c-0.4,0.6,0.3,0.7,0.3,1.2
						c0.2,0.2,0.6,0.2,1.2,0.3c0,0.5-0.1,1.4,0.6,1.7c-0.1-2-1.2-3.4-1.1-4.8c0.7,0.1,1.2,0.6,0.8,0.9c0.4,0,0.8-0.1,0.7,0.1
						c0.2,0.4,0.3,0.8,0.8,1.1c-0.1-0.3,0-0.5,0.4-0.7c0.1,0.2,0.2,0.4,0.5,0.6c0.1,0.4-0.3,1.1,1,1.1c0.4-0.4,0.2-1,0.1-1.5
						c0-0.3,0.3-0.4,0.2-0.5C-1,26-1.8,25.5-0.5,25.5c0.3,0.7,0.1,4.4,0.4,5.1v7.7c-0.5,1.9-0.4,3.9-0.9,5.8
						c-1.8,3.8-3.3,7.6-3.6,11.5c-0.3,0.3-0.1,0.7-0.4,1c0.2,1-0.1,2-0.2,3.1c0,0.7,0.2,1.3,0,1.8c-0.1,0.2,0,0.5-0.9,0.6
						c-1.3-2.1-0.6-4.7-0.5-6.7c0-0.5,0.1-1.2,0.1-1.3c0-0.1-0.3-0.2-0.3-0.3s0.4-0.3,0.4-0.4s-0.2-0.1-0.3-0.1
						c0-0.1,0.2-0.1,0.2-0.2c0.1-0.4-0.2-0.6,0.1-1c0.1-2.2,0.6-4.3,1.7-6.4c-0.2-0.3,0-0.6,0.1-0.9c0.9-2.4,1.6-4.9,2.1-7.1
						c-0.2-1.1,0.8-2.3,0.4-3.1c-0.4,1-1.6,1.8-1.4,2.9c-0.6,0.8-0.7,1.6-0.9,2.4c-0.7,2.6-1.8,5.3-3.3,7.8
						c-0.1,0.6-0.4,1.2-0.5,1.8c0.3,0.7-0.3,1.6-0.5,2.3C-9,53.2-8.9,54.5-9,55.9c-0.1,1.3,0.1,2.5-0.1,3.8c-0.3,0.3-0.1,0.7-0.4,1
						c-0.4,0.4,0.6,0.6-0.6,0.9c-0.1-0.7-0.2-0.9-1.3-1.2c0,0.1,0.1,0.2-0.5,0.3c0-0.5-0.5-0.7-0.8-1c-0.3-0.4-0.2-0.9-0.8-1.1
						c0.4-0.2,0.1-0.5,0.2-0.7c-0.2-0.2-0.3-0.5-0.3-0.9c-0.1-0.4,0.3-0.8-0.3-1c-0.1,1.5,0.1,3.3,0,4.4c0.1,0.2-0.7,0.3-0.4,0.5
						c0.2,0.3-0.3,0.6,0.1,0.7c-0.3,0.4,0.4,0.5-0.4,0.7c0.1-0.4-0.4-0.5-0.3-0.8c-0.5-0.1,0.1-0.7-1-0.6c-0.5,0.3-0.3,0.6-0.2,0.8
						c0.3,0.4-0.6,0.7,0.3,0.7c0-0.2,0.1-0.4,0.4-0.5l0.1,1.2c-0.2,0.4,0.7,0.9-0.6,1.2c-0.6-0.2,0-0.7-0.4-0.8
						c-0.1-0.2-0.9-0.1-0.8-0.4c0-0.6-0.5-1-0.4-1.7c0.3-0.1,0.2-0.3,0.2-0.5c0.3,0,0.2-0.1,0.2-0.2c-0.1-0.2,1.1-0.1,0.7-0.3
						c-0.1-0.3-0.3-0.5-0.3-1c-0.4,0-0.2-0.1,0-0.2c-0.5,0.1-0.8,0-0.7-0.1c-0.5-0.7-0.2-1.9-0.8-2.7c-0.4,0.5-0.1,1.1-0.1,1.7
						c-0.2,0.5-0.1,1.1-0.1,1.8c-0.6,0.1,0.7,0.3-0.4,0.4c0,0.2,0.8,0,0.5,0.4c0,1.1,0.2,2.2,0.4,3.2c0.2,1,0.5,2,0.6,3
						c0.3,2.1,0.6,4.2,0.9,6.4c-0.1,0.2-0.2,0.7-0.6,1c-0.1,0.3,1,0.1,0.8,0.4c0.3,0.5,0.2,1.2,0.5,1.8c0.2,0.4,0.8,0.8,0.9,1.3
						c0.1,0.4-0.1,1,0,1.4c0.4,1.9,0.7,4.4,0.7,6.5c0,0.1,0.3,0.2,0.3,0.3c0,0.6-0.2,1.2,0,1.8c0.5,1.8,0.7,3.5,0.8,5.3
						c0.7,0.7,0.6,1.7,0.7,2.4c0,0.1,0.3,0.2,0.3,0.3c0.1,0.9,0.3,1.8,0.5,2.6c0.1,0.4-0.1,0.8,0,1.2c0.2,0.5,0.9,1.5,0.6,1.9
						c-0.1,0.1,0.3,0.1,0.3,0.1c0,0.1-0.2,0.1-0.2,0.1c-0.1,0.1,0.3,0.1,0.3,0.1c0,0.8-0.4,1.4-0.4,2c0,0.1,0.3,0.1,0.3,0.2
						c0,0.3,0,0.8,0,1.2s-0.2,0.8-0.3,1.2c0,0.1,0.1,0.1,0.3,0.1c0.2,0-0.2,0.1-0.2,0.1c0.1,1.1,0.1,1.8,0.2,2.5
						c0.1,1.6,0.3,3,0.8,4.5c0,0.7-0.4,1.5-0.1,2.4c0.7,0.3,1.4,0.5,1.9,1c0.4,0.2,1.5,0,1.8,0.2c0.4,0.2,0.3,0.6,0.4,0.9
						c1.2-0.1,2.1-0.3,3.6-0.4c0.7,0.4,1.3,0.8,2.7,0.9v34.1h11c0.1,0.1,0.2,0.3,0.3,0.4v0.7c0,0.1,0.1,0.1,0.1,0.2
						c0.1,0.8,0.2,1.7,0.3,2.5c0,1.7,0,3.4,0.1,4.7c-0.2,0.6-0.3,1.3-0.4,2c-0.3,0-0.8-0.3-0.6,0.1h0.6v0.1c-0.1,0-0.2,0-0.3,0
						c0,0.1,0,0.3-0.2,0.3c0.3,0.5,0.4,1.1,0.4,1.6c-0.1,0.4-0.2,0.8-0.3,1.2c-0.2,2,0.1,4.5-0.2,5.7c1.1,4.5-0.6,8.5-1.3,13.5
						c-0.8,2.4-2.3,4.4-2.3,7.2c-0.3,1-0.6,2.4-0.8,3.1c-0.5,2.2-0.7,4.4-1.8,6.1c-0.2,1.2-0.8,2.2-1.7,3c-0.7,2.4-2.5,4.2-2.9,6.7
						c-0.6,0-0.2,0.6-0.7,0.7c-0.3,1.8-1.5,3.2-2,4.9c-0.6,0.2-0.5,0.6-0.7,0.9c-0.1,0.8-0.2,1.9-0.5,2.2c0.4,1.2,1.2,2.1,1.6,3.3
						c0.9,0.4,1.5,1,2.1,1.5c2.2,0.4,3.5,1.3,6.2,1.5h2.2c0.4,0.2,1.4,0.1,2.2,0.1c1-0.2,2.2-0.2,3.1-0.4c0.6-0.1,1.3-0.5,1.7-0.6
						c1-0.3,1.7-0.6,2.2-1c0.2-0.1,0.3-0.2,0.5-0.3c1-0.7,1.9-1.4,2.2-2.3c0-0.8,0-1.4,0.3-1.9c-0.3-2.9-1.2-5.3-0.6-8
						c-0.7-2.2,0.1-4-0.4-6.9c-0.1-0.2,0.3-0.3,0.2-0.5c0.1-2.1,0.7-4.2,1.3-6.4c0.5-3.9,0.7-7.1,1.5-11.2c1.5-3.2,1.6-7.2,2.2-10.9
						c0.1,0.3,0.2,0.5,0.3,0.7c0.2,1.3-0.1,1.9,0.2,2.8c0.2,1.2,0,2,1,2.7c-0.3,0.3-0.2,0.7-0.4,1.1c0.7,1.2,0.7,2.7,1.1,5
						c0.1,0.1,0.2,0,0.2-0.1l-0.1-0.4l-0.1-0.7l-0.2-1.4c-0.2-0.3,0.3-0.3,0.2-0.5c-0.2-1.1-0.1-2.4-0.3-3.2
						c0.8-0.2,0.4,0.3,0.5,0.4l0.1,0.7c0.1,0.5,0.1,1-0.1,1.1c0.7,2.4,1.1,5.4,1,7.6c0.8,2.5,1.2,5.5,1.8,8.8
						c0.1,0.5,0.2,1.1,0.3,1.7s0.3,1.1,0.6,1.5c0.4-0.9-0.6-1.2-0.2-2c-0.1-0.5-0.2-0.6-0.4-0.8c0-1.4-0.2-2.8-0.3-4.2
						c-0.3-2.3-1.2-4.9-0.9-7.3c0-1-0.2-1.9-0.4-2.7c-0.2-0.9-0.3-1.7-0.3-2.6c0-0.1,0.3-0.1,0.2-0.2c-0.2-0.2-0.3-0.9-0.4-1.2
						c-0.1-1.1-0.2-2.3-0.4-3.6c-0.2-1.3-0.3-2.6-0.5-4.1c-0.4-1.3-0.5-2.5-0.6-3.7c-0.1-1.1-0.2-2.2-0.6-3.3
						c-0.9,0.3,0.3,0.9-0.4,1.3c0.4,0.4-0.1,0.6,0.3,1c-0.3,0.2-0.1,0.7-0.4,0.9c-0.1,0.4,0.8,0.5,0.3,0.8c-0.1,0-0.1,0-0.1,0
						c0.6,0.7,0.2,1.7,0.1,2.5c-0.1-0.6-0.4-0.6-0.1-1.1c-0.3-0.2,0-0.2-0.3-0.5c0-0.2,0-0.3,0.2-0.4c-0.1,0-0.3-0.2-0.4-0.3
						c0-0.1,0-0.2-0.1-0.2c0.1-0.1,0.1-0.1,0.2-0.1c-0.4-0.2-0.2-0.7,0-0.9c-0.1-0.1-0.1-0.2-0.2-0.2c0-0.2,0.1-0.3,0.1-0.5
						c0.1-0.1,0.1-0.1,0.3-0.2c-0.1,0-0.1,0-0.2-0.1c0.2-0.7,0.4-1.4,0.1-1.8c0.5-0.9-0.2-1.8,0.1-2.7V166c0.2-0.2,0.3-0.5,0-0.7
						c0-0.1,0-0.2,0-0.3c0.1,0,0.1,0,0.2,0c0-0.4-0.1-0.8-0.1-1.3c0-0.3,0.1-0.7,0.2-0.9c0.3-0.8,0.2-2.5,0.6-3.1c0.2-2,0-3.4,0-4.8
						c0-0.1,0-0.2,0.1-0.3c-0.1-0.3,0.9-0.1,1-0.3c0.3-0.6,0.3-1.4-0.1-2h1c-0.1,0.4,0.6-0.1,0.7,0.3c0.1,0.5,0.3,1.1,0.3,1.9
						c0.8,0.1,0.4-0.3,0.5-0.5v-0.7c-0.2-0.3-0.2-0.7-0.2-1.1h10.1c0,0.1-0.1,0.2-0.1,0.3c0,2,0,3.9,0.1,5.9
						c-0.5,4.6-0.6,9.3-0.1,14.8c0.4,1,0.8,2.3,0.7,3.4c0.9-0.4,0.1-0.9,0.1-1.3c0-0.9,0.1-2.3-0.5-3.2c0.5-0.4,0.2-0.8,0.1-1.3
						c0-0.3,0.2-0.5,0.2-0.7c-0.2-1.7-0.2-3.2-0.5-4.8c0.3-0.2,0.3-0.5,0.4-0.7c0.1-3,0.5-5.9,0.5-9c0.5-1,0.5-2.1,1.2-3.1
						c0-0.1-0.1-0.3-0.1-0.4H43c0,0.5,0.1,0.9,0.3,1.3c-0.1,0.9,0.2,1.7,0,2.4c0.9,0.1,0.3-0.4,0.5-0.6v-0.6
						c0.2-0.5,0.3-0.9,0.2-1.7c0.1-0.3,0.3-0.5,0.3-0.8c0.3,1.4,0.1,1.9,0,3.5c0.5,0-0.4,0.3,0.7,0.2c-0.2,1,0.1,1.8,0.5,2.8
						c0.4-1.6,0.6-2.9-0.1-4.5c0.5-0.6,0.6-1.3,0.7-2h1.2c-0.1,1.1,0,1.8-0.2,3.2c-0.2,0.3-0.3,0.7-0.5,1c-0.1,0.3,0.1,0.6,0.3,0.8
						c-0.5,1-0.4,2.1-0.6,3.1c-0.4,1.7,0.2,3.3-0.6,5c-0.9,0-0.2-0.6-0.8-0.7c-0.9,1-0.3,2.7-0.1,3.9c0.2,0.2,0.5,0.4,0.8,0.6
						c0.3,1,0.4,2.2,0.4,3.4c0.8-0.3,0.4-0.8,0.4-1.2c0-0.1-0.3-0.1-0.3-0.3c0,0,0.6-0.6,0-0.7c0.4-0.5,0-0.8,0.2-1.2
						c0.6,0,0.5,0.3,0.5,0.5c0.5-0.2,0.1-0.6,0.2-0.9c0.1-0.4,0.4,0.3,0.5,0c0.4-1.1,0.2-2.8-0.2-3.9c0.2-0.8,0.2-1.4,0.6-1.9
						c-0.1-2.1,0.1-3.9,0.4-5.7c0.2-1.5,0.4-3.1,0.4-4.9h0.6c0.2,2.7-0.3,5.2-0.5,7.8v1.7c0.2,0.2-0.3,0.2-0.2,0.5v1.2v0.6v0.3
						c0,0.1,0.2,0,0.2,0v-1.2c0.3-0.3-0.1-0.4,0.2-0.7V161c0.3-0.9,0.2-1.8,0.9-2.7c0.1-1.8,0.3-3.9,0.4-6h3.6c0,0.2,0,0.3,0,0.5
						c-1.1,1.2-0.9,3.5-0.7,4.6c-1.1,2.1,0.4,3.5,0.1,5.9c0,0.3-0.8,0.3-0.9,0.6c0,1.3,0,2.7,0,4.2s0.1,3,0.3,4.7
						c0.1,0.3-0.3,0.8,0.5,0.8c1.3-0.1,0.3-0.6-0.1-0.7c0.1-0.3,0.3-0.5-0.3-0.7c0.5-0.4,0.1-1,0.4-1.3c0.8,0.3,0.3,1.3,1.1,1.9
						c0,0.3-0.1,0.5-0.4,0.7c0.8,0.4,0.5,1.2,0.6,1.9c0.2,0.3-0.8,0.2-0.7,0.4c-0.5,0.1-0.2,0.3-0.7,0.4c0.2,0.5,0,1.1,0.2,1.9
						c0,0.1,0.3,0.2,0.3,0.2c0,0.1-0.2,0.1-0.2,0.2c0.1,0.7,0.6,1.3,0.2,1.9c0.1,0.1,0.6,0,1,0c-0.1,0.2-0.6,0.4-0.9,0.5
						c-0.2,0.3,0.4,0.2,0.3,0.4c-0.3,0.1-0.6,0.2-0.2,0.2c0.4,0.9,0.1,2.6,0.6,3.2c-0.1,0.1-1,0.2,0,0.2c-0.2,0.1-0.4,0.2-0.7,0.3
						c1.1,0-0.7,0.4,0.8,0.2c-0.1,0.1-0.3,0.2-0.7,0.3c0.2,0.1,0.3,0.1,0,0.2c-0.1,0.4,0.5-0.1,0.5,0.1c-0.6,0.2,0.6,0.3-0.4,0.4
						c0.4,0.1,0.4,0.1,0.5,0.4c0.4,0.9-0.3,2.2,0.3,3.4c-0.4,1.2,0.4,2.6,0.5,3.8c0.3,0.2,0.3-0.2,0.2-0.3l-0.1-0.4
						c0.2-0.1-0.2-0.4,0.6-0.6c0.3,0-0.1,0.5,0.1,0.7c0.6,0,0.2,0.5,0.4,0.7c0.5,0.3,0.7,0.4,0.9,0.7c-0.1,0.4-0.4,0.8-0.7,1.2
						c0.2,0.2-0.2,0.8,0.1,0.8c0.2,0.2-0.4,0.2-0.4,0.4c0.2,0.4,0,0.7,0,1c0.3,0,0.2,0.1,0,0.1c0.4,0.1,0.6,0.5,1.3,0.4
						c0.1,0.8-0.1,1.7-0.1,2.7c0.1,0.3-0.4,0.5-0.6,0.7c-0.3,0.5,1-0.1,0.8,0.2c1-0.3,0.3-0.7,0.7-1.1c-0.1-0.4-0.3-0.7,0-1.1
						c-0.3-0.9,0-1.3-0.3-2.2c0.2-0.6,0-1.3,0.3-2c-0.7-2.3-0.1-3.7-0.8-5.4c-1,0.4,0,0.7-0.8,1c-0.2,0.4,0,0.8-0.8,1.1
						c-0.4-0.1,0-0.2-0.1-0.6c-0.1-0.2-0.9,0-1-0.3c0.2-0.5-0.2-0.8,0.3-1.4c0.9,0.1,0.2,0.7,0.4,1.2c0,0.1,0,0.2,0.3,0.2l-0.1-0.3
						c0-1.9-0.1-3.4-0.3-5.3c0.3-1-0.1-2.5-0.2-3.2c0.3-0.3,1-0.3,1.7-0.3c0.3-2.5-0.8-5.7-0.3-8.3c-0.1-0.6-0.2-0.7-0.1-1.2
						c-0.5,0.1-0.4,0.5-0.4,0.8c0,0,0.1-0.1,0.2-0.1v0.3c0,0.1,0,0.2-0.2,0.2c0,0,0-0.1,0-0.1c0,0,0,0,0,0c-0.8-0.2-0.3-0.9-0.8-1.2
						c0-2.2,0-3.7-0.1-6.1c-0.3-0.3-0.2-0.9-0.5-1.2c0.6-2.9,0.6-5.8,0.9-9.3c0.1-0.7,0.4-1.3,0.5-2c0.1-0.6,0.1-1.2,0.1-1.8H59
						c0,0.2,0,0.3,0.1,0.5v0.8c0.2,0.2-0.4,0.7,0.5,0.6c0-0.6-0.3-1.4,0.2-1.9c0.2,0.4,0.4,1.5,0,2.5c0.2,0.3,0.6,0.6,0.7,0.7
						c0,0.3-0.4,0.6,0.5,0.7c-0.1-1.1-0.1-2.8,0.5-3.9h0.3c0.3,0.5,0.6,0.9,0.6,1.5c0.7-0.5,0.2-0.9,0.2-1.4c0,0,0,0,0-0.1h1
						c0,0.1,0,0.3,0,0.4c0.1,0.2-0.1,1,0,1.4c-0.1,0.6,0,0.7-0.2,1.1c-0.1,0.5,0.3,0.9,0,1.2c0.4,0.3-0.4,0.8,0.7,0.9
						c0.3-1.7,0.8-3.4,1.1-5.1h0.7v0.3c0,0.7,0.3,0.7,0,1.3c0.3,0.5,0.3,1.1,0.2,1.6c0.3-0.1,0.4-0.3,0.7-0.4
						c0.2,0.2,0.9,0.4,0.5,0.5c0.7,0-0.4,0.7,0.7,0.6c-0.2,0.1-0.6,0.1-0.5,0.3c0.7,0-0.6,0.2,0.5,0.2c-0.6,0.5-0.2,0.8-0.2,1.5
						c-0.4,1.5-0.2,2.5-0.4,4.2c0.1,0.1-0.2,0.2-0.5,0.2c0.1,0.1,1,0.1,0,0.2c0.5,0.1,0,0.7,0.5,0.8c0.4-0.3,0.1-1.2,0.2-1.9
						c0.5-0.5-0.1-1.3,0.4-1.8V159c0.3-1.3,0.2-2.9,0.4-4.3c-0.2-0.2,0.3-0.2,0.2-0.4c-0.1-0.3-0.2-0.9,0.2-1.2
						c-0.3-0.2-0.1-0.2,0-0.5h1.3c0,0.1-0.1,0.1-0.1,0.2c0,0.5,0.5,1,0.2,1.6c0.8-0.2,0.4-0.8,0.5-1.2c0.2-0.2,0.4-0.4,0.6-0.6h2
						c0,0.5,0.2,1,0.2,1.5c-0.2,0.4-0.1,1.1-0.5,1.6v1c-0.1,0.3-0.4,0.4,0.3,0.6c-0.7,0.2-0.4,0.9-0.4,1.6c-0.4,0.6-0.1,1.4-0.4,2
						c0.5,1.1,0.7,1.6,0.3,2.9c0.2,0.2-0.3,0.7,0.3,0.8c-0.7,1.6,0.4,2.5-0.3,4c0.3,0.3,0.5,0.1,0.3,0.5c0.2,0.3,0,0.3,0.3,0.5
						c0.5-0.1,0.1-0.4,0.2-0.6c-0.2-0.4,0.7,0.1,0.5-0.3c-0.8-0.8,1-1.9-0.4-2.7c0.2-0.3,0.3-0.6,0.7-0.9c-0.4-2.3,0.8-4.5-0.5-6.7
						c0.3-0.3-0.2-0.9,0.9-1.1c0.2-1.6,0.5-3.2,0.7-4.7H79c0.1,0.1,0.2,0.2,0.4,0.3c-0.8,1.8-0.6,4.1-1.4,5.9
						c0.1,0.2,0.1,0.5,0.5,0.6c-0.4,0.8-0.4,2.1,0.3,2.8c0.1,0.8-0.1,1.7,0.3,2.3c0.6-0.2-0.4-0.6,0.2-0.7c0.6,0.1,0.1,0.7,0.3,1
						c0.1,0.2-0.1,0.3-0.2,0.2c-0.6,0.1,0.6,0.2,0.3,0.5c-0.1,0.3,0.2,0.8,0,1c-0.1,0.2,0.1,0.3-0.5,0.3c0.8,0.1,0.3,0.4,0.3,0.6
						c0.3,2.4,0.7,4.1,0.8,5.9c0.1,1.7,0.2,3.2,0.3,4.8c0,0.4,0.3,0.7,0.4,1.1c0,0.5,0,1,0,1.6s0.1,1.1,0.4,1.6
						c-0.3,0.5,0.2,1-0.2,1.6c0.2,1.3,0.1,2,0,3.3c0,0.1-0.2,0.3-0.2,0.3c0.1,0.3,0.3,0.8,0.2,1.3c0,0.6-0.2,1.3-0.4,2
						c0.5,1-0.6,1.5-0.2,2.4c-0.2,0.2,0,0.4-0.3,0.6c0.2,0.5-0.1,0.6,0,1.1c0.1,0.2-0.3,0.4-0.1,0.6c-0.2,0.3,0.4,0.3-0.4,0.5
						c0.3,0,0.7,0,0.3,0.2l0.1,0.5c-0.1,0.4-0.3,0.8-0.2,1.1c0.6-0.2,0.2-0.5,0.5-0.8c-0.3-0.9,0.5-1.7,0.1-2.6c0.5-0.7,0.1-1.4,1-2
						c0.4,0.4-0.2,1.7-0.1,2.4c0,0.9-0.3,1.8-0.6,2.7c0.2,0.1-1.1,0.3-0.9,0.4c-0.2,0.6-0.4,1.1-0.3,1.6c0.5-0.6,0.3-1,0.8-1.4
						c0.8-0.2,0.1,0.1,0.3,0.2c0.1,0.2-0.3,0.3-0.1,0.5c0.1,0.3-0.4,0.7-0.2,1c-0.4,0.7-0.1,1.3-0.7,2.1c0,0.1,0,0.2,0,0.3v0.4
						c0,0.2,0,0.5,0.1,0.7c0,0.5,0,0.9,0,1.4c0,0.9,0,1.8,0.1,2.8c-0.1,0.6-0.3,1.1-0.1,1.7c0.3-0.4,0.5-0.8,0.8-1.2
						c-0.1-1.2,0-2.3,0-3.5c0-0.6,0-1.2,0-1.7c0-0.3,0-0.6,0-0.9c0-0.3,0.1-0.4,0.1-0.6c0.5-1,0.8-1.9,1-2.8l0.4-1.3
						c0.1-0.5,0.3-1.1,0.5-1.7c0.1-1.2,0.2-2.2,0.3-3.3c0.1-1,0.3-2.1,0.5-3.1c-0.1-0.6-0.1-1.2,0.1-1.8l-0.1-0.7
						c0.3-0.4-0.1-0.9,0.3-1.4c-0.1-2.2-0.7-4.8-0.4-6.9c-0.1-1-0.3-2-0.4-3s-0.1-2.1-0.2-3.1c0-1-0.1-2-0.1-3.1
						c0-1,0.1-2.1,0.1-3.1c0-0.7-0.3-1.4,0.1-2c0-1.6,0.2-3.2,0.6-4.8c0.2-0.8,0.1-1.6,0.2-2.4c0.2-1.4,0.5-2.8,0.7-4.3h36.1
						c0.1,0.2,0.3,0.4-0.5,0.5c0.9,0.4-0.1,1.1,0.7,1.6c-0.1,0.2-0.9,0.1-0.7,0.4c0.2-0.1,0.4-0.3,0.5-0.1c0,0,0,0,0,0
						c0-0.1,0-0.2,0.1-0.1c0.2,0.1,0.7,0.4-0.2,0.4c0,0,0,0,0.1-0.1c-0.2,0-0.4,0-0.5,0.1c0.1,1.6,0.4,3.3,0.5,4.9
						c0.2,1.6,0.1,3.3-0.4,4.9c-0.1,0.3-0.9-0.2-0.7,0.2h0.7c0.4,0.1-0.1,0.1-0.5,0.1c0,0.1,0,0.3-0.2,0.3c0.8,1.5-0.2,3.1,0.9,4.2
						c0.8-0.1,0.2-0.2,0.5-0.5c-0.3-0.3,0.1-0.3,0-0.7c0.5,0.2,0.5,0.6,0.5,1c0.6-0.3,0.2-0.8,0.2-1.1c0-0.2,0.3-0.4,0.2-0.6
						c0-0.1-0.4,0-0.5-0.1l0.2-0.2c0-0.6-0.1-1.2,0.2-2c-0.5-0.2-0.1-0.8-0.5-1c0.9-0.3-0.9-0.6,0.2-0.7c-0.4-0.8-0.5-1.2-0.3-1.9
						c-0.2-2.6-0.6-5,0.4-7.3c0-0.7-0.2-0.9,0.2-1.5c-0.1-0.2-0.2-0.4-0.1-0.5h9.4c0,2-0.1,3.9,0.1,6.2c0,0.1,0,0.3,0,0.4
						c0,0,0.4,0,0.2,0.1c-0.1,0-0.3,0.4-0.2,0.6c0,0.3,0.3,0.6,0.3,1.1c0,0.1-0.2,0.3-0.2,0.4c0.1,2.1,0.5,3.8,0.4,5.7
						c0,0.1-0.2,0.3-0.2,0.3c0,0.1,0.3,0.3,0.3,0.6c0,0-0.4,0.1-0.2,0.1c0,0,0.3,0.3,0.3,0.5c0,1.5-0.1,3.7,0.5,5.8l0.1,1.9
						c0.4,1,0.5,2.4,1,3.3c0.2,1.3-0.1,1.9,0.2,2.8c0.2,1.2,0,2,1,2.7c-0.3,0.3-0.2,0.7-0.4,1.1c0.7,1.2,0.7,2.7,1.1,5
						c0.1,0.1,0.2,0,0.2-0.1l-0.1-0.4l-0.1-0.7l-0.2-1.4c-0.2-0.3,0.3-0.3,0.2-0.5c-0.2-1.1-0.1-2.4-0.3-3.2
						c0.8-0.2,0.4,0.3,0.5,0.4l0.1,0.7c0.1,0.5,0.1,1-0.1,1.1c0.7,2.4,1.1,5.4,1,7.6c0.8,2.5,1.2,5.5,1.8,8.8
						c0.1,0.5,0.2,1.1,0.3,1.7s0.3,1.1,0.6,1.5c0.4-0.9-0.6-1.2-0.2-2c-0.1-0.5-0.2-0.6-0.4-0.8c0-1.4-0.2-2.8-0.3-4.2
						c-0.3-2.3-1.2-4.9-0.9-7.3c0-1-0.2-1.9-0.4-2.7c-0.2-0.9-0.3-1.7-0.3-2.6c0-0.1,0.3-0.1,0.2-0.2c-0.2-0.2-0.3-0.9-0.4-1.2
						c-0.1-1.1-0.2-2.3-0.4-3.6c-0.2-1.3-0.3-2.6-0.5-4.1c-0.4-1.3-0.5-2.5-0.6-3.7c-0.1-1.1-0.2-2.2-0.6-3.3
						c-0.9,0.3,0.3,0.9-0.4,1.3c0.4,0.4-0.1,0.6,0.3,1c-0.3,0.2-0.1,0.7-0.4,0.9c0,0,0,0.1,0,0.1c0.1,0,0.1,0,0.2,0
						c0.7,0.7,0.3,1.8,0.2,2.6c-0.1-0.6-0.4-0.6-0.1-1.1c-0.3-0.2,0-0.2-0.3-0.5c0-0.1,0-0.2,0.1-0.3c-0.7-0.1-0.6-0.7-0.3-1
						c-0.3-0.3-0.3-0.7,0.2-0.9c-1-0.2,0-0.8-0.8-1.1c0.3-0.9-0.1-1.9-0.1-2.9c0-0.2-0.3-0.5,0.5-0.4c-0.4-0.1-0.6-0.2-0.5-0.6
						c1.4-0.1,0.1,0.3,0.7,0.6c0.4-0.2,0.8-1.1-0.5-1.1c-0.3,0.3,1.1,0.2,0.3,0.4c-0.8,0.1-0.4-0.3-0.5-0.5c0.2-0.3,0.8,0,1.2,0
						c-0.1-1.3-0.1-3.1-0.1-5c0.1-1.9,0.3-3.8,0.8-5.4c-0.1-0.3,0.9-0.1,1-0.3c0.4-0.6,0.3-1.7-0.3-2.2c0.2-0.4,0.2-1.1,0.2-1.8h1
						c0,0.7,0.1,1.3,0,2c-0.1,0.4,0.6-0.1,0.7,0.3c0.1,0.5,0.3,1.1,0.3,1.9c0.8,0.1,0.4-0.3,0.5-0.5V156c-0.4-0.6-0.1-1.5,0-2.5
						c0,0-0.4,0-0.2-0.1c0.3-0.1,0.4-0.3,0.4-0.5h9.1c0,0.3,0.1,0.6,0.1,0.9s0.7,0.2,0.7,0.5c-0.1,0.5,0,0.5-0.2,0.9
						c0,2,0,3.9,0.1,5.9c-0.5,4.6-0.6,9.3-0.1,14.8c0.4,1,0.8,2.3,0.7,3.4c0.9-0.4,0.1-0.9,0.1-1.3c0-0.9,0.1-2.3-0.5-3.2
						c0.5-0.4,0.2-0.8,0.1-1.3c0-0.3,0.2-0.5,0.2-0.7c-0.2-1.7-0.2-3.2-0.5-4.8c0.3-0.2,0.3-0.5,0.4-0.7c0.1-3,0.5-5.9,0.5-9
						c0.5-1,0.5-2.1,1.2-3.1c-0.2-0.8,0-1.7,0.1-2.4h0.6c0,1.2-0.1,2.4,0.2,3.3c-0.1,0.9,0.2,1.7,0,2.4c0.9,0.1,0.3-0.4,0.5-0.6
						v-0.6c0.2-0.5,0.3-0.9,0.2-1.7c0.1-0.2,0.3-0.5,0.3-0.7c0.3,1.4,0.1,1.8-0.1,3.4c0.5,0-0.4,0.3,0.7,0.2c-0.2,1,0.1,1.8,0.5,2.8
						c0.4-1.6,0.6-2.9-0.1-4.5c0.9-1.1,0.7-2.6,0.7-4h0.9c0.1,0.8,0.1,1.1,0.2,1.6c-0.1,1.4,0,2.1-0.2,3.6c-0.2,0.3-0.3,0.7-0.5,1
						c-0.1,0.3,0.1,0.6,0.3,0.8c-0.5,1-0.4,2.1-0.6,3.1c-0.4,1.7,0.2,3.3-0.6,5c-0.9,0-0.2-0.6-0.8-0.7c-0.9,1-0.3,2.7-0.1,3.9
						c0.2,0.2,0.5,0.4,0.8,0.6c0.3,1,0.4,2.2,0.4,3.4c0.8-0.3,0.4-0.8,0.4-1.2c0-0.1-0.3-0.1-0.3-0.3c0,0,0.6-0.6,0-0.7
						c0.4-0.5,0-0.8,0.2-1.2c0.6,0,0.5,0.3,0.5,0.5c0.5-0.2,0.1-0.6,0.2-0.9c0.1-0.4,0.4,0.3,0.5,0c0.4-1.1,0.2-2.8-0.2-3.9
						c0.2-0.8,0.2-1.4,0.6-1.9c-0.1-2.1,0.1-3.9,0.4-5.7c0.2-1.8,0.5-3.6,0.4-5.9c0.5-0.1-0.1-0.6,0.5-0.6c0.6,3.3-0.1,6.4-0.4,9.5
						v1.7c0.2,0.2-0.3,0.2-0.2,0.5v1.2v0.6v0.3c0,0.1,0.2,0,0.2,0v-1.2c0.3-0.3-0.1-0.4,0.2-0.7v-1.4c0.3-0.9,0.2-1.8,0.9-2.7
						c0.1-2.4,0.4-5.1,0.4-8h3.6c0,0.9,0,1.6,0,2.5c-1.1,1.2-0.9,3.5-0.7,4.6c-1.1,2.1,0.4,3.5,0.1,5.9c0,0.3-0.8,0.3-0.9,0.6
						c0,1.3,0,2.7,0,4.2s0.1,3,0.3,4.7c0.1,0.3-0.3,0.8,0.5,0.8c1.3-0.1,0.3-0.6-0.1-0.7c0.1-0.3,0.3-0.5-0.3-0.7
						c0.5-0.4,0.1-1,0.4-1.3c0.8,0.3,0.3,1.3,1.1,1.9c0,0.3-0.1,0.5-0.4,0.7c0.8,0.4,0.5,1.2,0.6,1.9c0.2,0.3-0.8,0.2-0.7,0.4
						c-0.5,0.1-0.2,0.3-0.7,0.4c0.2,0.5,0,1.1,0.2,1.9c0,0.1,0.3,0.2,0.3,0.2c0,0.1-0.2,0.1-0.2,0.2c0.1,0.7,0.6,1.3,0.2,1.9
						c0.1,0.1,0.6,0,1,0c-0.1,0.2-0.6,0.4-0.9,0.5c-0.2,0.3,0.4,0.2,0.3,0.4c-0.3,0.1-0.6,0.2-0.2,0.2c0.4,0.9,0.1,2.6,0.6,3.2
						c-0.1,0.1-1,0.2,0,0.2c-0.2,0.1-0.4,0.2-0.7,0.3c1.1,0-0.7,0.4,0.8,0.2c-0.1,0.1-0.3,0.2-0.7,0.3c0.2,0.1,0.3,0.1,0,0.2
						c-0.1,0.4,0.5-0.1,0.5,0.1c-0.6,0.2,0.6,0.3-0.4,0.4c0.4,0.1,0.4,0.1,0.5,0.4c0.4,0.9-0.3,2.2,0.3,3.4
						c-0.4,1.2,0.4,2.6,0.5,3.8c0.3,0.2,0.3-0.2,0.2-0.3l-0.1-0.4c0.2-0.1-0.2-0.4,0.6-0.6c0.3,0-0.1,0.5,0.1,0.7
						c0.6,0,0.2,0.5,0.4,0.7c0.5,0.3,0.7,0.4,0.9,0.7c-0.1,0.4-0.4,0.8-0.7,1.2c0.2,0.2-0.2,0.8,0.1,0.8c0.2,0.2-0.4,0.2-0.4,0.4
						c0.2,0.4,0,0.7,0,1c0.3,0,0.2,0.1,0,0.1c0.4,0.1,0.6,0.5,1.3,0.4c0.1,0.8-0.1,1.7-0.1,2.7c0.1,0.3-0.4,0.5-0.6,0.7
						c-0.3,0.5,1-0.1,0.8,0.2c1-0.3,0.3-0.7,0.7-1.1c-0.1-0.4-0.3-0.7,0-1.1c-0.3-0.9,0-1.3-0.3-2.2c0.2-0.6,0-1.3,0.3-2
						c-0.7-2.3-0.1-3.7-0.8-5.4c-1,0.4,0,0.7-0.8,1c-0.2,0.4,0,0.8-0.8,1.1c-0.4-0.1,0-0.2-0.1-0.6c-0.1-0.2-0.9,0-1-0.3
						c0.2-0.5-0.2-0.8,0.3-1.4c0.9,0.1,0.2,0.7,0.4,1.2c0,0.1,0,0.2,0.3,0.2l-0.1-0.3c0-1.9-0.1-3.4-0.3-5.3c0.3-1-0.1-2.5-0.2-3.2
						c0.3-0.3,1-0.3,1.7-0.3c0.3-2.5-0.8-5.7-0.3-8.3c-0.1-0.4-0.1-0.6-0.1-0.8c0,0,0,0-0.1,0c0.1-0.1-0.1-0.2-0.1-0.3
						c-0.5,0.2-0.2,0.7-0.2,1c-0.8-0.2-0.3-0.9-0.8-1.2c0-2.2,0-3.7-0.1-6.1c-0.3-0.3-0.2-0.9-0.5-1.2c0.6-2.9,0.6-5.8,0.9-9.3
						c0.1-0.7,0.4-1.3,0.5-2c0.1-1.3,0.2-2.6,0.3-3.8h2.7c0,0.3,0,0.6-0.1,1c0.1,0.7-0.2,1,0,1.5v0.8c0.2,0.2-0.4,0.7,0.5,0.6
						c0-0.6-0.3-1.4,0.2-1.9c0.2,0.4,0.4,1.5,0,2.5c0.2,0.3,0.6,0.6,0.7,0.7c0,0.3-0.4,0.6,0.5,0.7c-0.1-1.2-0.1-3.1,0.7-4.2
						c0.2,0.6,0.8,1.1,0.7,1.8c0.7-0.5,0.2-0.9,0.2-1.4c0-0.4,0.4-0.8,0.2-1.3c0.1-0.3,0.4-0.5,0.5-0.8h0.4c0.2,0.1,0.4,0.2,0.1,0.3
						c-0.5,0.1-0.2,0.5,0,0.6c-0.6,0.3-0.1,1-0.2,1.5c0.1,0.2-0.1,1,0,1.4c-0.1,0.6,0,0.7-0.2,1.1c-0.1,0.5,0.3,0.9,0,1.2
						c0.4,0.3-0.4,0.8,0.7,0.9c0.4-2.1,1-4.2,1.4-6.4c0.7,0,0.4,0.4,0.5,0.7v0.9c0,0.7,0.3,0.7,0,1.3c0.3,0.5,0.3,1.1,0.2,1.6
						c0.3-0.1,0.4-0.3,0.7-0.4c0.2,0.2,0.9,0.4,0.5,0.5c0.7,0-0.4,0.7,0.7,0.6c-0.2,0.1-0.6,0.1-0.5,0.3c0.7,0-0.6,0.2,0.5,0.2
						c-0.6,0.5-0.2,0.8-0.2,1.5c-0.4,1.5-0.2,2.5-0.4,4.2c0.1,0.1-0.2,0.2-0.5,0.2c0.1,0.1,1,0.1,0,0.2c0.5,0.1,0,0.7,0.5,0.8
						c0.4-0.3,0.1-1.2,0.2-1.9c0.5-0.5-0.1-1.3,0.4-1.8v-1.1c0.3-1.3,0.2-2.9,0.4-4.3c-0.2-0.2,0.3-0.2,0.2-0.4
						c-0.1-0.3-0.2-0.9,0.2-1.2c-0.3-0.3,0-0.2,0-0.5c0.6-0.1-0.6-0.4,0.5-0.3c-0.8-0.2,0.5-0.8-0.2-0.9c0.2-0.2,0.7-0.2,1-0.3
						c0.1-0.3-0.7,0.2-0.7-0.1c0-0.1,0.1-0.2,0.1-0.2h1c-0.1,0.2-0.1,0.4-0.1,0.6c0,0.3,0.1,0.3,0,0.7c0,0-0.4,0-0.2,0.1
						c0.6,0.2,0,0.5,0,0.8c0,0.5,0.5,1,0.2,1.6c0.8-0.2,0.4-0.8,0.5-1.2c0.8-0.7,1.2-1.7,1.5-2.6h0.9c0,0.3,0,0.6,0,1
						c-0.5,0.9,0,1.7,0,2.5c-0.2,0.4-0.1,1.1-0.5,1.6v1c-0.1,0.3-0.4,0.4,0.3,0.6c-0.7,0.2-0.4,0.9-0.4,1.6c-0.4,0.6-0.1,1.4-0.4,2
						c0.5,1.1,0.7,1.6,0.3,2.9c0.2,0.2-0.3,0.7,0.3,0.8c-0.7,1.6,0.4,2.5-0.3,4c0.3,0.3,0.5,0.1,0.3,0.5c0.2,0.3,0,0.3,0.3,0.5
						c0.5-0.1,0.1-0.4,0.2-0.6c-0.2-0.3,0.4-0.1,0.5-0.2c0.6,1.4-0.2,2.9,0.8,4c0.8-0.1,0.2-0.2,0.5-0.5c-0.3-0.3,0.1-0.3,0-0.7
						c0.5,0.2,0.5,0.6,0.5,1c0.6-0.3,0.2-0.8,0.2-1.1c0-0.2,0.3-0.4,0.2-0.6c0-0.1-0.4,0-0.5-0.1l0.2-0.2c0-0.6-0.1-1.2,0.2-2
						c-0.5-0.2-0.1-0.8-0.5-1c0.9-0.3-0.9-0.6,0.2-0.7c-0.4-0.8-0.5-1.2-0.3-1.9c0-0.4-0.1-0.9-0.1-1.3c0,0.9-0.1,1.9-0.5,2.8
						c-0.1,0.3-0.9-0.2-0.7,0.2h0.7c0.4,0.1-0.1,0.1-0.5,0.1c0,0.1,0,0.3-0.2,0.3c-0.5-0.8,1-1.9-0.3-2.6c0.2-0.3,0.3-0.6,0.7-0.9
						c-0.4-2.3,0.8-4.5-0.5-6.7c0.3-0.3-0.2-0.9,0.9-1.1v-0.1c0,0.1,0.1,0.3,0.4,0.4c-0.1,0.2-0.9,0.1-0.7,0.4
						c0.2-0.1,0.4-0.3,0.5-0.1c0.6,0.3-0.4,0.2-0.5,0.3c0.1,1.6,0.4,3.3,0.5,4.9c0,0.2,0.1,0.3,0.1,0.5c-0.1-1.5,0-3,0.6-4.4
						c0-0.7-0.2-0.9,0.2-1.5c-0.4-0.7,0.2-0.8-0.2-1.5v-3c0.1-0.5-0.1-0.8-0.1-1.1h1.5c0.1,0.1,0.2,0.1,0.3,0.1
						c-0.6,0.1,0.2,0.5-0.2,0.5c0.4,0.3,0.5-0.3,1.4-0.1c-0.1,0.1-0.7,0-0.7,0.2c0.5,0,0.3,0.2,0.7,0.2c-0.2,0.4-0.3,1,0.5,1.4
						c-0.8,1.8-0.6,4.1-1.4,5.9c0.1,0.2,0.1,0.5,0.5,0.6c-0.4,0.8-0.4,2.1,0.3,2.8c0.1,0.8-0.1,1.7,0.3,2.3c0.6-0.2-0.4-0.6,0.2-0.7
						c0.6,0.1,0.1,0.7,0.3,1c0.1,0.2-0.1,0.3-0.2,0.2c-0.6,0.1,0.6,0.2,0.3,0.5c-0.1,0.3,0.2,0.8,0,1c-0.1,0.2,0.1,0.3-0.5,0.3
						c0.8,0.1,0.3,0.4,0.3,0.6c0.3,2.4,0.7,4.1,0.8,5.9c0.1,1.7,0.2,3.2,0.3,4.8c0,0.4,0.3,0.7,0.4,1.1c0,0.5,0,1,0,1.6
						s0.1,1.1,0.4,1.6c-0.3,0.5,0.2,1-0.2,1.6c0.2,1.3,0.1,2,0,3.3c0,0.1-0.2,0.3-0.2,0.3c0.1,0.3,0.3,0.8,0.2,1.3
						c0,0.6-0.2,1.3-0.4,2c0.5,1-0.6,1.5-0.2,2.4c-0.2,0.2,0,0.4-0.3,0.6c0.2,0.5-0.1,0.6,0,1.1c0.1,0.2-0.3,0.4-0.1,0.6
						c-0.2,0.3,0.4,0.3-0.4,0.5c0.3,0,0.7,0,0.3,0.2l0.1,0.5c-0.1,0.4-0.3,0.8-0.2,1.1c0.6-0.2,0.2-0.5,0.5-0.8
						c-0.3-0.9,0.5-1.7,0.1-2.6c0.5-0.7,0.1-1.4,1-2c0.4,0.4-0.2,1.7-0.1,2.4c0,0.9-0.3,1.8-0.6,2.7c0.2,0.1-1.1,0.3-0.9,0.4
						c-0.2,0.6-0.4,1.1-0.3,1.6c0.5-0.6,0.3-1,0.8-1.4c0.8-0.2,0.1,0.1,0.3,0.2c0.1,0.2-0.3,0.3-0.1,0.5c0.1,0.3-0.4,0.7-0.2,1
						c-0.4,0.7-0.1,1.3-0.7,2.1c0,0.1,0,0.2,0,0.3v0.4c0,0.2,0,0.5,0.1,0.7c0,0.5,0,0.9,0,1.4c0,0.9,0,1.8,0.1,2.8
						c-0.1,0.6-0.3,1.1-0.1,1.7c0.3-0.4,0.5-0.8,0.8-1.2c-0.1-1.2,0-2.3,0-3.5c0-0.6,0-1.2,0-1.7c0-0.3,0-0.6,0-0.9
						c0-0.3,0.1-0.4,0.1-0.6c0.5-1,0.8-1.9,1-2.8l0.4-1.3c0.1-0.5,0.3-1.1,0.5-1.7c0.1-1.2,0.2-2.2,0.3-3.3c0.1-1,0.3-2.1,0.5-3.1
						c-0.1-0.6-0.1-1.2,0.1-1.8l-0.1-0.7c0.3-0.4-0.1-0.9,0.3-1.4c-0.1-2.2-0.7-4.8-0.4-6.9c-0.1-1-0.3-2-0.4-3s-0.1-2.1-0.2-3.1
						c0-1-0.1-2-0.1-3.1c0-1,0.1-2.1,0.1-3.1c0-0.7-0.3-1.4,0.1-2c0-0.8,0-1.6,0.1-2.5c0.3,3.1,0.7,6.2,0.5,9.2
						c0.5,3.5,1.5,8.8,2.8,12.3c0.5,0.2,0.8,0.6,1.1,1.1c0,0.4,0,0.7,0.2,1c0.2,1.2,0,2,1,2.7c-0.3,0.3-0.2,0.7-0.4,1.1
						c0.7,1.2,0.7,2.7,1.1,5c0.1,0.1,0.2,0,0.2-0.1l-0.1-0.4l-0.1-0.7l-0.2-1.4c-0.2-0.3,0.3-0.3,0.2-0.5c-0.2-1.1-0.1-2.4-0.3-3.2
						c0.8-0.2,0.4,0.3,0.5,0.4l0.1,0.7c0.1,0.5,0.1,1-0.1,1.1c0.7,2.4,1.1,5.4,1,7.6c0.8,2.5,1.2,5.5,1.8,8.8
						c0.1,0.5,0.2,1.1,0.3,1.7c0.1,0.6,0.3,1.1,0.6,1.5c0.4-0.9-0.6-1.2-0.2-2c-0.1-0.5-0.2-0.6-0.4-0.8c0-1.4-0.2-2.8-0.3-4.2
						c-0.3-2.3-1.2-4.9-0.9-7.3c0-1-0.2-1.9-0.4-2.7c-0.2-0.9-0.3-1.7-0.3-2.6c0-0.1,0.3-0.1,0.2-0.2c-0.2-0.2-0.3-0.9-0.4-1.2
						c0-0.2,0-0.5-0.1-0.7c0.2,0.1,0.4,0.2,0.6,0.3c0.9,0.5,2.4,0.3,3.6,0.3c0.6-0.5,1.3-1,2.2-1.2c1.2-2.2,2.6-4,3.2-7
						c0.1-4.3-0.5-7.7-1.6-10.4c-0.4-1.4-1.6-4.2-2.4-6.2c-0.7-4.4-0.6-7.1-0.5-11c0.7,0.8-0.1,1.7,0.9,2.6c0.4-1.4,0.3-2.9,0-4.2
						c0,0,0,0.1-0.1,0.1c0-0.2,0-0.4,0-0.6c0-0.4,0-0.8,0-1.3h0.1c0,0.1,0,0.1,0.1,0.2c-0.3,0.5,0.3,0.8,0.1,1.1h1.9
						c0,0.1,0.1,0.3,0.1,0.4v0.7c0.3,0.2-0.7,0.4,0.2,0.4c-0.1-0.4,0.1-0.7,0.2-1c0-0.2,0-0.3-0.1-0.5h2.9c0,0.1,0,0.1,0.1,0.2
						c-0.1,0.5-0.5,1,0,1.6c-0.8,1.6-0.7,2.6-0.5,4.2c0,0.3,0.7,0.2,0.7,0.5c-0.1,0.5,0,0.5-0.2,0.9c0,2,0,3.9,0.1,5.9
						c-0.5,4.6-0.6,9.3-0.1,14.8c0.4,1,0.8,2.3,0.7,3.4c0.9-0.4,0.1-0.9,0.1-1.3c0-0.9,0.1-2.3-0.5-3.2c0.5-0.4,0.2-0.8,0.1-1.3
						c0-0.3,0.2-0.5,0.2-0.7c-0.2-1.7-0.2-3.2-0.5-4.8c0.3-0.2,0.3-0.5,0.4-0.7c0.1-3,0.5-5.9,0.5-9c0.5-1,0.5-2.1,1.2-3.1
						c-0.3-1.2,0.4-2.3,0-3.4c0.2-0.3-0.4-0.3-0.5-0.5c0.7-0.1-0.1-0.3,0-0.5c-0.4-0.3,0.8-0.1,0.7-0.3c-0.1-0.3,0-0.6,0.2-0.8
						c0.7,1.8-0.2,4.7,0.5,6.2c-0.1,0.9,0.2,1.7,0,2.4c0.9,0.1,0.3-0.4,0.5-0.6v-0.6c0.2-0.5,0.3-0.9,0.2-1.7
						c0.1-0.2,0.3-0.5,0.3-0.7c0.3,1.4,0.1,1.8-0.1,3.4c0.5,0-0.4,0.3,0.7,0.2c-0.2,1,0.1,1.8,0.5,2.8c0.4-1.6,0.6-2.9-0.1-4.5
						c1.1-1.3,0.5-3.3,0.9-5c0,0-0.1,0-0.2,0.1c-0.1-0.4-0.6-0.8-0.7-1.1c0-0.1,0.2-0.2,0.2-0.2c0-0.1-0.2-0.1-0.2-0.2
						c-0.1-1.5-0.1-2.7-0.1-3.8h0.8c-0.1,0.6,0.1,1.2,0.5,1.7v1.5c0.2,0.3,0,0.2,0.2,0.5c-0.2,0.1-0.1,0.3-0.1,0.6
						c0.9,0.3,0.2,1.3,0.4,1.9c0.1,0.8,0.1,1.1,0.2,1.6c-0.1,1.4,0,2.1-0.2,3.6c-0.2,0.3-0.3,0.7-0.5,1c-0.1,0.3,0.1,0.6,0.3,0.8
						c-0.5,1-0.4,2.1-0.6,3.1c-0.4,1.7,0.2,3.3-0.6,5c-0.9,0-0.2-0.6-0.8-0.7c-0.9,1-0.3,2.7-0.1,3.9c0.2,0.2,0.5,0.4,0.8,0.6
						c0.3,1,0.4,2.2,0.4,3.4c0.8-0.3,0.4-0.8,0.4-1.2c0-0.1-0.3-0.1-0.3-0.3c0,0,0.6-0.6,0-0.7c0.4-0.5,0-0.8,0.2-1.2
						c0.6,0,0.5,0.3,0.5,0.5c0.5-0.2,0.1-0.6,0.2-0.9c0.1-0.4,0.4,0.3,0.5,0c0.4-1.1,0.2-2.8-0.2-3.9c0.2-0.8,0.2-1.4,0.6-1.9
						c-0.1-2.1,0.1-3.9,0.4-5.7c0.2-1.8,0.5-3.6,0.4-5.9c0.5-0.1-0.1-0.6,0.5-0.6c0.6,3.3-0.1,6.4-0.4,9.5v1.7
						c0.2,0.2-0.3,0.2-0.2,0.5v1.2v0.6v0.3c0,0.1,0.2,0,0.2,0v-1.2c0.3-0.3-0.1-0.4,0.2-0.7v-1.4c0.3-0.9,0.2-1.8,0.9-2.7
						c0.1-2.8,0.5-6,0.4-9.3c-0.1-0.4-0.5-0.9-0.2-1.2c-0.5,0-0.1-0.4-0.2-0.6c-0.6,0,0.6-0.3-0.5-0.3c0.2-0.6,0-1-0.2-1.6h4.3
						c0,0.4,0.1,0.7,0.2,1c0,0.2-0.1,0.3-0.1,0.5c-0.2,0.2-0.5,0.4-0.3,0.8c0.1,0,0.2-0.1,0.2-0.1c0,0.3,0,0.5,0.1,0.7
						c-0.1,0-0.2,0-0.3,0c0.2,0.1,0.2,0.2,0.3,0.3c0,0.1,0,0.3,0.1,0.4c0,0.3-0.1,0.6,0.3,0.8v0.1c-0.2,0.1-0.8,0.1-0.6,0.3
						c0.2-0.1,0.4-0.3,0.5-0.1c0.1,0.1,0.2,0.1,0.2,0.1c-0.1,0.1-0.6,0-0.6,0.1c0.1,1,0.2,2,0.3,3c-0.7,1.3-0.5,3.1-0.3,4.1
						c-0.5,1-0.5,1.9-0.3,2.7c-0.2,0-0.4-0.1-0.3,0.2h0.3v0.1h-0.1c0,0.1,0,0.3-0.2,0.3c0.5,0.9,0.3,2,0.4,2.9
						c-0.2,0.1-0.5,0.2-0.6,0.3c0,1.3,0,2.7,0,4.2s0.1,3,0.3,4.7c0.1,0.3-0.3,0.8,0.5,0.8c1.3-0.1,0.3-0.6-0.1-0.7
						c0.1-0.3,0.3-0.5-0.3-0.7c0.5-0.4,0.1-1,0.4-1.3c0.8,0.3,0.3,1.3,1.1,1.9c0,0.3-0.1,0.5-0.4,0.7c0.8,0.4,0.5,1.2,0.6,1.9
						c0.2,0.3-0.8,0.2-0.7,0.4c-0.5,0.1-0.2,0.3-0.7,0.4c0.2,0.5,0,1.1,0.2,1.9c0,0.1,0.3,0.2,0.3,0.2c0,0.1-0.2,0.1-0.2,0.2
						c0.1,0.7,0.6,1.3,0.2,1.9c0.1,0.1,0.6,0,1,0c-0.1,0.2-0.6,0.4-0.9,0.5c-0.2,0.3,0.4,0.2,0.3,0.4c-0.3,0.1-0.6,0.2-0.2,0.2
						c0.4,0.9,0.1,2.6,0.6,3.2c-0.1,0.1-1,0.2,0,0.2c-0.2,0.1-0.4,0.2-0.7,0.3c1.1,0-0.7,0.4,0.8,0.2c-0.1,0.1-0.3,0.2-0.7,0.3
						c0.2,0.1,0.3,0.1,0,0.2c-0.1,0.4,0.5-0.1,0.5,0.1c-0.6,0.2,0.6,0.3-0.4,0.4c0.4,0.1,0.4,0.1,0.5,0.4c0.4,0.9-0.3,2.2,0.3,3.4
						c-0.4,1.2,0.4,2.6,0.5,3.8c0.3,0.2,0.3-0.2,0.2-0.3l-0.1-0.4c0.2-0.1-0.2-0.4,0.6-0.6c0.3,0-0.1,0.5,0.1,0.7
						c0.6,0,0.2,0.5,0.4,0.7c0.5,0.3,0.7,0.4,0.9,0.7c-0.1,0.4-0.4,0.8-0.7,1.2c0.2,0.2-0.2,0.8,0.1,0.8c0.2,0.2-0.4,0.2-0.4,0.4
						c0.2,0.4,0,0.7,0,1c0.3,0,0.2,0.1,0,0.1c0.4,0.1,0.6,0.5,1.3,0.4c0.1,0.8-0.1,1.7-0.1,2.7c0.1,0.3-0.4,0.5-0.6,0.7
						c-0.3,0.5,1-0.1,0.8,0.2c1-0.3,0.3-0.7,0.7-1.1c-0.1-0.4-0.3-0.7,0-1.1c-0.3-0.9,0-1.3-0.3-2.2c0.2-0.6,0-1.3,0.3-2
						c-0.7-2.3-0.1-3.7-0.8-5.4c-1,0.4,0,0.7-0.8,1c-0.2,0.4,0,0.8-0.8,1.1c-0.4-0.1,0-0.2-0.1-0.6c-0.1-0.2-0.9,0-1-0.3
						c0.2-0.5-0.2-0.8,0.3-1.4c0.9,0.1,0.2,0.7,0.4,1.2c0,0.1,0,0.2,0.3,0.2l-0.1-0.3c0-1.9-0.1-3.4-0.3-5.3c0.3-1-0.1-2.5-0.2-3.2
						c0.3-0.3,1-0.3,1.7-0.3c0.3-2.5-0.8-5.7-0.3-8.3c-0.1-0.6-0.2-0.7-0.1-1.2c-0.7,0.2-0.3,0.7-0.4,1.1c-0.8-0.2-0.3-0.9-0.8-1.2
						c0-2.2,0-3.7-0.1-6.1c-0.3-0.3-0.2-0.9-0.5-1.2c0.6-2.9,0.6-5.8,0.9-9.3c0.1-0.7,0.4-1.3,0.5-2c0.4-3.2,0.4-6.1,0.3-8.8h3.8
						c0.1,0.3,0.1,0.7,0.3,1.1c0.1,0,0.1,0,0.2-0.1c0,0,0,0.1,0.1,0.1c-1,0.1-0.2-0.5-1.2-0.5c0.3,0.4,0.3,0.5,0.5,0.8
						c-0.2,0.4,0.1,0.6-0.2,1c0.5,0.2-0.1,0.2-0.2,0.4c0.8-0.1,0.4,0.3,0,0.3c-1.6,0.1,0.1-0.6-1-0.6c0,0.6-0.1,0.7,0,1.2
						c0.7,0-0.2-0.6,0.5-0.5c1,0-0.2,0.3,0.5,0.5c0.2-0.1,0.9-0.3,0.7,0.1c-0.1,0.4-0.4-0.1-1,0c-0.2,1.2,0,1.4-0.2,2.2
						c0.1,0.7-0.2,1,0,1.5v0.8c0.2,0.2-0.4,0.7,0.5,0.6c0-0.6-0.3-1.4,0.2-1.9c0.2,0.4,0.4,1.5,0,2.5c0.2,0.3,0.6,0.6,0.7,0.7
						c0,0.3-0.4,0.6,0.5,0.7c-0.1-1.2-0.1-3.1,0.7-4.2c0.2,0.6,0.8,1.1,0.7,1.8c0.7-0.5,0.2-0.9,0.2-1.4c0-0.4,0.4-0.8,0.2-1.3
						c0.1-0.3,0.6-0.5,0.5-1c0.2,0.2,0.9,0.4,0.5,0.5c-0.5,0.1-0.2,0.5,0,0.6c-0.6,0.3-0.1,1-0.2,1.5c0.1,0.2-0.1,1,0,1.4
						c-0.1,0.6,0,0.7-0.2,1.1c-0.1,0.5,0.3,0.9,0,1.2c0.4,0.3-0.4,0.8,0.7,0.9c0.1-0.7,0.3-1.4,0.4-2c0.1,0.2,0.1,0.4,0.1,0.6
						c0,0.1-0.2,0.3-0.2,0.4c0.1,2.1,0.5,3.8,0.4,5.7c0,0.1-0.2,0.3-0.2,0.3c0,0.1,0.3,0.3,0.3,0.6c0,0-0.4,0.1-0.2,0.1
						c0,0,0.3,0.3,0.3,0.5c0,1.5-0.1,3.7,0.5,5.8l0.1,1.9c0.4,1,0.5,2.4,1,3.3c0.2,1.3-0.1,1.9,0.2,2.8c0.2,1.2,0,2,1,2.7
						c-0.3,0.3-0.2,0.7-0.4,1.1c0.7,1.2,0.7,2.7,1.1,5c0.1,0.1,0.2,0,0.2-0.1l-0.1-0.4l-0.1-0.7L238,192c-0.2-0.3,0.3-0.3,0.2-0.5
						c-0.2-1.1-0.1-2.4-0.3-3.2c0.8-0.2,0.4,0.3,0.5,0.4l0.1,0.7c0.1,0.5,0.1,1-0.1,1.1c0.7,2.4,1.1,5.4,1,7.6
						c0.8,2.5,1.2,5.5,1.8,8.8c0.1,0.5,0.2,1.1,0.3,1.7c0.1,0.6,0.3,1.1,0.6,1.5c0.4-0.9-0.6-1.2-0.2-2c-0.1-0.5-0.2-0.6-0.4-0.8
						c0-1.4-0.2-2.8-0.3-4.2c-0.3-2.3-1.2-4.9-0.9-7.3c0-1-0.2-1.9-0.4-2.7c-0.2-0.9-0.3-1.7-0.3-2.6c0-0.1,0.3-0.1,0.2-0.2
						c-0.2-0.2-0.3-0.9-0.4-1.2c-0.1-1-0.2-2-0.3-3.1c-0.9,0.2-0.4-0.4-0.5-0.6c0.2-0.4-0.5-0.4-0.1-0.6c-0.2-1.3-0.3-2.6-0.5-3.4
						c0.9-0.1,0.1,0.6,0.6,0.6c0-0.2,0-0.4-0.1-0.6c-0.1-0.2-0.1-0.3-0.1-0.5c0,0.1-0.2,0.1-0.5,0.1c0-0.2,0.2-0.3,0.4-0.3
						c-0.2-0.8-0.3-1.5-0.4-2.3c0,0.3-0.1,0.7-0.2,1c-0.1-0.6-0.4-0.6-0.1-1.1c-0.3-0.2,0-0.2-0.3-0.5c0-0.2,0-0.3,0.2-0.4
						c-0.1-0.1-0.9-0.6,0-0.6c0.1,0.1,0.2,0.2,0.2,0.4c-0.1-0.9-0.2-1.8-0.5-2.8c-0.9,0.3,0.3,0.9-0.4,1.3c0.4,0.4-0.1,0.6,0.3,1
						c-0.3,0.2-0.1,0.7-0.4,0.9c-0.1,0.4,0.8,0.5,0.3,0.8c-1,0-0.8-0.7-0.5-1c-0.3-0.3-0.3-0.7,0.2-0.9c-1-0.2,0-0.8-0.8-1.1
						c0.3-0.9-0.1-1.9-0.1-2.9c0-0.2-0.3-0.5,0.5-0.4c-0.4-0.1-0.6-0.2-0.5-0.6c1.4-0.1,0.1,0.3,0.7,0.6c0.3-0.2,0.5-0.6,0.3-0.8
						c0.5,0.2,0,0.7,0.5,0.8c0.4-0.3,0.1-1.2,0.2-1.9c0.2-0.2,0.2-0.4,0.2-0.6c-0.1,0-0.1,0-0.2,0c-0.1-0.1-0.4-0.2-0.9-0.2
						c-0.3,0.3,1.1,0.2,0.3,0.4c-0.8,0.1-0.4-0.3-0.5-0.5c0.2-0.3,0.8,0,1.2,0c-0.1-1.3-0.1-3.1-0.1-5c0-0.7,0.1-1.3,0.2-2
						c0.2,0.1,0.4,0.2,0.1,0.3c0.6,0-0.2,0.6,0.5,0.6c0-0.1,0-0.1,0-0.2c-0.2-0.2,0.3-0.2,0.2-0.4c-0.1-0.3-0.2-0.9,0.2-1.2
						c-0.3-0.3,0-0.2,0-0.5c0.6-0.1-0.6-0.4,0.5-0.3c-0.8-0.2,0.5-0.8-0.2-0.9c0.2-0.2,0.7-0.2,1-0.3c0.1-0.3-0.7,0.2-0.7-0.1
						c0.1-0.3,0.3-0.6-0.2-0.9c0.2,0,0.3,0,0.4,0c0,0,0,0,0,0c-0.1,0.4,0.6-0.1,0.7,0.3c0,0.1,0,0.2,0.1,0.3
						c-0.1,0.2-0.1,0.4-0.1,0.6c0,0.3,0.1,0.3,0,0.7c0,0-0.4,0-0.2,0.1c0.6,0.2,0,0.5,0,0.8c0,0.5,0.5,1,0.2,1.6
						c0.8-0.2,0.4-0.8,0.5-1.2c1.7-1.5,1.6-4,2.2-5.7c-0.2-0.7-0.3-1.3-0.3-1.9h1c-0.2,1.9-0.5,3.7-0.5,6c-0.5,0.9,0,1.7,0,2.5
						c-0.2,0.4-0.1,1.1-0.5,1.6v1c-0.1,0.3-0.4,0.4,0.3,0.6c-0.7,0.2-0.4,0.9-0.4,1.6c-0.4,0.6-0.1,1.4-0.4,2
						c0.5,1.1,0.7,1.6,0.3,2.9c0.2,0.2-0.3,0.7,0.3,0.8c-0.7,1.6,0.4,2.5-0.3,4c0.3,0.3,0.5,0.1,0.3,0.5c0.2,0.3,0,0.3,0.3,0.5
						c0.5-0.1,0.1-0.4,0.2-0.6c-0.2-0.4,0.7,0.1,0.5-0.3c-0.8-0.8,1-1.9-0.4-2.7c0.2-0.3,0.3-0.6,0.7-0.9c-0.4-2.3,0.8-4.5-0.5-6.7
						c0.3-0.3-0.2-0.9,0.9-1.1c0.4-2.7,0.7-5.1,1.1-7.6c0.2-1.4,0.4-2.8,0.5-4.2h1.9c0,0.1,0,0.2,0.1,0.2c0.6,0.1,0.5-0.1,0.5-0.2
						h0.5c0.1,0.3-0.3,0.7-0.3,0.8c0.1,0.3-0.2,0.4-0.2,0.6c-0.1,0.2,0.3,0.5-0.5,0.4c0.6,0.1,0.6,0.1,0.7,0.3
						c-0.2,0.1-0.2,0.3-1,0.3c1,0,0.6,0.6,0.7,0.7c-0.1,0.1-0.7,0.1-0.7,0c-0.6,0.1,0.5,0.2,0.7,0.3c-0.1,0.1-0.3,0.2-0.7,0.2
						c0,0.1,0.4,0.1,0.7,0.1c-0.5,0.1-0.7,0.3,0,0.4c-0.8,0.1,0.2,0.3-1,0.3c0.1,0.2,0.5,0.2,0.7,0.3c-0.2,0.2-0.8,0.2,0,0.4
						c-1.2,0.1,0.6,0.2-0.2,0.3c-0.7,0.2-0.6-0.5-0.7-0.8c-0.9,0.1-0.3,0.4,0,0.5c-0.6,0.1,0.2,0.5-0.2,0.5c0.4,0.3,0.5-0.3,1.4-0.1
						c-0.1,0.1-0.7,0-0.7,0.2c0.5,0,0.3,0.2,0.7,0.2c-0.2,0.4-0.3,1,0.5,1.4c-0.8,1.8-0.6,4.1-1.4,5.9c0.1,0.2,0.1,0.5,0.5,0.6
						c-0.4,0.8-0.4,2.1,0.3,2.8c0.1,0.8-0.1,1.7,0.3,2.3c0.6-0.2-0.4-0.6,0.2-0.7c0.6,0.1,0.1,0.7,0.3,1c0.1,0.2-0.1,0.3-0.2,0.2
						c-0.6,0.1,0.6,0.2,0.3,0.5c-0.1,0.3,0.2,0.8,0,1c-0.1,0.2,0.1,0.3-0.5,0.3c0.8,0.1,0.3,0.4,0.3,0.6c0.3,2.4,0.7,4.1,0.8,5.9
						c0.1,1.7,0.2,3.2,0.3,4.8c0,0.4,0.3,0.7,0.4,1.1c0,0.5,0,1,0,1.6c0,0.6,0.1,1.1,0.4,1.6c-0.3,0.5,0.2,1-0.2,1.6
						c0.2,1.3,0.1,2,0,3.3c0,0.1-0.2,0.3-0.2,0.3c0.1,0.3,0.3,0.8,0.2,1.3c0,0.6-0.2,1.3-0.4,2c0.5,1-0.6,1.5-0.2,2.4
						c-0.2,0.2,0,0.4-0.3,0.6c0.2,0.5-0.1,0.6,0,1.1c0.1,0.2-0.3,0.4-0.1,0.6c-0.2,0.3,0.4,0.3-0.4,0.5c0.3,0,0.7,0,0.3,0.2l0.1,0.5
						c-0.1,0.4-0.3,0.8-0.2,1.1c0.6-0.2,0.2-0.5,0.5-0.8c-0.3-0.9,0.5-1.7,0.1-2.6c0.5-0.7,0.1-1.4,1-2c0.4,0.4-0.2,1.7-0.1,2.4
						c0,0.9-0.3,1.8-0.6,2.7c0.2,0.1-1.1,0.3-0.9,0.4c-0.2,0.6-0.4,1.1-0.3,1.6c0.5-0.6,0.3-1,0.8-1.4c0.8-0.2,0.1,0.1,0.3,0.2
						c0.1,0.2-0.3,0.3-0.1,0.5c0.1,0.3-0.4,0.7-0.2,1c-0.4,0.7-0.1,1.3-0.7,2.1c0,0.1,0,0.2,0,0.3v0.4c0,0.2,0,0.5,0.1,0.7
						c0,0.5,0,0.9,0,1.4c0,0.9,0,1.8,0.1,2.8c-0.1,0.6-0.3,1.1-0.1,1.7c0.3-0.4,0.5-0.8,0.8-1.2c-0.1-1.2,0-2.3,0-3.5
						c0-0.6,0-1.2,0-1.7c0-0.3,0-0.6,0-0.9s0.1-0.4,0.1-0.6c0.5-1,0.8-1.9,1-2.8l0.4-1.3c0.1-0.5,0.3-1.1,0.5-1.7
						c0.1-1.2,0.2-2.2,0.3-3.3c0.1-1,0.3-2.1,0.5-3.1c-0.1-0.6-0.1-1.2,0.1-1.8l-0.1-0.7c0.3-0.4-0.1-0.9,0.3-1.4
						c-0.1-2.2-0.7-4.8-0.4-6.9c-0.1-1-0.3-2-0.4-3s-0.1-2.1-0.2-3.1c0-1-0.1-2-0.1-3.1c0-1,0.1-2.1,0.1-3.1c0-0.7-0.3-1.4,0.1-2
						c0-1.6,0.2-3.2,0.6-4.8c0.2-0.8,0.1-1.6,0.2-2.4c0.3-1.6,0.5-3.2,0.7-4.9c0,0.6,0.1,1.1,0,1.6c0.9,0.1,0.3-0.4,0.5-0.6v-0.6
						c0.2-0.5,0.3-0.9,0.2-1.7c0.1-0.2,0.3-0.4,0.3-0.7c0.3,1.4,0.1,1.8-0.1,3.4c0.5,0-0.4,0.3,0.7,0.2c-0.2,1,0.1,1.8,0.5,2.8
						c0.4-1.6,0.6-2.9-0.1-4.5c1.3-1.5,0.3-4,1.1-5.7c-0.1,0.1-0.2,0.2-0.4,0.2c-0.1-0.4-0.6-0.8-0.7-1.1c0-0.1,0.2-0.2,0.2-0.2
						c0-0.1-0.2-0.1-0.2-0.2c0-0.4,0-0.8-0.1-1.1h1.3v0.5c0.2,0.3,0,0.2,0.2,0.5c-0.3,0.2-0.1,0.8-0.2,1.2c1,0.3,0.3,1.3,0.5,1.9
						c0.1,0.8,0.1,1.1,0.2,1.6c-0.1,1.4,0,2.1-0.2,3.6c-0.2,0.3-0.3,0.7-0.5,1c-0.1,0.3,0.1,0.6,0.3,0.8c-0.5,1-0.4,2.1-0.6,3.1
						c-0.4,1.7,0.2,3.3-0.6,5c-0.9,0-0.2-0.6-0.8-0.7c-0.9,1-0.3,2.7-0.1,3.9c0.2,0.2,0.5,0.4,0.8,0.6c0.3,1,0.4,2.2,0.4,3.4
						c0.8-0.3,0.4-0.8,0.4-1.2c0-0.1-0.3-0.1-0.3-0.3c0,0,0.6-0.6,0-0.7c0.4-0.5,0-0.8,0.2-1.2c0.6,0,0.5,0.3,0.5,0.5
						c0.5-0.2,0.1-0.6,0.2-0.9c0.1-0.4,0.4,0.3,0.5,0c0.4-1.1,0.2-2.8-0.2-3.9c0.2-0.8,0.2-1.4,0.6-1.9c-0.1-2.1,0.1-3.9,0.4-5.7
						c0.2-1.8,0.5-3.6,0.4-5.9c0.5-0.1-0.1-0.6,0.5-0.6c0.6,3.3-0.1,6.4-0.4,9.5v1.7c0.2,0.2-0.3,0.2-0.2,0.5v1.2v0.6v0.3
						c0,0.1,0.2,0,0.2,0v-1.2c0.3-0.3-0.1-0.4,0.2-0.7v-1.4c0.3-0.9,0.2-1.8,0.9-2.7c0.1-2.8,0.5-6,0.4-9.3c-0.1-0.3-0.4-0.7-0.3-1
						h3.5c0,0.6,0,0.9,0.4,1.6c0,1.3-0.1,2.1,0,3.2c-1.1,1.2-0.9,3.5-0.7,4.6c-1.1,2.1,0.4,3.5,0.1,5.9c0,0.3-0.8,0.3-0.9,0.6
						c0,1.3,0,2.7,0,4.2s0.1,3,0.3,4.7c0.1,0.3-0.3,0.8,0.5,0.8c1.3-0.1,0.3-0.6-0.1-0.7c0.1-0.3,0.3-0.5-0.3-0.7
						c0.5-0.4,0.1-1,0.4-1.3c0.8,0.3,0.3,1.3,1.1,1.9c0,0.3-0.1,0.5-0.4,0.7c0.8,0.4,0.5,1.2,0.6,1.9c0.2,0.3-0.8,0.2-0.7,0.4
						c-0.5,0.1-0.2,0.3-0.7,0.4c0.2,0.5,0,1.1,0.2,1.9c0,0.1,0.3,0.2,0.3,0.2c0,0.1-0.2,0.1-0.2,0.2c0.1,0.7,0.6,1.3,0.2,1.9
						c0.1,0.1,0.6,0,1,0c-0.1,0.2-0.6,0.4-0.9,0.5c-0.2,0.3,0.4,0.2,0.3,0.4c-0.3,0.1-0.6,0.2-0.2,0.2c0.4,0.9,0.1,2.6,0.6,3.2
						c-0.1,0.1-1,0.2,0,0.2c-0.2,0.1-0.4,0.2-0.7,0.3c1.1,0-0.7,0.4,0.8,0.2c-0.1,0.1-0.3,0.2-0.7,0.3c0.2,0.1,0.3,0.1,0,0.2
						c-0.1,0.4,0.5-0.1,0.5,0.1c-0.6,0.2,0.6,0.3-0.4,0.4c0.4,0.1,0.4,0.1,0.5,0.4c0.4,0.9-0.3,2.2,0.3,3.4
						c-0.4,1.2,0.4,2.6,0.5,3.8c0.3,0.2,0.3-0.2,0.2-0.3l-0.1-0.4c0.2-0.1-0.2-0.4,0.6-0.6c0.3,0-0.1,0.5,0.1,0.7
						c0.6,0,0.2,0.5,0.4,0.7c0.5,0.3,0.7,0.4,0.9,0.7c-0.1,0.4-0.4,0.8-0.7,1.2c0.2,0.2-0.2,0.8,0.1,0.8c0.2,0.2-0.4,0.2-0.4,0.4
						c0.2,0.4,0,0.7,0,1c0.3,0,0.2,0.1,0,0.1c0.4,0.1,0.6,0.5,1.3,0.4c0.1,0.8-0.1,1.7-0.1,2.7c0.1,0.3-0.4,0.5-0.6,0.7
						c-0.3,0.5,1-0.1,0.8,0.2c1-0.3,0.3-0.7,0.7-1.1c-0.1-0.4-0.3-0.7,0-1.1c-0.3-0.9,0-1.3-0.3-2.2c0.2-0.6,0-1.3,0.3-2
						c-0.7-2.3-0.1-3.7-0.8-5.4c-1,0.4,0,0.7-0.8,1c-0.2,0.4,0,0.8-0.8,1.1c-0.4-0.1,0-0.2-0.1-0.6c-0.1-0.2-0.9,0-1-0.3
						c0.2-0.5-0.2-0.8,0.3-1.4c0.9,0.1,0.2,0.7,0.4,1.2c0,0.1,0,0.2,0.3,0.2l-0.1-0.3c0-1.9-0.1-3.4-0.3-5.3c0.3-1-0.1-2.5-0.2-3.2
						c0.3-0.3,1-0.3,1.7-0.3c0.3-2.5-0.8-5.7-0.3-8.3c-0.1-0.6-0.2-0.7-0.1-1.2c-0.7,0.2-0.3,0.7-0.4,1.1c-0.8-0.2-0.3-0.9-0.8-1.2
						c0-2.2,0-3.7-0.1-6.1c-0.3-0.3-0.2-0.9-0.5-1.2c0.6-2.9,0.6-5.8,0.9-9.3c0.1-0.7,0.4-1.3,0.5-2c0.2-2.2,0.3-4.2,0.3-6.1h2
						c0,0.4-0.1,0.6,0,1.1c0.7,0-0.2-0.6,0.5-0.5c1,0-0.2,0.3,0.5,0.5c0.2-0.1,0.9-0.3,0.7,0.1c-0.1,0.4-0.4-0.1-1,0
						c-0.2,1.2,0,1.4-0.2,2.2c0.1,0.7-0.2,1,0,1.5v0.8c0.2,0.2-0.4,0.7,0.5,0.6c0-0.6-0.3-1.4,0.2-1.9c0.2,0.4,0.4,1.5,0,2.5
						c0.2,0.3,0.6,0.6,0.7,0.7c0,0.3-0.4,0.6,0.5,0.7c-0.1-1.2-0.1-3.1,0.7-4.2c0.2,0.6,0.8,1.1,0.7,1.8c0.7-0.5,0.2-0.9,0.2-1.4
						c0-0.4,0.4-0.8,0.2-1.3c0.1-0.3,0.6-0.5,0.5-1c0.2,0.2,0.9,0.4,0.5,0.5c-0.5,0.1-0.2,0.5,0,0.6c-0.6,0.3-0.1,1-0.2,1.5
						c0.1,0.2-0.1,1,0,1.4c-0.1,0.6,0,0.7-0.2,1.1c-0.1,0.5,0.3,0.9,0,1.2c0.4,0.3-0.4,0.8,0.7,0.9c0.4-2.1,1-4.2,1.4-6.4
						c0.7,0,0.4,0.4,0.5,0.7v0.9c0,0.7,0.3,0.7,0,1.3c0.3,0.5,0.3,1.1,0.2,1.6c0.3-0.1,0.4-0.3,0.7-0.4c0.2,0.2,0.9,0.4,0.5,0.5
						c0.7,0-0.4,0.7,0.7,0.6c-0.2,0.1-0.6,0.1-0.5,0.3c0.7,0-0.6,0.2,0.5,0.2c-0.6,0.5-0.2,0.8-0.2,1.5c-0.4,1.5-0.2,2.5-0.4,4.2
						c0.1,0.1-0.2,0.2-0.5,0.2c0.1,0.1,1,0.1,0,0.2c0.5,0.1,0,0.7,0.5,0.8c0.4-0.3,0.1-1.2,0.2-1.9c0.5-0.5-0.1-1.3,0.4-1.8v-1.1
						c0.3-1.3,0.2-2.9,0.4-4.3c-0.2-0.2,0.3-0.2,0.2-0.4c-0.1-0.3-0.2-0.9,0.2-1.2c-0.3-0.3,0-0.2,0-0.5c0.6-0.1-0.6-0.4,0.5-0.3
						c-0.8-0.2,0.5-0.8-0.2-0.9c0.2-0.2,0.7-0.2,1-0.3c0.1-0.3-0.7,0.2-0.7-0.1c0.1-0.3,0.3-0.6-0.2-0.9c1.3,0-0.6-0.2,0.2-0.3
						c0.2-0.3-0.4-0.3-0.2-0.5c-0.4-0.2,1.1-0.2,0.2-0.3c-0.1-0.2,0-0.3,0.2-0.4v-0.2h0.2c0,0.1,0,0.1,0,0.2c-0.2,0.3,0.8,0.1,1,0.3
						c-0.3,0.5-0.2,1-0.2,1.5c0,0.3-0.2,0.7-0.2,1c0,0.3,0.1,0.3,0,0.7c0,0-0.4,0-0.2,0.1c0.6,0.2,0,0.5,0,0.8c0,0.5,0.5,1,0.2,1.6
						c0.8-0.2,0.4-0.8,0.5-1.2c1.4-1.3,1.6-3.3,2-5h0.6c-0.1,1-0.2,2.1-0.2,3.3c-0.5,0.9,0,1.7,0,2.5c-0.2,0.4-0.1,1.1-0.5,1.6v1
						c-0.1,0.3-0.4,0.4,0.3,0.6c-0.7,0.2-0.4,0.9-0.4,1.6c-0.4,0.6-0.1,1.4-0.4,2c0.5,1.1,0.7,1.6,0.3,2.9c0.2,0.2-0.3,0.7,0.3,0.8
						c-0.7,1.6,0.4,2.5-0.3,4c0.3,0.3,0.5,0.1,0.3,0.5c0.2,0.3,0,0.3,0.3,0.5c0.5-0.1,0.1-0.4,0.2-0.6c-0.2-0.4,0.7,0.1,0.5-0.3
						c-0.8-0.8,1-1.9-0.4-2.7c0.2-0.3,0.3-0.6,0.7-0.9c-0.4-2.3,0.8-4.5-0.5-6.7c0.3-0.3-0.2-0.9,0.9-1.1c0.4-2.7,0.7-5.1,1.1-7.6
						c0.1-0.5,0.1-1,0.2-1.5h2.7c0,0.1,0,0.3,0.1,0.3c-0.1,0.1-0.7,0.1-0.7,0c-0.6,0.1,0.5,0.2,0.7,0.3c-0.1,0.1-0.3,0.2-0.7,0.2
						c0,0.1,0.4,0.1,0.7,0.1c-0.5,0.1-0.7,0.3,0,0.4c-0.8,0.1,0.2,0.3-1,0.3c0.1,0.2,0.5,0.2,0.7,0.3c-0.2,0.2-0.8,0.2,0,0.4
						c-1.2,0.1,0.6,0.2-0.2,0.3c-0.7,0.2-0.6-0.5-0.7-0.8c-0.9,0.1-0.3,0.4,0,0.5c-0.6,0.1,0.2,0.5-0.2,0.5c0.4,0.3,0.5-0.3,1.4-0.1
						c-0.1,0.1-0.7,0-0.7,0.2c0.5,0,0.3,0.2,0.7,0.2c-0.2,0.4-0.3,1,0.5,1.4c-0.8,1.8-0.6,4.1-1.4,5.9c0.1,0.2,0.1,0.5,0.5,0.6
						c-0.4,0.8-0.4,2.1,0.3,2.8c0.1,0.8-0.1,1.7,0.3,2.3c0.6-0.2-0.4-0.6,0.2-0.7c0.6,0.1,0.1,0.7,0.3,1c0.1,0.2-0.1,0.3-0.2,0.2
						c-0.6,0.1,0.6,0.2,0.3,0.5c-0.1,0.3,0.2,0.8,0,1c-0.1,0.2,0.1,0.3-0.5,0.3c0.8,0.1,0.3,0.4,0.3,0.6c0.3,2.4,0.7,4.1,0.8,5.9
						c0.1,1.7,0.2,3.2,0.3,4.8c0,0.4,0.3,0.7,0.4,1.1c0,0.5,0,1,0,1.6c0,0.6,0.1,1.1,0.4,1.6c-0.3,0.5,0.2,1-0.2,1.6
						c0.2,1.3,0.1,2,0,3.3c0,0.1-0.2,0.3-0.2,0.3c0.1,0.3,0.3,0.8,0.2,1.3c0,0.6-0.2,1.3-0.4,2c0.5,1-0.6,1.5-0.2,2.4
						c-0.2,0.2,0,0.4-0.3,0.6c0.2,0.5-0.1,0.6,0,1.1c0.1,0.2-0.3,0.4-0.1,0.6c-0.2,0.3,0.4,0.3-0.4,0.5c0.3,0,0.7,0,0.3,0.2l0.1,0.5
						c-0.1,0.4-0.3,0.8-0.2,1.1c0.6-0.2,0.2-0.5,0.5-0.8c-0.3-0.9,0.5-1.7,0.1-2.6c0.5-0.7,0.1-1.4,1-2c0.4,0.4-0.2,1.7-0.1,2.4
						c0,0.9-0.3,1.8-0.6,2.7c0.2,0.1-1.1,0.3-0.9,0.4c-0.2,0.6-0.4,1.1-0.3,1.6c0.5-0.6,0.3-1,0.8-1.4c0.8-0.2,0.1,0.1,0.3,0.2
						c0.1,0.2-0.3,0.3-0.1,0.5c0.1,0.3-0.4,0.7-0.2,1c-0.4,0.7-0.1,1.3-0.7,2.1c0,0.1,0,0.2,0,0.3v0.4c0,0.2,0,0.5,0.1,0.7
						c0,0.5,0,0.9,0,1.4c0,0.9,0,1.8,0.1,2.8c-0.1,0.6-0.3,1.1-0.1,1.7c0.3-0.4,0.5-0.8,0.8-1.2c-0.1-1.2,0-2.3,0-3.5
						c0-0.6,0-1.2,0-1.7c0-0.3,0-0.6,0-0.9s0.1-0.4,0.1-0.6c0.5-1,0.8-1.9,1-2.8l0.4-1.3c0.1-0.5,0.3-1.1,0.5-1.7
						c0.1-1.2,0.2-2.2,0.3-3.3c0.1-1,0.3-2.1,0.5-3.1c-0.1-0.6-0.1-1.2,0.1-1.8l-0.1-0.7c0.3-0.4-0.1-0.9,0.3-1.4
						c-0.1-2.2-0.7-4.8-0.4-6.9c-0.1-1-0.3-2-0.4-3s-0.1-2.1-0.2-3.1c0-1-0.1-2-0.1-3.1c0-1,0.1-2.1,0.1-3.1c0-0.3-0.1-0.7-0.1-1
						c0,0-0.1,0.1-0.2,0.1c-0.5-0.1-0.9-0.5,0.2-0.6c-0.1,0.1,0,0.2,0,0.3c0-0.2,0-0.4,0.1-0.6c-0.1,0.1-0.2,0.1-0.4,0.1
						c0.2-0.2,0.1-0.4,0.5-0.5c0,0,0,0.1,0,0.1c0-1.6,0.2-3.1,0.6-4.7c0.2-0.8,0.1-1.6,0.2-2.4c0.4-2.8,0.9-5.5,1.1-8.6h27
						c0.1,0.5,0.1,0.9,0.2,1.2c-0.2,0.3-0.7,0.5-0.5,1c0.3,0,0.2-0.2,0.5-0.2c-0.1,0.4,0.7,0.7-0.5,0.8c0.9,0.4-0.1,1.1,0.7,1.6
						c-0.1,0.2-0.9,0.1-0.7,0.4c0.2-0.1,0.4-0.3,0.5-0.1c0.6,0.3-0.4,0.2-0.5,0.3c0.1,1.6,0.4,3.3,0.5,4.9c0.2,1.6,0.1,3.3-0.4,4.9
						c-0.1,0.3-0.9-0.2-0.7,0.2h0.7c0.4,0.1-0.1,0.1-0.5,0.1c0,0.1,0,0.3-0.2,0.3c0.8,1.5-0.2,3.1,0.9,4.2c0.8-0.1,0.2-0.2,0.5-0.5
						c-0.3-0.3,0.1-0.3,0-0.7c0.5,0.2,0.5,0.6,0.5,1c0.6-0.3,0.2-0.8,0.2-1.1c0-0.2,0.3-0.4,0.2-0.6c0-0.1-0.4,0-0.5-0.1l0.2-0.2
						c0-0.6-0.1-1.2,0.2-2c-0.5-0.2-0.1-0.8-0.5-1c0.9-0.3-0.9-0.6,0.2-0.7c-0.4-0.8-0.5-1.2-0.3-1.9c-0.2-2.6-0.6-5,0.4-7.3
						c0-0.7-0.2-0.9,0.2-1.5c-0.4-0.7,0.2-0.8-0.2-1.5v-1.4h5.5c0.1,0.3,0.1,0.7,0.3,1.1c0.8-0.3,0.1-0.5,0.2-1.1v-0.1h0.4v0.1v1
						c-0.1,0.2,0.2,0.3,0.2,0.2v-0.5v-0.8h2.8c0.1,2.9-0.2,5.4,0.2,8.5c0,0.1,0,0.3,0,0.4c0,0,0.4,0,0.2,0.1c-0.1,0-0.3,0.4-0.2,0.6
						c0,0.3,0.3,0.6,0.3,1.1c0,0.1-0.2,0.3-0.2,0.4c0.1,2.1,0.5,3.8,0.4,5.7c0,0.1-0.2,0.3-0.2,0.3c0,0.1,0.3,0.3,0.3,0.6
						c0,0-0.4,0.1-0.2,0.1c0,0,0.3,0.3,0.3,0.5c0,1.5-0.1,3.7,0.5,5.8l0.1,1.9c0.4,1,0.5,2.4,1,3.3c0.2,1.3-0.1,1.9,0.2,2.8
						c0.2,1.2,0,2,1,2.7c-0.3,0.3-0.2,0.7-0.4,1.1c0.7,1.2,0.7,2.7,1.1,5c0.1,0.1,0.2,0,0.2-0.1l-0.1-0.4l-0.1-0.7l-0.2-1.4
						c-0.2-0.3,0.3-0.3,0.2-0.5c-0.2-1.1-0.1-2.4-0.3-3.2c0.8-0.2,0.4,0.3,0.5,0.4l0.1,0.7c0.1,0.5,0.1,1-0.1,1.1
						c0.7,2.4,1.1,5.4,1,7.6c0.8,2.5,1.2,5.5,1.8,8.8c0.1,0.5,0.2,1.1,0.3,1.7c0.1,0.6,0.3,1.1,0.6,1.5c0.4-0.9-0.6-1.2-0.2-2
						c-0.1-0.5-0.2-0.6-0.4-0.8c0-1.4-0.2-2.8-0.3-4.2c-0.3-2.3-1.2-4.9-0.9-7.3c0-1-0.2-1.9-0.4-2.7c-0.2-0.9-0.3-1.7-0.3-2.6
						c0-0.1,0.3-0.1,0.2-0.2c-0.2-0.2-0.3-0.9-0.4-1.2c-0.1-1.1-0.2-2.3-0.4-3.6c-0.2-1.3-0.3-2.6-0.5-4.1c-0.4-1.3-0.5-2.5-0.6-3.7
						c-0.1-1.1-0.2-2.2-0.6-3.3c-0.9,0.3,0.3,0.9-0.4,1.3c0.4,0.4-0.1,0.6,0.3,1c-0.3,0.2-0.1,0.7-0.4,0.9c-0.1,0.4,0.8,0.5,0.3,0.8
						c-1,0-0.8-0.7-0.5-1c-0.3-0.3-0.3-0.7,0.2-0.9c-1-0.2,0-0.8-0.8-1.1c0.3-0.9-0.1-1.9-0.1-2.9c0-0.2-0.3-0.5,0.5-0.4
						c-0.4-0.1-0.6-0.2-0.5-0.6c1.4-0.1,0.1,0.3,0.7,0.6c0.4-0.2,0.8-1.1-0.5-1.1c-0.3,0.3,1.1,0.2,0.3,0.4
						c-0.8,0.1-0.4-0.3-0.5-0.5c0.2-0.3,0.8,0,1.2,0c-0.1-1.3-0.1-3.1-0.1-5c0-0.1,0-0.2,0-0.3c0,0,0,0,0,0c0,0,0,0,0,0
						c0-0.6,0.1-1.3,0.2-1.9c-0.2-0.1-0.2-0.3,0-0.3c0-0.1,0-0.1,0-0.2c0,0,0,0,0,0c-0.4-0.2,0.4-0.7-0.3-1c0.1,0,0.3,0.1,0.5,0.1
						c0,0,0-0.1,0-0.1c-0.4-0.1-0.6-0.3-0.1-0.4c0.1,0.1,0.1,0.1,0.2,0.1c0.1-0.3,0.1-0.5,0.2-0.8c-0.3,0-0.6,0.2-0.7,0
						c0.3-0.2,0.1-0.5,0.5-0.9l-0.6,0.2c0.2-0.4,0-0.4,0.7-0.6c-1.1-0.2,0.6-0.6-0.5-0.6c0.1-0.2,0.7-0.5,0-0.8
						c0.3,0,0.5-0.1,0.5-0.3c-0.4,0-0.6-0.1-0.2-0.2c0,0.1,0,0.1,0.2,0.1c0.1-0.3-0.1-0.5-0.5-0.6c0.4-0.2,0.2-0.3-0.2-0.5h1
						c-0.1,1.6-0.1,2.4,0.3,3.4c0,0,0,0,0,0c0.3,0,0.7,0,0.7-0.1c0.4-0.6,0.3-1.7-0.3-2.2c0.4-0.9,0.2-2.7,0.2-4.1h0.7
						c0.2,1.4,0.4,2.8,0.3,4.4c-0.1,0.4,0.6-0.1,0.7,0.3c0.1,0.5,0.3,1.1,0.3,1.9c0.8,0.1,0.4-0.3,0.5-0.5v-0.7
						c-0.4-0.6-0.1-1.5,0-2.5c0,0-0.4,0-0.2-0.1c1-0.3-0.4-1.9,0.2-2.4c-0.1-0.2-0.2-0.3-0.2-0.5h3.9c0.1,0.6-0.1,1.3,0.6,2
						c0.2-0.7,0.3-1.3,0.3-2h4.9c-0.4,1.1-0.3,2-0.1,3.2c0,0.3,0.7,0.2,0.7,0.5c-0.1,0.5,0,0.5-0.2,0.9c0,2,0,3.9,0.1,5.9
						c-0.5,4.6-0.6,9.3-0.1,14.8c0.4,1,0.8,2.3,0.7,3.4c0.9-0.4,0.1-0.9,0.1-1.3c0-0.9,0.1-2.3-0.5-3.2c0.5-0.4,0.2-0.8,0.1-1.3
						c0-0.3,0.2-0.5,0.2-0.7c-0.2-1.7-0.2-3.2-0.5-4.8c0.3-0.2,0.3-0.5,0.4-0.7c0.1-3,0.5-5.9,0.5-9c0.5-1,0.5-2.1,1.2-3.1
						c-0.3-1.2,0.4-2.3,0-3.4c0.2-0.3-0.4-0.3-0.5-0.5c0.7-0.1-0.1-0.3,0-0.5c-0.4-0.3,0.8-0.1,0.7-0.3c0-0.1,0-0.1,0-0.2h0.4
						c0.3,1.8-0.3,4.2,0.3,5.6c-0.1,0.9,0.2,1.7,0,2.4c0.9,0.1,0.3-0.4,0.5-0.6v-0.6c0.2-0.5,0.3-0.9,0.2-1.7
						c0.1-0.2,0.3-0.4,0.3-0.7c0.3,1.4,0.1,1.8-0.1,3.4c0.5,0-0.4,0.3,0.7,0.2c-0.2,1,0.1,1.8,0.5,2.8c0.4-1.6,0.6-2.9-0.1-4.5
						c1.3-1.6,0.2-4.2,1.2-5.9c-0.1-0.4-0.6-0.8-0.7-1.1c0-0.1,0.2-0.2,0.2-0.2c0-0.1-0.2-0.1-0.2-0.2c0-0.4,0-0.8-0.1-1.1h1.3v0.5
						c0.2,0.3,0,0.2,0.2,0.5c-0.4,0.3,0.3,1.4-0.7,1.6c1,0.3,0.3,1.3,0.5,1.9c0.1,0.8,0.1,1.1,0.2,1.6c-0.1,1.4,0,2.1-0.2,3.6
						c-0.2,0.3-0.3,0.7-0.5,1c-0.1,0.3,0.1,0.6,0.3,0.8c-0.5,1-0.4,2.1-0.6,3.1c-0.4,1.7,0.2,3.3-0.6,5c-0.9,0-0.2-0.6-0.8-0.7
						c-0.9,1-0.3,2.7-0.1,3.9c0.2,0.2,0.5,0.4,0.8,0.6c0.3,1,0.4,2.2,0.4,3.4c0.8-0.3,0.4-0.8,0.4-1.2c0-0.1-0.3-0.1-0.3-0.3
						c0,0,0.6-0.6,0-0.7c0.4-0.5,0-0.8,0.2-1.2c0.6,0,0.5,0.3,0.5,0.5c0.5-0.2,0.1-0.6,0.2-0.9c0.1-0.4,0.4,0.3,0.5,0
						c0.4-1.1,0.2-2.8-0.2-3.9c0.2-0.8,0.2-1.4,0.6-1.9c-0.1-2.1,0.1-3.9,0.4-5.7c0.2-1.8,0.5-3.6,0.4-5.9c0.5-0.1-0.1-0.6,0.5-0.6
						c0.6,3.3-0.1,6.4-0.4,9.5v1.7c0.2,0.2-0.3,0.2-0.2,0.5v1.2v0.6v0.3c0,0.1,0.2,0,0.2,0v-1.2c0.3-0.3-0.1-0.4,0.2-0.7v-1.4
						c0.3-0.9,0.2-1.8,0.9-2.7c0.1-2.8,0.5-6,0.4-9.3c-0.1-0.3-0.4-0.7-0.3-1h3.5c0,0.6,0,0.9,0.4,1.6c0,1.3-0.1,2.1,0,3.2
						c-1.1,1.2-0.9,3.5-0.7,4.6c-1.1,2.1,0.4,3.5,0.1,5.9c0,0.3-0.8,0.3-0.9,0.6c0,1.3,0,2.7,0,4.2s0.1,3,0.3,4.7
						c0.1,0.3-0.3,0.8,0.5,0.8c1.3-0.1,0.3-0.6-0.1-0.7c0.1-0.3,0.3-0.5-0.3-0.7c0.5-0.4,0.1-1,0.4-1.3c0.8,0.3,0.3,1.3,1.1,1.9
						c0,0.3-0.1,0.5-0.4,0.7c0.8,0.4,0.5,1.2,0.6,1.9c0.2,0.3-0.8,0.2-0.7,0.4c-0.5,0.1-0.2,0.3-0.7,0.4c0.2,0.5,0,1.1,0.2,1.9
						c0,0.1,0.3,0.2,0.3,0.2c0,0.1-0.2,0.1-0.2,0.2c0.1,0.7,0.6,1.3,0.2,1.9c0.1,0.1,0.6,0,1,0c-0.1,0.2-0.6,0.4-0.9,0.5
						c-0.2,0.3,0.4,0.2,0.3,0.4c-0.3,0.1-0.6,0.2-0.2,0.2c0.4,0.9,0.1,2.6,0.6,3.2c-0.1,0.1-1,0.2,0,0.2c-0.2,0.1-0.4,0.2-0.7,0.3
						c1.1,0-0.7,0.4,0.8,0.2c-0.1,0.1-0.3,0.2-0.7,0.3c0.2,0.1,0.3,0.1,0,0.2c-0.1,0.4,0.5-0.1,0.5,0.1c-0.6,0.2,0.6,0.3-0.4,0.4
						c0.4,0.1,0.4,0.1,0.5,0.4c0.4,0.9-0.3,2.2,0.3,3.4c-0.4,1.2,0.4,2.6,0.5,3.8c0.3,0.2,0.3-0.2,0.2-0.3l-0.1-0.4
						c0.2-0.1-0.2-0.4,0.6-0.6c0.3,0-0.1,0.5,0.1,0.7c0.6,0,0.2,0.5,0.4,0.7c0.5,0.3,0.7,0.4,0.9,0.7c-0.1,0.4-0.4,0.8-0.7,1.2
						c0.2,0.2-0.2,0.8,0.1,0.8c0.2,0.2-0.4,0.2-0.4,0.4c0.2,0.4,0,0.7,0,1c0.3,0,0.2,0.1,0,0.1c0.4,0.1,0.6,0.5,1.3,0.4
						c0.1,0.8-0.1,1.7-0.1,2.7c0.1,0.3-0.4,0.5-0.6,0.7c-0.3,0.5,1-0.1,0.8,0.2c1-0.3,0.3-0.7,0.7-1.1c-0.1-0.4-0.3-0.7,0-1.1
						c-0.3-0.9,0-1.3-0.3-2.2c0.2-0.6,0-1.3,0.3-2c-0.7-2.3-0.1-3.7-0.8-5.4c-1,0.4,0,0.7-0.8,1c-0.2,0.4,0,0.8-0.8,1.1
						c-0.4-0.1,0-0.2-0.1-0.6c-0.1-0.2-0.9,0-1-0.3c0.2-0.5-0.2-0.8,0.3-1.4c0.9,0.1,0.2,0.7,0.4,1.2c0,0.1,0,0.2,0.3,0.2l-0.1-0.3
						c0-1.9-0.1-3.4-0.3-5.3c0.3-1-0.1-2.5-0.2-3.2c0.3-0.3,1-0.3,1.7-0.3c0.3-2.5-0.8-5.7-0.3-8.3c-0.1-0.6-0.2-0.7-0.1-1.2
						c-0.7,0.2-0.3,0.7-0.4,1.1c-0.8-0.2-0.3-0.9-0.8-1.2c0-2.2,0-3.7-0.1-6.1c-0.3-0.3-0.2-0.9-0.5-1.2c0.6-2.9,0.6-5.8,0.9-9.3
						c0.1-0.7,0.4-1.3,0.5-2c0.2-2.2,0.3-4.2,0.3-6.1h2c0,0.4-0.1,0.6,0,1.1c0.7,0-0.2-0.6,0.5-0.5c1,0-0.2,0.3,0.5,0.5
						c0.2-0.1,0.9-0.3,0.7,0.1c-0.1,0.4-0.4-0.1-1,0c-0.2,1.2,0,1.4-0.2,2.2c0.1,0.7-0.2,1,0,1.5v0.8c0.2,0.2-0.4,0.7,0.5,0.6
						c0-0.6-0.3-1.4,0.2-1.9c0.2,0.4,0.4,1.5,0,2.5c0.2,0.3,0.6,0.6,0.7,0.7c0,0.3-0.4,0.6,0.5,0.7c-0.1-1.2-0.1-3.1,0.7-4.2
						c0.2,0.6,0.8,1.1,0.7,1.8c0.7-0.5,0.2-0.9,0.2-1.4c0-0.4,0.4-0.8,0.2-1.3c0.1-0.3,0.6-0.5,0.5-1c0.2,0.2,0.9,0.4,0.5,0.5
						c-0.5,0.1-0.2,0.5,0,0.6c-0.6,0.3-0.1,1-0.2,1.5c0.1,0.2-0.1,1,0,1.4c-0.1,0.6,0,0.7-0.2,1.1c-0.1,0.5,0.3,0.9,0,1.2
						c0.4,0.3-0.4,0.8,0.7,0.9c0.4-2.1,1-4.2,1.4-6.4c0.7,0,0.4,0.4,0.5,0.7v0.9c0,0.7,0.3,0.7,0,1.3c0.3,0.5,0.3,1.1,0.2,1.6
						c0.3-0.1,0.4-0.3,0.7-0.4c0.2,0.2,0.9,0.4,0.5,0.5c0.7,0-0.4,0.7,0.7,0.6c-0.2,0.1-0.6,0.1-0.5,0.3c0.7,0-0.6,0.2,0.5,0.2
						c-0.6,0.5-0.2,0.8-0.2,1.5c-0.4,1.5-0.2,2.5-0.4,4.2c0.1,0.1-0.2,0.2-0.5,0.2c0.1,0.1,1,0.1,0,0.2c0.5,0.1,0,0.7,0.5,0.8
						c0.4-0.3,0.1-1.2,0.2-1.9c0.5-0.5-0.1-1.3,0.4-1.8v-1.1c0.3-1.3,0.2-2.9,0.4-4.3c-0.2-0.2,0.3-0.2,0.2-0.4
						c-0.1-0.3-0.2-0.9,0.2-1.2c-0.3-0.3,0-0.2,0-0.5c0.6-0.1-0.6-0.4,0.5-0.3c-0.8-0.2,0.5-0.8-0.2-0.9c0.2-0.2,0.7-0.2,1-0.3
						c0.1-0.3-0.7,0.2-0.7-0.1c0.1-0.3,0.3-0.6-0.2-0.9c1.3,0-0.6-0.2,0.2-0.3c0.2-0.3-0.4-0.3-0.2-0.5c-0.4-0.2,1.1-0.2,0.2-0.3
						c-0.1-0.2,0-0.3,0.2-0.4v-0.2h0.2c0,0.1,0,0.1,0,0.2c-0.2,0.3,0.8,0.1,1,0.3c-0.3,0.5-0.2,1-0.2,1.5c0,0.3-0.2,0.7-0.2,1
						c0,0.3,0.1,0.3,0,0.7c0,0-0.4,0-0.2,0.1c0.6,0.2,0,0.5,0,0.8c0,0.5,0.5,1,0.2,1.6c0.8-0.2,0.4-0.8,0.5-1.2c1.4-1.3,1.6-3.3,2-5
						h0.6c-0.1,1-0.2,2.1-0.2,3.3c-0.5,0.9,0,1.7,0,2.5c-0.2,0.4-0.1,1.1-0.5,1.6v1c-0.1,0.3-0.4,0.4,0.3,0.6
						c-0.7,0.2-0.4,0.9-0.4,1.6c-0.4,0.6-0.1,1.4-0.4,2c0.5,1.1,0.7,1.6,0.3,2.9c0.2,0.2-0.3,0.7,0.3,0.8c-0.7,1.6,0.4,2.5-0.3,4
						c0.3,0.3,0.5,0.1,0.3,0.5c0.2,0.3,0,0.3,0.3,0.5c0.5-0.1,0.1-0.4,0.2-0.6c-0.2-0.4,0.7,0.1,0.5-0.3c-0.8-0.8,1-1.9-0.4-2.7
						c0.2-0.3,0.3-0.6,0.7-0.9c-0.4-2.3,0.8-4.5-0.5-6.7c0.3-0.3-0.2-0.9,0.9-1.1c0.4-2.7,0.7-5.1,1.1-7.6c0.1-0.5,0.1-1,0.2-1.5
						h2.7c0,0.1,0,0.3,0.1,0.3c-0.1,0.1-0.7,0.1-0.7,0c-0.6,0.1,0.5,0.2,0.7,0.3c-0.1,0.1-0.3,0.2-0.7,0.2c0,0.1,0.4,0.1,0.7,0.1
						c-0.5,0.1-0.7,0.3,0,0.4c-0.8,0.1,0.2,0.3-1,0.3c0.1,0.2,0.5,0.2,0.7,0.3c-0.2,0.2-0.8,0.2,0,0.4c-1.2,0.1,0.6,0.2-0.2,0.3
						c-0.7,0.2-0.6-0.5-0.7-0.8c-0.9,0.1-0.3,0.4,0,0.5c-0.6,0.1,0.2,0.5-0.2,0.5c0.4,0.3,0.5-0.3,1.4-0.1c-0.1,0.1-0.7,0-0.7,0.2
						c0.5,0,0.3,0.2,0.7,0.2c-0.2,0.4-0.3,1,0.5,1.4c-0.8,1.8-0.6,4.1-1.4,5.9c0.1,0.2,0.1,0.5,0.5,0.6c-0.4,0.8-0.4,2.1,0.3,2.8
						c0.1,0.8-0.1,1.7,0.3,2.3c0.6-0.2-0.4-0.6,0.2-0.7c0.6,0.1,0.1,0.7,0.3,1c0.1,0.2-0.1,0.3-0.2,0.2c-0.6,0.1,0.6,0.2,0.3,0.5
						c-0.1,0.3,0.2,0.8,0,1c-0.1,0.2,0.1,0.3-0.5,0.3c0.8,0.1,0.3,0.4,0.3,0.6c0.3,2.4,0.7,4.1,0.8,5.9c0.1,1.7,0.2,3.2,0.3,4.8
						c0,0.4,0.3,0.7,0.4,1.1c0,0.5,0,1,0,1.6c0,0.6,0.1,1.1,0.4,1.6c-0.3,0.5,0.2,1-0.2,1.6c0.2,1.3,0.1,2,0,3.3
						c0,0.1-0.2,0.3-0.2,0.3c0.1,0.3,0.3,0.8,0.2,1.3c0,0.6-0.2,1.3-0.4,2c0.5,1-0.6,1.5-0.2,2.4c-0.2,0.2,0,0.4-0.3,0.6
						c0.2,0.5-0.1,0.6,0,1.1c0.1,0.2-0.3,0.4-0.1,0.6c-0.2,0.3,0.4,0.3-0.4,0.5c0.3,0,0.7,0,0.3,0.2l0.1,0.5
						c-0.1,0.4-0.3,0.8-0.2,1.1c0.6-0.2,0.2-0.5,0.5-0.8c-0.3-0.9,0.5-1.7,0.1-2.6c0.5-0.7,0.1-1.4,1-2c0.4,0.4-0.2,1.7-0.1,2.4
						c0,0.9-0.3,1.8-0.6,2.7c0.2,0.1-1.1,0.3-0.9,0.4c-0.2,0.6-0.4,1.1-0.3,1.6c0.5-0.6,0.3-1,0.8-1.4c0.8-0.2,0.1,0.1,0.3,0.2
						c0.1,0.2-0.3,0.3-0.1,0.5c0.1,0.3-0.4,0.7-0.2,1c-0.4,0.7-0.1,1.3-0.7,2.1c0,0.1,0,0.2,0,0.3v0.4c0,0.2,0,0.5,0.1,0.7
						c0,0.5,0,0.9,0,1.4c0,0.9,0,1.8,0.1,2.8c-0.1,0.6-0.3,1.1-0.1,1.7c0.3-0.4,0.5-0.8,0.8-1.2c-0.1-1.2,0-2.3,0-3.5
						c0-0.6,0-1.2,0-1.7c0-0.3,0-0.6,0-0.9c0-0.3,0.1-0.4,0.1-0.6c0.5-1,0.8-1.9,1-2.8l0.4-1.3c0.1-0.5,0.3-1.1,0.5-1.7
						c0.1-1.2,0.2-2.2,0.3-3.3c0.1-1,0.3-2.1,0.5-3.1c-0.1-0.6-0.1-1.2,0.1-1.8l-0.1-0.7c0.3-0.4-0.1-0.9,0.3-1.4
						c-0.1-2.2-0.7-4.8-0.4-6.9c-0.1-1-0.3-2-0.4-3c-0.1-1-0.1-2.1-0.2-3.1c0-1-0.1-2-0.1-3.1c0-0.5,0-1.1,0.1-1.6
						c-0.2,0-0.4-0.1-0.4-0.3c0.1,0,0.3,0,0.4,0c0-0.4,0-0.8,0-1.2c0-0.5-0.1-1-0.1-1.4c-0.2-0.1-0.3-0.3,0.1-0.4
						c0-0.1,0-0.1,0.1-0.2c0-0.5,0-1,0.1-1.4c-0.2-0.1-0.4-0.1-0.3-0.3c0-0.1,0.2-0.1,0.3-0.2c0-0.1,0-0.2,0-0.4
						c-0.1-0.1-0.2-0.2-0.3-0.3c0.2,0,0.3,0,0.4-0.1c0.1-0.7,0.2-1.5,0.4-2.2c0.2-0.8,0.1-1.5,0.2-2.3c-1.1,0.1-0.6-0.4-0.7-0.7
						c0.5-0.2,0.1-0.6,0.2-0.9c-0.1-0.2,0.4-0.2,0.2-0.4v-0.9c0.5-0.4,0-1.2,0.5-1.7c0.1-0.5-0.4-1.2,0.7-1.3
						c0.2-1.4,0.3-2.7,0.3-4.2c0.3-1.2,0.7-2.3,1-3.5c0,0-0.3,0-0.2-0.1c0.1-0.1,0.4-0.5,0.5-0.8c0-0.1-0.2-0.3-0.2-0.4
						c0-0.2,0.4-0.8,0.5-1.2c0.1-0.5,0.1-1,0.3-1.6c0.2-0.6,0.4-1.2,0.5-2c0.2-1.2,0.8-2.4,1.1-3.7c0.3-1.4,0.3-2.6,0.8-4
						c0.2-2.4,0.7-4.6,1.2-6.8c0.5-2.3,1.1-4.6,1.3-7.3c0.4-1.6,0.9-3.2,1.4-4.9l0.2-0.6c0,0.1,0,0.2,0,0.3l0.1-0.3l0.4-1.2
						c0.3-0.8,0.5-1.6,0.7-2.4c0.1-1.5,0.4-2.8,0.9-4c0-2,0.2-3.7,0.7-5.4c0.2-1.7-0.1-3,0.4-4.3c0.1-0.1-0.2-0.3-0.2-0.3
						c2-2.8,2.2-2.9,2.2-3C407.8,93.8,408.6,90.1,408.1,87.5z M-12.2,18.5c0.2,0.2,0.4,0.3-0.5,0.4C-12.6,18.7-13,18.5-12.2,18.5z
						 M-10,22.6c-0.4,0-0.6-0.1-0.5-0.2c-0.9,0.1,0.4,0.3-0.7,0.4c-0.1-0.2-0.7-0.6,0.2-0.8c-0.7-0.7-0.3-1.3-1.1-2.3
						c1,0,0.8,0.5,1.7,0.6C-10.1,21-9.2,22-10,22.6z M-6.6,19.4c-0.9-0.3-1-1-0.4-1.5C-6.5,18.3-6.3,18.8-6.6,19.4z M-7,11.3
						c0.5-0.1-0.2-0.4,0.7-0.4C-6.7,11-6.1,11.3-7,11.3z M-5.1,27.9c-0.7,0.1-0.4-0.1-0.5-0.2C-5.2,27.7-5.1,27.8-5.1,27.9z
						 M-14.5,70.1c-0.8,0.1-0.6-0.5-0.3-0.6C-13.9,69.4-14.9,69.8-14.5,70.1z M-10.2,84.9c0,0.4-0.4,0-0.3-0.2
						c-0.4-0.1,0.2-0.5-0.3-0.6C-10,83.8-10.4,84.7-10.2,84.9z M-11.1,80.1c0.1-0.2-0.5-0.4,0.4-0.5c0.2,0.3-0.4,0.5-0.1,0.8
						C-11.5,80.5-11.4,80.2-11.1,80.1z M-11.3,80.7c0.1,0.1-0.1,0.2-0.2,0.3C-12.2,81.1-12.1,80.8-11.3,80.7z M-14.1,69.4
						c-0.1-0.2,0.7-0.3,0.9-0.5c0.1-0.3-0.3-0.7,0.1-1c0.6,0,0,0.6,0.6,0.6c-0.3,1.4,0.4,2.3,0.5,3.3c0,0.3-0.3,0.7-0.1,1
						c0.1,0.2-1,0.1-0.2,0c0.1-0.2-0.3-0.2-0.3-0.4c0.1-0.7-0.3-0.9-0.2-1.7c-0.3-0.2-0.2-0.5-1-0.5L-14.1,69.4z M-12.8,73.6v-0.1
						c0.2,0,0.2-0.1,0.2-0.1C-12.1,73.3-12.2,73.6-12.8,73.6z M-14,73.6c0.5-0.1,0.6,0,1-0.1c0.1,0.2-0.4,0.2-0.2,0.4
						C-14,74-13.9,73.8-14,73.6z M-12.1,75.4c-0.2,0-0.4-0.1-0.5-0.1c-0.5,0.1,0,0.3-0.4,0.4c-0.8-0.3-0.2-0.8-0.4-1.4
						c1-0.1,0.4,0.4,1.5,0C-12.4,74.6-12,75-12.1,75.4z M-11.6,82.3c0.1-0.5-0.7-0.6-0.2-1.1c1.4,0,1,0.9,1.2,1.6
						C-11.3,82.7-11,82.3-11.6,82.3z M-10,89.7c-0.4,0-0.5-0.1-0.5-0.3C-9.7,89.2-10.1,89.6-10,89.7z M-10.8,87.7
						c0-1-0.7-1.2,0.2-2.1c1,0.1,0.3,0.7,0.4,1c0,0.2,0.3,0.3,0.3,0.5c0.1,0.3,0.1,0.8,0.2,1.1C-10.5,88.6-10,87.7-10.8,87.7z
						 M-6.1,79.4c-0.1-0.3-0.8-0.3-0.8-0.6c0.2-0.2,0.5-0.4,0.6-0.6C-5.7,78.4-4.6,79-6.1,79.4z M-3.8,70.1c-0.8,0,0-0.2-0.5-0.4
						c0.4-0.4-0.5-0.6,0.1-1.2c1,0,0.2,0.7,0.6,0.8C-3.9,69.8-3.6,69.8-3.8,70.1z M-0.4,51.1c-1,0-0.2-0.4-0.1-0.6
						C0.2,50.5-0.3,51-0.4,51.1z M11.1,8.2C11.4,8.3,11.1,8.4,11.1,8.2L11.1,8.2z M12,7.5c-0.4,0.2,0.2,0.2,0,0.6
						C11.3,8.1,11,7.4,12,7.5z M12.8,10.7C12.7,10.7,12.7,10.7,12.8,10.7l-0.2-0.1c0.1,0,0.2,0,0.3,0C12.8,10.6,12.7,10.6,12.8,10.7
						z M12.7,10.4c-0.4-0.2-0.8-1,0.2-1.1C12.6,9.8,13.1,10,12.7,10.4z M13.1,6.6l-0.5-0.3c0-0.1,0.2-0.1,0.2-0.1s-0.2-0.4,0-0.2
						C13.1,6.2,13.3,6.4,13.1,6.6z M15.7,8.4c0.1,0.5-0.5-2.9,0.3-2.7C15.5,6.2,14.6,8.4,15.7,8.4z M15.8,8.3
						c0.8-0.2-0.8-0.8,0.4-0.8C15.7,7.6,17,8.3,15.8,8.3z M16.3,7h-0.7c0.5,0-0.8-0.5,0.4-0.6c0,0.1-0.2,0.1-0.2,0.2
						C15.8,6.8,16.5,6.7,16.3,7z M18.3,190c0.4-0.3,0.8,0.3,1.2,0.4C19,190.7,18.6,190.1,18.3,190z M20,9.4
						c-0.2-0.1-0.3-0.2-0.2-0.5C20.5,8.8,20.4,9.4,20,9.4z M27.1,177.7c-0.6,0.3,0.2,0.4,0.1,0.8c0,1.1,0.1,2.1,0.3,3.2
						c-0.9,0.2-0.4-0.4-0.5-0.6c0.2-0.4-0.5-0.4-0.1-0.6c-0.2-1.3-0.3-2.6-0.5-3.4C27.4,176.9,26.4,177.7,27.1,177.7z M26.7,176.3
						c0,0.2,0.1,0.3-0.5,0.3C26.3,176.5,26.4,176.4,26.7,176.3z M52.6,12c-0.1-0.1-0.6-0.4,0-0.4c-0.7,0.1-0.7-0.5-0.2-0.4
						c0.1,0.1,0.3,0.2,0.2,0.4C52.4,11.8,53.3,11.9,52.6,12z M78.4,7c0.4-0.1-0.2-0.4,0.7-0.4C78.6,6.7,79.3,7,78.4,7z M80.6,152.6
						c0-0.2,0-0.3-0.1-0.4h0.3v0.5c-0.4,0-0.2,0.2,0,0.3C79.8,153,80.6,152.7,80.6,152.6z M80.1,156.2c-0.1,0.3,0.3,0.6-0.2,0.7
						C79.9,156.7,79.3,156.3,80.1,156.2z M79.4,159.6L79.4,159.6c0.1-0.3,0.1-0.5,0.3-0.5C80.1,159.2,79.9,159.5,79.4,159.6h0.5v0.3
						h-0.5V159.6z M79.9,158.6C79.5,159.7,79.5,158.1,79.9,158.6L79.9,158.6z M79.1,163.2c0.5-0.2,0-0.7,0.2-1.1
						c-0.1-0.2,0.3-0.2,0.2-0.3c-0.4-0.2,0.4-0.7-0.3-1c0.4,0,0.2-0.2,0.3-0.3c-0.1,0-0.2,0-0.3-0.1c0.6,0-0.2-0.5,0.7-0.3
						c0.1,0.1,0,0.2-0.2,0.3c0.1,0,0.1,0,0.2,0c-0.4,0.6,0.1,1-0.1,1.4c0.4,0,0,0.1,0,0.2c0,0.3,0,0.5,0,0.8
						C80,163,79.6,163.5,79.1,163.2z M79.4,158.2c0.1-0.2,0.1-0.4,0.7-0.3C80.2,158.1,80.1,158.3,79.4,158.2z M79.7,157.8
						c0.1-0.2-0.3-0.6,0.5-0.7C79.9,157.4,80.6,157.9,79.7,157.8z M79.8,156.1c0.1-0.3,0.2-0.4,0-0.6c0-0.2,0.2-0.3,0.5-0.3
						c0,0.1,0,0.3-0.5,0.3C80.6,155.4,80.6,156.2,79.8,156.1z M80.1,155.1c0.1-0.3-0.6-0.3,0.2-0.4C80.2,154.9,80.9,155,80.1,155.1z
						 M80.3,153.5c0.1-0.2,0-0.3-0.2-0.4C81.4,152.9,80.4,153.7,80.3,153.5z M81.2,167c-0.5-0.1-0.9-0.5,0.2-0.6
						C81.3,166.6,81.7,167,81.2,167z M81.3,169.8c-0.6,0-0.7-0.1-0.7-0.3c0.3,0,0.5-0.1,0.7-0.1V169.8z M81.5,168.6
						c0,0.1,0,0.2-0.2,0.2c0.1-0.1-0.3-0.4,0.2-0.4V168.6z M81.2,166.3c0.2-0.2,0.1-0.4,0.5-0.5C81.6,166,81.8,166.3,81.2,166.3z
						 M81.3,165.2c0.2-0.3-0.7-0.2-0.5-0.5c0-0.2,0.6-0.1,0.5-0.3c-0.1-0.2-0.3-0.3-0.5-0.5c0.9,0,0-0.5,0.9-0.4
						C81.4,164,81.6,164.8,81.3,165.2z M81.8,159.3c-1.1,0.1-0.6-0.4-0.7-0.7c0.5-0.2,0.1-0.6,0.2-0.9c-0.1-0.2,0.4-0.2,0.2-0.4
						v-0.9c0.5-0.4,0-1.2,0.5-1.7c0.1-0.5-0.4-1.2,0.7-1.3C83,155.8,81.9,156.9,81.8,159.3z M115.8,9c-0.3,0.1-0.4,0.2-0.6,0
						C115.3,9,115.5,9,115.8,9C115.8,9.1,115.7,9.1,115.8,9z M135.1,179.7c-0.6,0.3,0.2,0.4,0.1,0.8c0,1.1,0.1,2.1,0.3,3.2
						c-0.9,0.2-0.4-0.4-0.5-0.6c0.2-0.4-0.5-0.4-0.1-0.6c-0.2-1.3-0.3-2.6-0.5-3.4C135.4,178.9,134.4,179.7,135.1,179.7z
						 M134.7,178.3c0,0.2,0.1,0.3-0.5,0.3C134.3,178.5,134.4,178.4,134.7,178.3z M133.4,152.2c0,0.3-0.1,0.4-0.5,0.4
						c0-0.2-0.1-0.3-0.2-0.4H133.4z M132.3,152.7h1v0.3h-0.5c-0.1,0-0.3,0-0.2-0.1c0.1,0,0.3,0,0.2-0.1
						C132.6,152.8,132.3,152.8,132.3,152.7z M133.4,160.7c-0.6,0.1-1.1-0.3-0.5-0.4c0.4,0.4,0-0.4,0.5-0.3
						C133.9,160.3,132.9,160.4,133.4,160.7z M133.6,161.2c-0.9-0.2-0.7,0-0.2,0.2c-0.3,0-0.1,0.1,0,0.2c-0.3,0-0.5,0.1-0.7,0.1
						c-0.4-0.2,0.4-0.7-0.3-1C132.9,160.8,133.7,160.8,133.6,161.2z M132.5,164.1c0.3-0.1-0.1-0.2,0.5-0.3c-0.6-0.3-0.3-1,0-1.5
						c-0.6-0.1-0.7-0.5,0.2-0.5c-0.3,0.6,0.8,1.1-0.2,1.7c0.3,0.1,0.5,0.2,0.5,0.4c-0.2,1,0,1.5,0.1,2.5c-1.3,0-0.4-0.3-0.5-0.6
						c-0.5-0.3,0.2-0.5-0.3-0.9C133,164.5,132.9,164.5,132.5,164.1z M133.6,166.7h-0.7C132.5,166.4,133.9,166.4,133.6,166.7z
						 M133.5,159.4c-0.2,0-0.5,0-0.5,0.1c0.2,0,0.5,0,0.5,0.1c-0.4-0.1-0.8,0.3-1,0c0.3-0.2,0.1-0.5,0.5-0.9l-0.6,0.2
						c0.2-0.4,0-0.4,0.7-0.6c-1.1-0.2,0.6-0.6-0.5-0.6c0.1-0.2,0.7-0.5,0-0.8c0.3,0,0.5-0.1,0.5-0.3c-0.4,0-0.6-0.1-0.2-0.2
						c0,0.1,0,0.1,0.2,0.1c0.1-0.3-0.1-0.5-0.5-0.6c0.4-0.2,0.2-0.3-0.2-0.5h1c-0.1,1.6-0.1,2.4,0.3,3.4
						C133.4,158.9,133.4,159.1,133.5,159.4z M132.7,155c0-0.3,0.5-0.6-0.2-0.8c1-0.1-0.2-0.6,0.4-0.9c-0.2,0-0.5,0-0.5-0.1
						c0.8-0.1,0.6,0.2,1,0.2c0.1,0.8-0.1,1.3,0.3,1.8C132.4,155.3,133.7,155,132.7,155z M153,152.4c0-0.1-0.1-0.2-0.1-0.2h0.5
						C153.3,152.3,153.2,152.4,153,152.4z M160.6,14c-0.1-0.1-0.6-0.4,0-0.4c-0.7,0.1-0.7-0.5-0.2-0.4c0.1,0.1,0.3,0.2,0.2,0.4
						C160.4,13.8,161.3,13.9,160.6,14z M167.7,154.2c-0.1-0.2,0.1-0.3,0.5-0.4C168.1,154,168.4,154.3,167.7,154.2z M167.9,153.7
						c-0.1,0.1-0.2-0.1-0.2-0.1c0,0.1,0.4-0.5,0.5-0.4C168.3,153.4,168.2,153.6,167.9,153.7z M167.7,153.2c0.6,0,0.1-0.4,0-0.4h0.5
						c0.1-0.1,0.2-0.1,0.2,0C168.2,152.7,168.4,153.4,167.7,153.2z M169.6,153c0.1-0.3,0.2-0.6,0.2-0.8h1.2
						C170.3,152.4,170.7,153,169.6,153z M183.1,157.3c0,0.1,0,0.1,0,0.2C183,157.4,183,157.4,183.1,157.3z M182.7,160.3
						c0.2-0.2,0.1-0.5,0.2-0.4C183.1,159.9,183.7,160.3,182.7,160.3z M186.4,152.6c-0.5,0.1-0.6-0.1-0.6-0.4h0.7c0.1,0,0.1,0,0.2,0
						C185.4,152.3,187.2,152.4,186.4,152.6z M188.5,152.7h0.5v0.3h-0.5V152.7z M189.2,169c-0.5-0.1-0.9-0.5,0.2-0.6
						C189.3,168.6,189.7,169,189.2,169z M188.8,153.3c0.3,0.1,0.1,0.3-0.2,0.4C188.7,153.6,188.3,153.3,188.8,153.3z M188.5,154.5
						c0.1-0.2-0.3-0.5,0.2-0.6v0.8c-0.4,0-0.2,0.2,0,0.3C187.8,154.9,188.6,154.6,188.5,154.5z M188.1,158.3
						c-0.1,0.2,0.3,0.6-0.2,0.7C187.9,158.8,187.3,158.4,188.1,158.3z M187.4,161.6h0.1c0-0.3,0-0.5,0.2-0.5
						c0.4,0.1,0.2,0.4-0.2,0.5h0.4v0.3h-0.5V161.6z M187.9,160.6C187.5,161.7,187.5,160.1,187.9,160.6L187.9,160.6z M187.8,164
						c0,0.3,0,0.5,0,0.8c0.2,0.2-0.2,0.7-0.7,0.4c0.5-0.2,0-0.7,0.2-1.1c-0.1-0.2,0.3-0.2,0.2-0.3c-0.4-0.2,0.4-0.7-0.3-1
						c0.4,0,0.2-0.2,0.3-0.3c-0.1,0-0.2,0-0.3-0.1c0.6,0-0.2-0.5,0.7-0.3c0.1,0.1,0,0.2-0.2,0.3c0.1,0,0.1,0,0.2,0
						c-0.4,0.6,0.1,1-0.1,1.4C188.2,163.8,187.8,163.9,187.8,164z M187.4,160.2c0.1-0.2,0.1-0.4,0.7-0.3
						C188.2,160.1,188.1,160.3,187.4,160.2z M187.7,159.8c0.1-0.2-0.3-0.6,0.5-0.7C187.9,159.4,188.6,159.9,187.7,159.8z
						 M187.8,158.1c0.1-0.3,0.2-0.4,0-0.6c0-0.2,0.2-0.3,0.5-0.3c0,0.1,0,0.3-0.5,0.3C188.6,157.4,188.6,158.2,187.8,158.1z
						 M188.1,157.1c0.1-0.3-0.6-0.3,0.2-0.4C188.2,156.9,188.9,157,188.1,157.1z M188.3,155.5c0.1-0.2,0-0.3-0.2-0.4
						C189.4,154.9,188.4,155.7,188.3,155.5z M189.3,171.8c-0.6,0-0.7-0.1-0.7-0.3c0.3,0,0.5-0.1,0.7-0.1V171.8z M189.5,170.6
						c0,0.1,0,0.2-0.2,0.2c0.1-0.1-0.3-0.4,0.2-0.4V170.6z M189.2,168.3c0.2-0.2,0.1-0.4,0.5-0.5C189.6,168,189.8,168.3,189.2,168.3
						z M189.3,167.2c0.2-0.3-0.7-0.2-0.5-0.5c0-0.2,0.6-0.1,0.5-0.3c-0.1-0.2-0.3-0.3-0.5-0.5c0.9,0,0-0.5,0.9-0.4
						C189.4,166,189.6,166.8,189.3,167.2z M189.8,161.3c-1.1,0.1-0.6-0.4-0.7-0.7c0.5-0.2,0.1-0.6,0.2-0.9c-0.1-0.2,0.4-0.2,0.2-0.4
						v-0.9c0.5-0.4,0-1.2,0.5-1.7c0.1-0.4-0.3-1,0.4-1.3v0.5c-0.1,0.2,0.2,0.3,0.2,0.2v-0.5v-0.3c0,0,0,0,0.1,0
						C191,157.8,189.9,158.9,189.8,161.3z M192,13.6c-0.1-0.1-0.2-0.3-0.4-0.4c0.1-0.2,0.2-0.3,0.4-0.1
						C192.1,13.4,192.1,13.5,192,13.6z M191.6,12.5c0-0.5,0.1-1.2,0.1-1.3C192.2,10.5,192.5,12.6,191.6,12.5z M192.2,9.8
						c0,0.2-0.2,0.2-0.4,0.3c0,0.3,0.1,0.3,0.2,0.3c-0.6,1.3-0.9,2.3,0.2,3C192,13.7,191.8,9.8,192.2,9.8z M197.7,188.6
						c-0.8,0.2-0.3-0.3-0.5-0.5c0.2,0.1,0.4,0.2,0.5,0.3C197.7,188.5,197.7,188.5,197.7,188.6z M224.5,157.6c-0.1,0-0.2,0-0.4,0
						c0.2-0.2,0.1-0.5,0.2-0.4c0,0,0.1,0,0.2,0.1C224.5,157.4,224.5,157.5,224.5,157.6z M229.4,16c-0.2-0.1-0.4-0.1-0.5-0.1
						c0-0.1,0-0.2,0.1-0.2C229.7,15.6,229.4,15.8,229.4,16z M230.5,156.4c0.3,0.1,0.1,0.3-0.2,0.4
						C230.2,156.6,229.8,156.5,230.5,156.4z M230,159.2c-0.1-0.2,0.1-0.3,0.5-0.4C230.4,159,230.7,159.3,230,159.2z M230.2,158.7
						c-0.1,0.1-0.2-0.1-0.2-0.1c0,0.1,0.4-0.5,0.5-0.4C230.6,158.4,230.6,158.6,230.2,158.7z M230.7,157.8c-0.2-0.1,0,0.6-0.7,0.4
						c0.6,0,0.1-0.4,0-0.4h0.5C230.6,157.7,230.8,157.7,230.7,157.8z M230.7,153.6c0.3,0,0.7,0,0.7,0.1c-0.7-0.1,0.2,0.4-0.5,0.4
						C230.5,153.9,231.2,153.8,230.7,153.6z M231.2,155.7c-0.5-0.3-0.1-1,0-1.2C231.5,154.8,231.6,155.5,231.2,155.7z M231.5,13.2
						c0.7-0.1,0.6,0.5,0.2,0.5C231.5,13.6,231.4,13.4,231.5,13.2z M233.3,157.2c-0.7,0.2-0.2,0.9-1.4,0.9c0.3-0.7,0.2-1.5,0.2-2.6
						c-0.1-0.2,0.4-0.2,0.2-0.4v-1.7v-0.9c0.3-0.1,0.2-0.2,0.1-0.3h0.4c0,0.3,0.3,0.6,0.5,0.9c0.1,0.8,0.2,1.7-0.7,2.2
						C233.4,156,232.5,156.5,233.3,157.2z M234.3,156.9h-0.5v-0.3h0.5V156.9z M234.6,153.1c-0.5,0.1,0.3,0.3-0.5,0.3v-0.3v-1h0.5
						C234.6,152.4,234.6,152.8,234.6,153.1z M236.9,162.4c0.1,0,0.1,0,0.2,0c0.5,0.3-0.5,0.4,0,0.7c-0.6,0.1-1.1-0.3-0.5-0.4
						C236.9,162.9,236.7,162.5,236.9,162.4z M236.8,162v0.1c-0.3,0.1-0.5,0.2-0.6,0c0.3-0.2,0.1-0.5,0.5-0.9
						C236.7,161.5,236.8,161.7,236.8,162c-0.1-0.1-0.2-0.1-0.2,0C236.7,162,236.7,162,236.8,162z M236.6,160.2c0,0.1,0,0.2,0,0.3
						C236.3,160.5,236.4,160.3,236.6,160.2z M236.5,159c-0.2-0.1-0.2-0.2,0-0.2V159z M236.5,158.2c0,0.1,0,0.1,0,0.2
						c-0.1,0-0.1,0-0.2-0.1C236.4,158.3,236.5,158.2,236.5,158.2z M236.5,159.3L236.5,159.3c-0.1,0-0.1,0-0.2,0
						C236.4,159.3,236.4,159.3,236.5,159.3z M236.5,159.8c0,0.1,0,0.2,0,0.2c-0.1,0-0.1,0-0.2,0C236.3,160,236.4,159.9,236.5,159.8z
						 M236.5,160.7L236.5,160.7c0.1,0.2,0.1,0.4,0.2,0.5h-0.6C236.2,160.9,236.1,160.8,236.5,160.7z M237.2,169h-0.7
						C236.2,168.8,237.6,168.7,237.2,169z M236.8,168.1c-0.5-0.3,0.2-0.5-0.3-0.9c0.2-0.3,0.1-0.4-0.3-0.8c0.3-0.1-0.1-0.2,0.5-0.3
						c-0.6-0.3-0.3-1,0-1.5c-0.6-0.1-0.7-0.5,0.2-0.5c-0.3,0.6,0.8,1.1-0.2,1.7c0.3,0.1,0.5,0.2,0.5,0.4c-0.2,1,0,1.5,0.1,2.5
						C236,168.7,236.9,168.4,236.8,168.1z M237.1,163.7c-0.3,0-0.1,0.1,0,0.2c-0.3,0-0.5,0.1-0.7,0.1c-0.4-0.2,0.4-0.7-0.3-1
						c0.5,0.2,1.3,0.1,1.2,0.5C236.4,163.4,236.5,163.5,237.1,163.7z M239.6,156.9v-1.2c0.1,0.6,0.1,1.1,0.1,1.6c0,0-0.1,0-0.3,0
						C239.3,157.1,239.4,157,239.6,156.9z M239.4,158.1c0.2-0.3-0.4-0.3-0.2-0.5c-0.3-0.1,0.3-0.2,0.5-0.2c0,0.3,0,0.6-0.1,1
						C239.4,158.3,238.9,158.2,239.4,158.1z M241.6,153.2c0-0.2,0-0.4,0.1-0.5C241.8,152.9,241.7,153,241.6,153.2z M241.8,152.7
						c-0.1-0.1-0.2-0.3-0.2-0.5h0.3C241.8,152.3,241.8,152.5,241.8,152.7z M250.9,157.7h0.5v0.3h-0.5V157.7z M251.3,171.5
						c0,0.1,0,0.2,0,0.4c-0.1,0-0.3-0.1-0.2-0.2S251.2,171.6,251.3,171.5z M251.1,170.8c0.1,0,0.1,0,0.2,0c0,0.1,0,0.1,0,0.2
						C251.3,170.9,251.2,170.9,251.1,170.8z M251.4,173.5c0,0.2,0,0.3,0,0.5C251.1,173.9,250.8,173.6,251.4,173.5z M251.1,158.3
						c0.3,0.1,0.1,0.3-0.2,0.4C251,158.6,250.6,158.3,251.1,158.3z M250.9,159.5c0.1-0.2-0.3-0.5,0.2-0.6v0.8c-0.4,0-0.2,0.2,0,0.3
						C250.1,159.9,250.9,159.6,250.9,159.5z M250.6,160.5c0.1-0.2,0-0.3-0.2-0.4C251.7,159.9,250.7,160.7,250.6,160.5z M250.4,163.3
						c-0.1,0.2,0.3,0.6-0.2,0.7C250.2,163.8,249.6,163.4,250.4,163.3z M249.8,166.6c0.1-0.3,0-0.5,0.2-0.5
						C250.4,166.2,250.2,166.5,249.8,166.6h0.5v0.3h-0.5V166.6z M250.2,165.6C249.9,166.7,249.9,165.1,250.2,165.6L250.2,165.6z
						 M250.2,167.4c-0.4,0.6,0.2,1-0.1,1.4c0.4,0,0,0.1,0,0.2c0,0.3,0,0.5,0,0.8c0.2,0.2-0.2,0.7-0.7,0.4c0.5-0.2,0-0.7,0.2-1.1
						c-0.1-0.2,0.3-0.2,0.2-0.3c-0.4-0.2,0.4-0.7-0.3-1c0.4,0,0.2-0.2,0.3-0.4c-0.1,0-0.1,0-0.2,0c0.6,0-0.2-0.5,0.7-0.3
						c0.1,0.1-0.1,0.2-0.3,0.3C250.1,167.4,250.2,167.4,250.2,167.4z M249.8,165.2c0.1-0.2,0.1-0.4,0.7-0.3
						C250.5,165.1,250.4,165.3,249.8,165.2z M250,164.8c0.1-0.2-0.3-0.6,0.5-0.7C250.3,164.4,250.9,164.9,250,164.8z M250.2,163.1
						c0.1-0.3,0.2-0.4,0-0.6c0-0.2,0.2-0.3,0.5-0.3c0,0.1,0,0.3-0.5,0.3C250.9,162.4,250.9,163.2,250.2,163.1z M250.4,162.1
						c0.1-0.3-0.6-0.3,0.2-0.4C250.5,161.9,251.2,162,250.4,162.1z M251.5,176.8c-0.4,0-0.6-0.1-0.6-0.3c0.3,0,0.5-0.1,0.6-0.1
						C251.5,176.5,251.5,176.6,251.5,176.8z M251.1,155.8c0.1-0.1,0.2-0.2,0.2-0.2c0.1,0,0.2,0.1,0.3,0.1
						C251.5,155.7,251.4,155.8,251.1,155.8z M252,170.5C252,170.4,252.1,170.4,252,170.5C252.1,170.4,252.1,170.5,252,170.5z
						 M252.8,163.3c0.1-1,0.1-1.9,0.1-2.9c0.1,0,0.1,0,0.2,0C253.2,161.5,253,162.4,252.8,163.3z M264.2,16.3
						c-0.1-0.1-0.6-0.4,0-0.4c-0.6,0.1-0.6-0.4-0.2-0.4c0.1,0.1,0.3,0.2,0.2,0.4C264,16.1,265,16.3,264.2,16.3z M271.6,154.2
						c-0.1-0.3-0.5-0.4,0.2-0.4C272.1,153.9,271.9,154.1,271.6,154.2z M270.7,152.2h0.9c-0.1,0-0.3,0.1-0.3,0.2
						c0.9-0.1,0.4,0.2,0,0.2C270.3,152.6,270.6,152.4,270.7,152.2z M271.3,156.5c-0.1-0.2,0.1-0.3,0.5-0.4
						C271.8,156.3,272.1,156.6,271.3,156.5z M271.6,156.1c-0.1,0.1-0.2-0.1-0.2-0.1c0,0.1,0.4-0.5,0.5-0.4
						C272,155.8,271.9,155.9,271.6,156.1z M272,155.1c-0.2-0.1,0,0.6-0.7,0.4c0.6,0,0.1-0.4,0-0.4h0.5
						C271.9,155,272.1,155,272,155.1z M272.5,153.1c-0.3-0.2-0.3-0.6-0.1-0.9h0.4C272.9,152.5,272.8,152.9,272.5,153.1z
						 M273.2,155.4c0.3-0.7,0.2-1.5,0.2-2.6c-0.1-0.2,0.4-0.2,0.2-0.4v-0.2h0.7c-0.1,0.2-0.3,0.3-0.5,0.4c0.8,0.7-0.1,1.2,0.7,1.9
						C273.9,154.7,274.5,155.3,273.2,155.4z M275.7,154.2h-0.5v-0.3h0.5V154.2z M292.9,152.4c-0.2,0.2,0.5,0.8-0.5,0.8
						C292.9,152.8,292.2,152.4,292.9,152.4z M292.2,155.1h0.5v0.3h-0.5V155.1z M292.2,156.8c0.1-0.2-0.3-0.5,0.2-0.6v0.8
						c-0.4,0-0.2,0.2,0,0.3C291.4,157.3,292.3,157,292.2,156.8z M291.1,163.9c0.1-0.3,0-0.4,0.2-0.5
						C291.7,163.5,291.5,163.8,291.1,163.9z M291.6,163C291.2,164,291.2,162.4,291.6,163L291.6,163z M291.1,164h0.5v0.3h-0.5V164z
						 M291.5,164.7c-0.3,0.7,0.2,1-0.1,1.4c0.4,0,0,0.1,0,0.2c0,0.3,0,0.5,0,0.8c0.2,0.2-0.2,0.7-0.7,0.4c0.5-0.2,0-0.7,0.2-1.1
						c-0.1-0.2,0.3-0.2,0.2-0.3c-0.4-0.2,0.4-0.7-0.3-1c0.4,0,0.2-0.2,0.2-0.3c0,0-0.1,0-0.1-0.1c0.6,0-0.2-0.5,0.7-0.3
						C291.7,164.5,291.6,164.6,291.5,164.7C291.5,164.7,291.5,164.7,291.5,164.7z M291.1,162.6c0.1-0.2,0.1-0.4,0.7-0.3
						C291.9,162.4,291.7,162.6,291.1,162.6z M291.3,162.2c0.1-0.2-0.3-0.6,0.5-0.7C291.6,161.7,292.3,162.2,291.3,162.2z
						 M291.6,161.3c0-0.2-0.6-0.6,0.2-0.7C291.7,160.8,292.1,161.2,291.6,161.3z M291.5,160.4c0.1-0.3,0.2-0.4,0-0.6
						c0-0.2,0.2-0.3,0.5-0.3c0,0.1,0,0.3-0.5,0.3C292.3,159.7,292.3,160.5,291.5,160.4z M291.7,159.4c0.1-0.3-0.6-0.3,0.2-0.4
						C291.9,159.3,292.6,159.3,291.7,159.4z M293.1,172.7v0.2c0,0.1,0.1,0.2-0.2,0.2C293,173,292.6,172.7,293.1,172.7z M293,173.8
						v0.4c-0.6,0-0.8-0.1-0.7-0.3C292.6,173.9,292.8,173.8,293,173.8z M292,157.8c0.1-0.2,0-0.3-0.2-0.4
						C293.1,157.2,292,158,292,157.8z M292.2,156c0.1-0.1-0.3-0.4,0.2-0.4C292.7,155.7,292.5,155.9,292.2,156z M293,169.5
						c0.2-0.3-0.7-0.2-0.5-0.5c0-0.2,0.6-0.1,0.5-0.3c-0.1-0.2-0.3-0.3-0.5-0.5c0.9,0,0-0.5,0.9-0.4
						C293.1,168.3,293.3,169.1,293,169.5z M293.5,163.6c-1.1,0.1-0.6-0.4-0.7-0.7c0.5-0.2,0.1-0.6,0.2-0.9c-0.1-0.2,0.4-0.2,0.2-0.4
						v-0.9c0.5-0.4,0-1.2,0.5-1.7c0.1-0.5-0.4-1.2,0.7-1.3C294.7,160.1,293.6,161.2,293.5,163.6z M309.6,22.6l-0.2,0.1
						C309.4,22.3,309.5,22.5,309.6,22.6z M328.3,17.3c0.2-0.9,0-0.8,0.3-1.7c0.7-0.1,0.4,0.2,0.5,0.4c0.1,0.2,0.5,0.2,0.5,0.5
						C329,16.8,329.9,17.2,328.3,17.3z M336.4,153.5c-0.1,0-0.3,0-0.2,0.1c0.2,0,0.5,0,0.5,0.1c-0.5-0.1-0.9,0.2-1,0
						C336,153.7,336,153.2,336.4,153.5z M336.2,155c0-0.2-0.1-0.3-0.2-0.4h0.7C336.7,154.8,336.6,154.9,336.2,155h0.5v0.3h-0.5
						c-0.1,0-0.3,0-0.2-0.1c0.1,0,0.3,0,0.2-0.1c-0.2,0-0.5,0-0.5-0.1H336.2z M336,157.3c0-0.3,0.5-0.6-0.2-0.8c1,0-0.2-0.5,0.4-0.9
						c-0.2,0-0.5,0-0.5-0.1c0.8-0.1,0.6,0.2,1,0.2c0.1,0.8-0.1,1.3,0.3,1.8C335.7,157.6,337,157.3,336,157.3z M363.9,16.3
						c-0.1-0.1-0.6-0.4,0-0.4c-0.6,0.1-0.6-0.4-0.2-0.4c0.1,0.1,0.3,0.2,0.2,0.4C363.7,16.1,364.6,16.3,363.9,16.3z M371.3,154.2
						c-0.1-0.3-0.5-0.4,0.2-0.4C371.8,153.9,371.6,154.1,371.3,154.2z M370.4,152.2h0.9c-0.1,0-0.3,0.1-0.3,0.2
						c0.8-0.1,0.4,0.2,0,0.2C370,152.6,370.3,152.4,370.4,152.2z M371,156.5c-0.1-0.2,0.1-0.3,0.5-0.4
						C371.4,156.3,371.7,156.6,371,156.5z M371.2,156.1c-0.1,0.1-0.2-0.1-0.2-0.1c0,0.1,0.4-0.5,0.5-0.4
						C371.6,155.8,371.6,155.9,371.2,156.1z M371,155.5c0.6,0,0.1-0.4,0-0.4h0.5c0.1-0.1,0.2-0.1,0.2,0
						C371.5,155,371.7,155.7,371,155.5z M372.2,153.1c-0.3-0.2-0.3-0.6-0.1-0.9h0.4C372.5,152.5,372.5,152.9,372.2,153.1z
						 M372.9,155.4c0.3-0.7,0.2-1.5,0.2-2.6c-0.1-0.2,0.4-0.2,0.2-0.4v-0.2h0.7c-0.1,0.2-0.3,0.3-0.5,0.4c0.8,0.7-0.1,1.2,0.7,1.9
						C373.6,154.7,374.1,155.3,372.9,155.4z M375.3,154.2h-0.5v-0.3h0.5V154.2z M391.4,160.6c-0.1,0.2,0.3,0.6-0.2,0.7
						C391.2,161.1,390.6,160.7,391.4,160.6z M391,163.4c0.4,0.1,0.2,0.4-0.2,0.5C390.9,163.6,390.8,163.5,391,163.4z M391.2,163
						C390.9,164,390.9,162.4,391.2,163L391.2,163z M390.8,164h0.5v0.3h-0.5V164z M391.2,164.7C391.2,164.7,391.2,164.7,391.2,164.7
						c-0.4,0.7,0.2,1-0.1,1.4c0.4,0,0,0.1,0,0.2c0,0.3,0,0.5,0,0.8c0.2,0.2-0.2,0.7-0.7,0.4c0.5-0.2,0-0.7,0.2-1.1
						c-0.1-0.2,0.3-0.2,0.2-0.3c-0.4-0.2,0.4-0.7-0.3-1c0.4,0,0.2-0.2,0.2-0.3c-0.1,0-0.1,0-0.1-0.1c0.6,0-0.2-0.5,0.7-0.3
						C391.4,164.5,391.3,164.6,391.2,164.7z M390.8,162.6c0.1-0.2,0.1-0.4,0.7-0.3C391.5,162.4,391.4,162.6,390.8,162.6z M391,162.2
						c0.1-0.2-0.3-0.6,0.5-0.7C391.3,161.7,391.9,162.2,391,162.2z M391.2,160.4c0.1-0.3,0.2-0.4,0-0.6c0-0.2,0.2-0.3,0.5-0.3
						c0,0.1,0,0.3-0.5,0.3C391.9,159.7,391.9,160.5,391.2,160.4z M391.4,159.4c0.1-0.3-0.6-0.3,0.2-0.4
						C391.5,159.3,392.2,159.3,391.4,159.4z M391.6,157.8c0.1-0.2,0-0.3-0.2-0.4C392.7,157.2,391.7,158,391.6,157.8z M392.1,157
						c-0.4,0-0.2,0.2,0,0.3c-1,0-0.2-0.3-0.2-0.5c0.1-0.2-0.3-0.5,0.2-0.6V157z M391.9,156c0.1-0.1-0.3-0.4,0.2-0.4
						C392.4,155.7,392.2,155.9,391.9,156z M392.3,155.4h-0.5v-0.3h0.5V155.4z M392.1,153.2c0.5-0.4-0.3-0.8,0.5-0.8
						C392.4,152.6,393.1,153.2,392.1,153.2z M402.1,107c-0.1,0-0.3,0-0.2,0.1c0.2,0.2-0.3,0.6-0.2,0.2
						C401.4,107.1,401.8,106.7,402.1,107z M397.7,123.8c-0.1-0.2,0.1-1,0.3-0.5c-0.2,0.3,0.5,1-0.5,0.9
						C397.5,124,397.8,124,397.7,123.8z M395.8,134.9c-0.2,0.1,0.4,0.7-0.5,0.6C395.5,135.2,395,135,395.8,134.9z M395.3,135.7
						c0-0.1,0.1-0.1,0.4-0.1v0.2c-0.2,0-0.3,0.1-0.4,0.1V135.7z M395.3,136.4h0.2v0.4h-0.2V136.4z M395.8,145.1
						c-0.2,0-0.3,0.1-0.5,0.1v-0.1c0-0.1,0.1-0.2,0.5-0.2V145.1z M396,144.4h-0.5v-0.3h0.5V144.4z M396,134.5
						c-0.7,0.1-0.5-0.3-0.5-0.5c0-0.2,0.1-0.5,0.5-0.3V134.5z M395.8,133.5c0.1-0.7,0.1-0.9,0-1.6c0.6,0.1-0.1-0.4,0.7-0.3
						C395.9,132.1,396.8,133.4,395.8,133.5z M396.3,131.5c-0.4-0.3,0.2-0.7,0-1.5c0.7-0.1,0.2,0.2,0.2,0.3c0.2,0.3,0.4,0.2,0.1,0.5
						C396.4,131,396.9,131.5,396.3,131.5z M396.4,129.7c0-0.2,0.4-0.2,0-0.4C397.2,129.2,397.1,129.8,396.4,129.7z M396.7,129.2
						c-0.1-0.2-0.1-0.9,0.3-1.2c-0.1-0.2-0.4-0.5,0.3-0.5C397.2,128.4,397.3,128.6,396.7,129.2z M397.5,126.5
						c-0.2,0.3,0.5,1-0.5,0.9c0-0.9,0.4-1.9,0.6-3.1c0.9,0.1,0,0.3,0.5,0.6C397.4,125.4,397.9,126.1,397.5,126.5z M398.3,123.1
						c-0.9,0-0.6-0.9,0-0.8V123.1z M398.1,122.2c0-0.1-0.3-1,0.5-1.1C398.3,121.6,398.9,121.9,398.1,122.2z M398.3,121
						c-0.1-0.6,0.1-1.5,0.5-2.2C398.9,119.3,399.1,120.6,398.3,121z M398.6,118.7c0.1-0.3-0.2-0.8,0.5-0.8
						C398.9,118.2,399.6,118.8,398.6,118.7z M398.9,117.5c0-0.3,0.4-0.2,0-0.4C399.6,117,399.6,117.6,398.9,117.5z M400.3,113.6
						c0,0.1-0.1,0.2-0.1,0.2l-0.1,0.1c0,0,0-0.2,0-0.4c-0.1,0.1-0.2,0.3-0.4,0.4c0.4,0.5,0.1,0.7,0,1.2v1.1
						c-0.1,0.3,0.1,0.7-0.7,0.8c0.3-1.1,0.5-2,0.3-3.1c0.1-0.2,0.5-0.2,0.5-0.4v0.3c0,0,0-0.1,0.1-0.1c0.1-0.1,0.2-0.2,0.2-0.3
						c0.1-0.3-0.3-0.8,0.5-0.8C400.5,112.9,400.4,113.3,400.3,113.6z M400.3,112.1c0.4,0,0.2-0.6,0.7-0.3
						C400.6,111.8,400.8,112.5,400.3,112.1z M400.8,111.3c-0.2-0.3,0-0.9,0.5-1.2C401.1,110.6,401.3,110.9,400.8,111.3z
						 M401.3,109.2c0.1-0.7-0.2-1.2,0.5-1.5c-0.1,0.4,0.2,0.9-0.3,1.1C401.6,108.9,401.6,109.5,401.3,109.2z M402.3,114.5
						c-0.9,0.1-0.3-0.5-0.5-0.7c0.2,0,0.3-0.1,0.3-0.2v0.5c0.1,0,0.2,0,0.3,0C402.6,114.2,402.6,114.4,402.3,114.5z"/>
				</g>
				<path class="st0" d="M15.7,1.7c0-0.2-0.2-0.4-0.5-0.4c-0.1,0.2-0.3,0.2-0.2,0.5L15.7,1.7z"/>
				<path class="st0" d="M14.1,2.9c0.3,0,0.3,0.2,0.5,0.3c-0.5,0.1-0.1,0.6-0.2,0.8c1,0,0.2-0.7,0.4-1.1c0-0.1-0.2-0.1-0.2-0.2
					c0.6-0.1-0.3-0.2,0-0.5C13.5,2.3,14.8,2.7,14.1,2.9z"/>
				<path class="st0" d="M13.5,6h0.7c-0.2-0.2-0.3-1.1-1-0.7C14,5.4,13.2,5.6,13.5,6z"/>
				<path class="st0" d="M13.2,4.5c0.6,0.2-0.4,0.6,0.5,0.6c0.3-0.3-0.2-1-0.5-1.5C12.7,3.8,13.4,4,13.2,4.5z"/>
				<path class="st0" d="M12,5.1c-0.2,0.1-0.3,0.3-0.2,0.6c0.5,0.1-0.1,0.7,0.7,0.6c0-0.4-0.1-1-0.3-1.7c-0.5,0-0.5,0.2-0.7,0.3
					C11.4,5,11.8,5,12,5.1z"/>
				<path class="st0" d="M8.8,4.4c0.1-0.4,1-1.2,0.4-1.5c-0.6,0.6-0.7,1-1.1,1.9c0.4-0.1,1-0.1,1.2-0.3C9.1,4.5,8.8,4.5,8.8,4.4z"/>
				<path class="st0" d="M8.6,5.2c-0.4,0,0-0.2,0-0.4H8.1C7.3,5,8.3,5.7,8.6,5.2z"/>
				
					<rect x="8.1" y="5" transform="matrix(-2.939902e-02 -0.9996 0.9996 -2.939902e-02 2.9162 13.8474)" class="st0" width="0.2" height="1"/>
				<path class="st0" d="M10.8,6.8c0-0.1,0.3-0.1,0.5,0c-0.5-0.4,0.3-0.7-0.3-1C10.9,6.2,10.4,6.7,10.8,6.8z"/>
			</g>
		</g>
	</g>
</g>
<g id="Layer_3_1_">
</g>
</svg>
