<?xml version="1.0" encoding="utf-8"?>
<!-- Generator: Adobe Illustrator 16.0.0, SVG Export Plug-In . SVG Version: 6.00 Build 0)  -->
<!DOCTYPE svg PUBLIC "-//W3C//DTD SVG 1.1//EN" "http://www.w3.org/Graphics/SVG/1.1/DTD/svg11.dtd">
<svg version="1.1" xmlns="http://www.w3.org/2000/svg" xmlns:xlink="http://www.w3.org/1999/xlink" x="0px" y="0px" width="413px"
	 height="66px" viewBox="0 0 413 66" style="enable-background:new 0 0 413 66;" xml:space="preserve">
<style type="text/css">
<![CDATA[
	.st0{fill:#E0DEC8;}
	.st1{clip-path:url(#SVGID_16_);fill:none;}
	.st2{clip-path:url(#SVGID_2_);}
	.st3{clip-path:url(#SVGID_4_);}
	.st4{clip-path:url(#SVGID_6_);}
	.st5{clip-path:url(#SVGID_8_);}
	.st6{clip-path:url(#SVGID_18_);fill:none;}
	.st7{fill:none;}
	.st8{fill:#695845;}
	.st9{fill:#695846;}
	.st10{fill:#D1CDB3;}
	.st11{clip-path:url(#SVGID_10_);}
	.st12{clip-path:url(#SVGID_12_);}
	.st13{clip-path:url(#SVGID_14_);}
	.st14{clip-path:url(#SVGID_16_);}
	.st15{clip-path:url(#SVGID_18_);}
	.st16{fill:#DAD7BC;}
]]>
</style>
<g id="Layer_1">
</g>
<g id="Layer_2">
</g>
<g id="Layer_3_1_">
	<g>
		<defs>
			<rect id="SVGID_9_" x="0.1" y="-2.7" width="435.2" height="68.7"/>
		</defs>
		<clipPath id="SVGID_2_">
			<use xlink:href="#SVGID_9_"  style="overflow:visible;"/>
		</clipPath>
		<g class="st2">
			<g id="Layer_3_5_">
				<path class="st10" d="M23.8,34.1c0.4,0.1,0.5,0,0.9-0.1c0.3-0.1,0.2-0.1,0.9-0.3c0.8-0.2,0.8-0.3,1.3-0.4
					c0.5-0.1,0.2,0.1,0.8-0.2c0.6-0.2,0.6-0.2,0.6-0.2s-0.2-0.3,0,0c0.2,0.3-0.1,0.2,0.2,0.3c0.2,0.1,0.3-0.1,0.3-0.1
					s0.1-0.3,0.4-0.2c0.4,0.1,0.2,0.2,0.5,0.3c0.2,0.1,0.2,0.1,0.2,0.1s0.1-0.5,0.4-0.6c0.3-0.1,0.2-0.6,0.5-0.5
					c0.4,0.1,0.4-0.1,0.7,0.4c0.3,0.4,0.5,0.7,0.7,0.7c0.2,0.1,0.2,0,0.7,0.1c0.4,0.1,0.7-0.1,1.3,0.1c0.5,0.2,0.9,0.2,1,0.2
					c0.2,0.1,0.2,0,0.5,0c0.3,0,0.5-0.1,0.5-0.1l0.2-0.3c0,0-0.4-0.4,0.4-0.2c0.8,0.2,0.8,0.2,0.8,0.2s0.1,0.2,0.2,0.2
					c0.2,0,0.4,0.1,0.5,0c0.2-0.1-0.4,0.1,0.2-0.1c0.5-0.2,0.1-0.3,0.5-0.2c0.5,0.1,0.1,0.1,0.5,0.1c0.4,0.1,0.4,0.1,0.4,0.1
					l0.6-0.1c0,0-0.1-0.4,0.5-0.4c0.5,0,0.6-0.2,1.1-0.1c0.5,0.1,0.2-0.2,0.8,0c0.6,0.2,0.4-0.1,0.9,0.2c0.5,0.2,0.1,0.2,0.5,0.2
					c0.5,0.1,0.3,0.1,1.1,0.1c0.8,0,0.9,0,1.2,0c0.3,0-0.1-0.2,0.5-0.1c0.5,0.1,0.6-0.1,0.9,0.1c0.3,0.2-0.2,0,0.3,0.2
					c0.5,0.2,0.6,0.2,0.9,0.2s0.2-0.4,0.7-0.1c0.4,0.2,0.2,0.3,0.5,0.5c0.2,0.2,0.2,0.2,0.8,0.3c0.5,0.1,0.5,0.1,0.5,0.1l0.5-0.6
					c0,0,0-0.1,0.5,0c0.5,0.1,0.2,0.1,0.5,0.1c0.3,0,0.2-0.7,0.5-0.7c0.3,0.1,0.8,0.1,0.8,0.1l0.3-0.2c0,0,0.1-0.2,0.3-0.2
					c0.2-0.1-0.2,0,0.2-0.1c0.5-0.1,0.9,0.2,1,0.2c0.2,0.1-0.2-0.1,0.2,0.1c0.3,0.2,0.4-0.2,0.6-0.2c0.2-0.1,0.1-0.4,0.5-0.4
					c0.4-0.1,0.2-0.4,0.8-0.2c0.5,0.2,0.3,0.2,0.8,0.2c0.5,0.1,0.7,0,0.9,0.1c0.2,0.1,0.4-0.3,0.5-0.4c0.2-0.1,0.2-0.2,0.4-0.3
					c0.2-0.1,0.1-0.2,0.5-0.1c0.5,0.2,0.4-0.1,0.7,0.1c0.2,0.2,0.2,0.2,0.5,0.2c0.2,0,0-0.4,0.4-0.5c0.4-0.1,0.3-0.4,0.6-0.4
					c0.3,0,0.4-0.2,0.7-0.1c0.3,0.1-0.2-0.2,0.3,0.1c0.5,0.3,0.5,0.2,0.8,0.3c0.2,0.1,0.4,0.1,0.5-0.1c0.2-0.2-0.5-0.6,0.3-0.5
					c0.8,0.1,0.7-0.1,1.3-0.1c0.5,0,0.5,0,0.9,0c0.4,0,0.4-0.2,0.5,0c0.2,0.2-0.5,0.2,0.2,0.2c0.8,0.1,0.8-0.1,0.9-0.2
					c0.2-0.1,0.4-0.4,0.4-0.4s-0.1-0.2,0.5-0.2c0.5-0.1,0.1-0.2,0.8-0.2c0.7,0,0.6-0.1,1-0.1s0.5-0.6,0.9-0.4
					c0.5,0.1,1.2-0.2,1.6-0.1c0.4,0.1,0.2-0.1,0.8,0.1c0.5,0.2,0.4-0.1,0.9,0.1c0.5,0.2,0.9,0.2,1,0.2c0.2,0,0.4,0.1,0.5,0
					c0.2-0.1,0.3-0.1,0.5-0.1s0.6-0.1,0.6-0.1l0.5-0.7c0,0,0.2-0.1,0.4,0.1c0.2,0.2,0.4,0.4,0.4,0.4s-0.4,0,0.2,0.1
					c0.5,0.1,1.3-0.1,1.5,0c0.2,0.1,0.5-0.1,0.5-0.1s-0.7-0.4,0.4-0.2c1,0.2,0.9,0.1,1,0.2c0.1,0.1-0.1,0.1,0.4,0.2
					c0.5,0.1,0.5,0,0.9-0.1c0.3-0.1,0.2-0.2,0.5-0.2c0.4,0.1,0.5-0.1,0.8,0c0.3,0.1,1.3,0,1.5,0c0.2,0-0.2,0.2,0.2,0
					c0.3-0.2-0.2-0.6,0.5-0.5c0.7,0.1,0.3-0.2,0.7,0.1c0.4,0.2,0.1,0.2,0.8,0.3c0.7,0.1,0.9-0.1,1.3,0c0.2,0.1,0.3-0.1,0.7,0
					c0.4,0.1,1-0.1,1.5-0.2c0.5-0.1,0.2,0,0.5-0.1c0.2-0.1-0.2,0.1,0.2-0.1c0.5-0.1-0.2-0.6,1.2-0.2c1.3,0.4,1.6,0.4,1.6,0.6
					c0.1,0.2-0.2,0.4,0.2,0.4c0.4,0,0.4-0.4,0.6-0.4c0.2-0.1-0.2-0.3,0.5-0.2c0.6,0.1-0.5-1.2,0.6,0.1c1.1,1.3,1.1,1.3,1.1,1.3
					s0.1,0.1,0.3,0.2c0.2,0.1,1.3,0.1,1.3,0.1s0.5,0,0.7,0.1c0.2,0.1,0.2-0.1,0.5,0c0.4,0.1,1,0,1,0s0.5-0.1,0.7-0.2
					c0.2-0.2,0.2-0.1,0.5-0.2c0.2-0.2,0.2-0.2,0.5-0.4c0.4-0.2-0.2-0.1,0.4-0.2c0.5-0.1,0.7-0.1,0.9-0.1c0.2,0,0.5-0.2,0.8-0.1
					c0.3,0.1-0.1,0.1,0.3,0.1c0.4,0.1,0.2-0.1,0.7,0.1c0.5,0.2,0.4,0,0.8,0.1c0.4,0.1,0.9,0.1,1.1,0s0.5-0.5,0.7-0.6
					c0.2-0.1,0.2-0.4,0.6-0.6c0.4-0.1-0.1,0,0.8-0.2c0.8-0.2,1.4-0.6,1.7-0.6c0.3-0.1,0.1-0.2,0.5-0.2c0.4,0.1,0.5,0,0.8,0
					c0.2,0,0.7-0.1,0.7-0.1l0.2-0.3c0,0,0.5-0.4,0.7-0.2s0.2,0.2,0.5,0.3c0.2,0.1,0.4,0.1,0.7-0.1c0.3-0.2,0.4-0.4,0.7-0.4
					c0.3,0.1-0.5-0.5,0.5-0.1c1.1,0.4,0.9,0.2,1.1,0.4c0.2,0.2,0.5,0.3,0.5,0.3s0.2-0.1,0.9-0.1c0.7,0,0.7-0.2,1.1-0.1
					c0.4,0.1,0.4-0.1,1.3,0.2c0.8,0.2,0.9-0.1,1.4,0.2c0.5,0.2,0.4-0.1,0.7,0.2c0.3,0.2,0.4,0.4,0.8,0.5c0.4,0.1,0.7,0.2,1,0.2
					c0.4,0,0.6-0.1,0.9-0.1c0.2,0,0.7-0.1,0.7-0.1s-0.8-0.5,0.2-0.4c1,0.1,0.7-0.2,1,0.1c0.4,0.2-0.2-0.1,0.6,0.3
					c0.9,0.4,0.1-0.4,1.3,0.5c1.1,0.8,1.5,1,1.5,1s3.2,1.9,4.1,1.9c0.8,0,0.9,0.1,1.7,0.2c0.9,0.2,1.8,0.8,2.2,0.8
					c0.4,0.1,0.5,0.2,1.5,0.3c0.9,0.2,1.1,0.3,1.3,0.4c0.2,0.1,0.5,0.4,0.8,0.4c0.2,0,0.4,0.1,0.9-0.1c0.5-0.1,0.7-0.4,1.1-0.3
					c0.4,0.1,0.1-0.1,0.9-0.1c0.8,0,0.8-0.1,1.1-0.1c0.3,0,0.5-0.1,0.9-0.2c0.5-0.1,0.5-0.2,0.8-0.2c0.2-0.1,0.3,0,0.5-0.1
					c0.2-0.1,0.6-0.4,0.8-0.4c0.2,0,0.2-0.1,0.5-0.1c0.2,0,1.6-0.2,2-0.1c0.5,0.1,1.5,0.1,2,0.1c0.5,0,1.1-0.2,1.6,0.2
					c0.5,0.4,0.2,0.6,0.9,0.8c0.7,0.2,0,0.4,0.7,0.2c0.7-0.2,0.8-0.8,1.1-0.8c0.4,0,0.2-0.4,0.8-0.1c0.7,0.4,0.5,0.2,0.9,0.6
					c0.5,0.2,0.2,0.4,0.9,0.4c0.6,0.1,0.9-0.1,1.6-0.1c0.7,0,0.9,0.1,2.3,0c1.4-0.1,2.3-0.2,2.6-0.1c0.3,0.1,0.2-0.2,1.2,0
					c0.9,0.2,1,0,1.2,0.2c0.2,0.2-0.5-0.3,0.2,0.2c0.6,0.5,0.8,0.6,1.4,0.8c0.6,0.2,2.4,0.3,2.6,0.4c0.2,0.1-0.1,0.2,0.8,0.1
					c0.8-0.2,1.3-0.3,1.4-0.3c0.2,0,0.1,0.1,0.3,0.4c0.2,0.3-0.1,0.4,0.4,0.4c0.5,0,0.7-0.2,0.9-0.1c0.2,0.1,0.2-0.1,0.6,0.1
					c0.4,0.2-0.5-0.4,0.4,0.2c0.9,0.6,1,0.7,1.5,1c0.5,0.2,0.4,0.3,1,0.6c0.6,0.2,0.2,0.2,0.9,0.3s0.8,0.2,1.2,0.1
					c0.4-0.1,0.5-0.2,1.1-0.4c0.5-0.1,0.9-0.2,1.1-0.2c0.2,0.1,0.6-0.1,0.9,0.1c0.3,0.2-0.1,0.1,0.6,0.2c0.7,0.1,0.5,0.1,0.9-0.1
					c0.5-0.2,0.8-0.3,0.8-0.3s-0.2-0.3,0.7-0.2c0.9,0.2,0.5,0,1.2,0.2c0.6,0.2,0.7,0.2,1,0.2c0.4-0.1,0.5-0.8,1.1-0.8
					c0.6,0-0.2-0.2,0.6,0s1.9,0.7,2.2,0.6c0.3-0.1,0.5-0.2,1-0.2c0.5-0.1,0.7-0.1,1-0.2c0.3-0.2,0.4-0.3,0.5-0.2
					c0.2,0.1-0.4-0.1,0.5-0.1c0.9,0.1,0.6,0.1,0.9,0.1c0.5,0,0.2,0.2,0.5,0c0.2-0.2-0.6-0.2,0.2-0.2c0.9,0-0.2-0.1,0.9,0
					c1,0.1,0.9,0.1,1.4,0.2c0.5,0.1,0.6,0.1,0.8,0.1c0.2,0.1,0.9,0,0.9,0c0.5-0.2-0.1-0.4,0.9-0.2c0.9,0.2,1.2,0.2,1.4,0.3
					c0.2,0.1-0.1-0.1,0.8,0.2c0.9,0.3,1.3,0.2,1.5,0.2c0.2,0.1,1.6,0.4,1.6,0.4L218,38c0,0,0.2,0.1,0.7-0.2c0.5-0.2,0.4-0.2,0.5-0.2
					c0.2,0-0.5-0.3,0.2,0c0.7,0.3,0.9,0.5,1.3,0.6c0.2,0.1,0.3-0.1,0.8,0c0.5,0.1,0.7-0.1,0.9,0c0.2,0.1-0.1,0.2,0.5,0.3
					c0.5,0.1,0.5-0.1,0.8-0.2c0.2-0.1,0.5-0.4,0.9-0.4c0.5-0.1,0.6-0.4,1.1-0.4c0.5,0,0.5-0.1,0.9,0.1c0.3,0.1,0.2,0.1,0.8,0.1
					c0.6,0.1,0.8,0.2,1.3,0.1c0.6-0.2,0.6-0.2,1-0.2c0.5,0,0.9-0.1,1.4,0c0.5,0.1,0.5,0.2,0.9,0.2s0.3-0.4,1.2-0.3
					c0.9,0.1,0.9-0.1,1.8,0.2c0.9,0.2,1.6,0.1,1.8,0.4c0.2,0.2-0.4-0.5,0.2,0.2c0.6,0.7,0.2,0.7,0.9,0.8s2,0,2.5,0.2
					c0.5,0.2,0.5,0.2,1.1,0.3c0.5,0.2,0.5-0.1,1.1,0.4c0.7,0.5,0.4,0.6,0.9,0.8c0.5,0.2,0.9,0.1,1.3,0.2c0.3,0.1-0.2-0.6,0.3,0.1
					c0.5,0.6-1.1,0,0.5,0.7c1.6,0.7,0.4,0.3,0.4,0.3l2.2,0.3l1.3-0.1c0,0,0.6-0.1,0.9-0.2c0.3-0.1,0.8-0.2,1.4-0.2
					c0.6,0.1,0.5-0.2,1.1,0c0.5,0.2-0.1,0,0.5,0.2c0.6,0.2,0.2,0,0.8,0.1c0.5,0.1,0.7,0.1,1.1,0.1s0.2-0.1,0.7-0.1
					c0.6,0,0.2,0,1,0.1c0.8,0.1,0.5-0.1,0.9,0c0.5,0.1,0.4,0.2,0.7,0.3c0.3,0.1,0.6,0.2,1.4,0.2s0.4-0.1,1-0.1c0.6,0,0.1-0.2,0.6,0
					c0.5,0.2,0.7,0.2,1,0.1c0.3-0.2,0.2-0.4,0.6-0.3c0.4,0.1,0.5,0.1,0.9,0.2c0.4,0.2,0.1,0.2,0.4,0.2c0.4,0.1,1,0.1,1.5,0.1
					c0.5,0,0.2,0,0.5,0c0.3,0,3.1,0.2,3.4,0.2c0.2,0.1,1.2,0.2,1.3,0c0.1-0.2,0.2-0.2,0.8-0.6c0.5-0.4,0.8-0.8,1.3-1
					c0.5-0.2,0.2-0.2,0.9-0.2c0.7,0.1,0.5-0.1,1,0c0.5,0.1,0.5-0.2,0.8-0.3c0.2-0.2,0.2-0.3,0.5-0.3c0.4,0,0.4-0.1,0.7-0.1
					s0.1-0.2,0.8-0.1c0.7,0.1,0.9,0.1,1.1,0.1c0.2,0,0.2-0.1,0.6-0.2c0.4-0.2,0.2-0.3,0.7-0.2c0.5,0.1,0.1-0.5,0.9,0
					c0.2,0.2,1.6,0.6,1.6,0.6s0.2,0,0.8,0.1c0.6,0.1,1.3,0.1,1.5,0.2c0.2,0.1,0.2,0.1,0.9,0.3c0.8,0.2,0.7,0.2,1.3,0.4
					c0.5,0.2,0.7,0.2,1.3,0.2c0.6,0,1.7,0.4,2.9,0.4c1.2,0,2.2,0,2.4,0.1c0.3,0.1,0.4-0.4,0.8,0.2c0.4,0.6,0.6,0.9,0.9,1
					c0.3,0.2,1.2,0.5,1.4,0.6c0.2,0.1,1.4,0.6,2,0.7c0.6,0.2,1.1,0.2,1.3,0.3c0.2,0.1,0.2,0.2,1.6,0.4c1.5,0.2,2,0.4,2.2,0.6
					c0.2,0.2,0.5,0.4,0.7,0.4c0.2,0.1,0.3,0.2,0.9,0.2s1.1,0.2,1.6,0c0.5-0.2,1.1-0.1,1.4-0.2c0.4-0.1,0.9,0.1,1.6,0.1
					c0.7,0,1.6,0.1,1.7,0c0.2-0.1-0.7-0.1,0.5-0.2c1.1-0.1,2-0.2,2.3-0.2c0.3,0,0.9-0.2,1.7-0.1c0.9,0.1,1.6-0.1,2.4,0.1
					c0.8,0.2,2,0.3,2.5,0.5c0.5,0.2,1.1,0.2,1.1,0.2s-0.2-0.4,0.2-0.5c0.5-0.1,1-0.2,1-0.2c0,0.1,0.5-0.1,0.7,0.1s0.2,0.2,0.8,0.2
					s0.5,0.1,1.1,0c0.5-0.1,0.2-0.2,1.2-0.2s2.6,0.1,3.1,0.2c0.5,0.1,0.5-0.1,1.2,0.1c0.6,0.2,0,0,1.1,0.2c1.1,0.2,1.4,0.2,2,0.6
					c0.5,0.3,0.2,0.5,0.8,0.5c0.6,0-0.4-0.6,1.1,0c1.5,0.6,2.4,1.6,3.2,2.1c0.7,0.5,1.3,1.4,1.5,1.6c0.2,0.2,0.4,0.1,0.8,0.5
					c0.4,0.4,1.1,1,1.6,1.1c0.5,0.1,0.8,0,1.6,0.6c0.8,0.6,0.7,0.6,1.5,0.8c0.8,0.2,0.8,0.1,1.3,0.4c0.5,0.3,0.5,0.2,0.8,0.6
					s-0.1,0.4,0.6,0.9s-0.2,1.4-0.2,1.4l0.5,0.8v4h-381v-22L23.8,34.1z"/>
			</g>
			<path class="st7" d="M218.1,42.5C218.1,42.5,218.1,42.4,218.1,42.5C218.1,42.4,218.1,42.5,218.1,42.5z"/>
			<path class="st9" d="M251.3,44C251.3,44,251.3,43.9,251.3,44C251.3,43.9,251.3,44,251.3,44z"/>
			<path class="st9" d="M156.3,43.9C156.3,43.9,156.3,43.9,156.3,43.9L156.3,43.9C156.3,43.9,156.3,43.9,156.3,43.9z"/>
			<path class="st9" d="M156.3,43.9L156.3,43.9C156.4,44,156.4,44,156.3,43.9z"/>
			<path class="st9" d="M156.3,43.9C156.2,43.9,156.2,43.9,156.3,43.9L156.3,43.9z"/>
			<path class="st9" d="M411.6,44.3C411.6,44.3,411.6,44.3,411.6,44.3C411.6,44.3,411.6,44.3,411.6,44.3z"/>
			<path class="st9" d="M411.6,64.7c-0.5-0.3-0.5-0.2-1.3-0.4s-0.7-0.2-1.5-0.8c-0.8-0.6-1.1-0.5-1.6-0.6c-0.5-0.1-1.2-0.7-1.6-1.1
				c-0.4-0.4-0.5-0.3-0.8-0.5c-0.2-0.2-0.8-1.1-1.5-1.6c-0.8-0.5-1.7-1.5-3.2-2.1c-1.5-0.6-0.5,0-1.1,0c-0.5,0-0.2-0.2-0.8-0.5
				c-0.5-0.3-0.9-0.3-2-0.6c-1.1-0.2-0.5,0-1.1-0.2c-0.6-0.2-0.6,0-1.2-0.1c-0.5-0.2-2.2-0.2-3.1-0.2c-0.9-0.1-0.6,0.1-1.2,0.2
				c-0.5,0.1-0.5,0-1.1,0c-0.5,0-0.5-0.1-0.8-0.2c-0.2-0.2-0.7,0-0.7-0.1c0-0.1-0.5,0.1-1,0.2c-0.5,0.1-0.2,0.5-0.2,0.5
				s-0.5-0.1-1.1-0.2c-0.5-0.2-1.7-0.2-2.5-0.5c-0.8-0.2-1.6,0-2.4-0.1c-0.9-0.1-1.4,0.1-1.7,0.1c-0.3,0-1.2,0.1-2.3,0.2
				c-1.2,0.1-0.2,0.1-0.5,0.2c-0.2,0.1-1,0-1.7,0c-0.7,0-1.2-0.2-1.6-0.1c-0.3,0.1-0.9,0-1.4,0.2c-0.5,0.2-1,0-1.6,0
				c-0.5,0-0.6-0.2-0.9-0.2c-0.2,0-0.5-0.2-0.7-0.4c-0.2-0.2-0.7-0.3-2.2-0.6c-1.5-0.2-1.4-0.3-1.6-0.4c-0.2-0.1-0.7-0.2-1.3-0.3
				c-0.6-0.2-1.8-0.6-2-0.7c-0.2-0.1-1.1-0.4-1.4-0.6c-0.3-0.2-0.5-0.5-0.9-1c-0.4-0.6-0.5-0.1-0.8-0.2c-0.2-0.1-1.3-0.1-2.4-0.1
				c-1.2,0-2.3-0.4-2.9-0.4c-0.5,0-0.7,0-1.3-0.2c-0.6-0.2-0.5-0.2-1.3-0.4c-0.7-0.2-0.8-0.2-0.9-0.3c-0.2-0.1-0.9-0.1-1.5-0.2
				c-0.5-0.1-0.8-0.1-0.8-0.1s-1.3-0.5-1.6-0.6c-0.9-0.5-0.5,0.1-0.9,0c-0.5-0.1-0.3,0.1-0.7,0.2c-0.4,0.2-0.4,0.2-0.6,0.2
				c-0.2,0-0.4,0-1.1-0.1c-0.7-0.1-0.5,0.1-0.8,0.1c-0.3,0-0.3,0.1-0.7,0.1c-0.4,0-0.3,0.2-0.5,0.3c-0.2,0.2-0.2,0.4-0.8,0.3
				c-0.6-0.1-0.3,0.1-1,0c-0.6,0-0.4,0.1-0.9,0.2c-0.5,0.2-0.7,0.6-1.3,1c-0.6,0.4-0.7,0.5-0.8,0.6c-0.1,0.2-1,0.1-1.3,0
				c-0.2,0-3.1-0.2-3.4-0.2c-0.3,0,0,0-0.5,0s-1.1,0-1.5-0.1c-0.3-0.1,0,0-0.4-0.2c-0.4-0.2-0.5-0.2-0.9-0.2
				c-0.4-0.1-0.3,0.2-0.6,0.3c-0.3,0.2-0.5,0.2-1-0.1c-0.6-0.2,0,0-0.6,0c-0.6,0-0.2,0.1-1,0.1c-0.8,0-1.1-0.1-1.4-0.2
				c-0.3-0.1-0.2-0.2-0.7-0.3c-0.5-0.1-0.2,0.1-0.9,0c-0.8-0.1-0.5-0.1-1-0.1c-0.5,0-0.3,0.1-0.7,0.1c-0.4,0-0.5,0-1.1-0.1
				c-0.5-0.1-0.2,0.1-0.8-0.1c-0.6-0.2,0,0-0.6-0.2c-0.5-0.2-0.5,0.1-1.1,0c-0.6,0-1.1,0.2-1.4,0.2c-0.3,0.1-0.9,0.2-0.9,0.2
				l-1.3,0.1l-1.8-0.3c-0.1-0.1-0.3-0.2-0.8-0.4c-1.6-0.7,0-0.1-0.6-0.7c-0.5-0.6,0,0-0.3-0.1c-0.3-0.2-0.7-0.1-1.3-0.2
				c-0.5-0.2-0.2-0.3-0.9-0.8c-0.6-0.5-0.6-0.2-1.1-0.4c-0.5-0.2-0.5-0.1-1.1-0.3c-0.5-0.2-1.9-0.2-2.5-0.2
				c-0.6-0.1-0.2-0.1-0.9-0.8c-0.6-0.7,0,0-0.2-0.2c-0.2-0.3-0.9-0.2-1.8-0.4c-0.9-0.2-0.9-0.1-1.8-0.2c-0.9-0.1-0.8,0.3-1.2,0.3
				s-0.4-0.1-0.9-0.2c-0.6-0.1-0.9,0-1.4,0s-0.5,0.1-1,0.2c-0.5,0.2-0.7,0-1.3-0.1c-0.6,0-0.5,0-0.8-0.1c-0.3-0.2-0.3-0.1-0.9-0.1
				c-0.5,0-0.5,0.3-1.1,0.4c-0.5,0-0.7,0.3-0.9,0.4c-0.2,0.1-0.2,0.2-0.8,0.2c-0.6-0.1-0.3-0.2-0.5-0.3c-0.2-0.1-0.5,0.1-0.9,0
				c-0.5-0.1-0.5,0.1-0.8,0c-0.3-0.1-0.5-0.2-1.3-0.6c-0.8-0.3,0,0-0.2,0c-0.2,0,0,0-0.6,0.2c-0.5,0.3-0.7,0.2-0.7,0.2l-1.6-0.4
				c0,0-1.4-0.3-1.6-0.4c-0.2-0.1-0.6,0.1-1.5-0.2c-0.9-0.3-0.5-0.2-0.8-0.2c-0.2-0.1-0.5-0.1-1.4-0.3c-0.9-0.2-0.3,0-0.9,0.2
				c0,0-0.7,0.1-0.9,0c-0.2,0-0.2,0-0.8-0.1c-0.5-0.1-0.4-0.1-1.4-0.2c-1-0.1,0,0-0.9,0s0,0-0.2,0.2c-0.2,0.2,0,0-0.5,0
				c-0.4,0,0,0-0.9-0.1c-0.5,0-0.6,0-0.6,0.1c-0.1-0.1-0.2,0.1-0.5,0.2c-0.3,0.2-0.5,0.2-1,0.2c-0.5,0.1-0.7,0.2-1,0.2
				c-0.3,0.1-1.4-0.5-2.2-0.6c-0.8-0.2,0,0-0.6,0c-0.6,0-0.7,0.7-1.1,0.8c-0.3,0-0.4,0-1-0.2c-0.6-0.2-0.2-0.1-1.2-0.2
				c-0.9-0.2-0.7,0.2-0.7,0.2s-0.3,0.2-0.8,0.3c-0.5,0.2-0.2,0.2-0.9,0.1c-0.7-0.1-0.3,0-0.6-0.2c-0.3-0.2-0.7,0-0.9-0.1
				c-0.2-0.1-0.6,0.1-1.1,0.2c-0.6,0.2-0.7,0.3-1.1,0.4c-0.4,0.1-0.5,0-1.2-0.1c-0.7-0.1-0.3-0.1-0.9-0.3c-0.6-0.2-0.5-0.3-1-0.6
				c-0.5-0.2-0.5-0.4-1.5-1c-0.9-0.6,0,0-0.4-0.2s-0.4,0-0.6-0.1c-0.2-0.1-0.5,0.1-0.9,0.1s-0.2-0.1-0.4-0.4
				c-0.2-0.3-0.2-0.4-0.3-0.4c-0.2,0-0.6,0.2-1.4,0.3c-0.9,0.2-0.6,0-0.8-0.1c-0.2-0.1-2-0.2-2.6-0.4c-0.2-0.1-0.4-0.1-0.5-0.2
				c-0.1,0-0.3,0-0.4,0c-0.3,0-0.8,0-1.6,0s-0.3,0-0.6-0.1c-0.4-0.1-0.4-0.1-0.6-0.1s-0.3,0-0.7,0c-0.3,0-0.2,0-0.7,0.1
				c-0.6,0-0.3,0.2-0.7,0.3c-0.3,0.1-0.3,0.2-0.6,0.3c-0.3,0.1-0.4,0.3-0.4,0.3s-0.2,0.2-0.3,0.2c-0.2,0-0.3,0-0.6-0.1
				c-0.3-0.1,0,0-0.4-0.1c-0.4-0.1,0,0-0.5,0c-0.5,0-0.2,0.1-0.3,0.1c-0.3,0-0.2,0.3-0.3,0.3c-0.1,0.1,0,0.3-0.3,0.3
				c-0.3,0.1,0,0-0.3,0c-0.3,0-0.2,0-0.3-0.1c-0.2-0.1-0.3,0-0.7,0c-0.3,0-0.3,0.1-0.3,0.1l-0.5,0.1c0,0-1.6-0.1-1.8-0.3
				c-0.3-0.1-0.2,0-0.6-0.1c-0.5-0.1-0.2,0-0.5,0.1s-0.3,0.3-0.5,0.3c-0.2,0.1-0.6,0.4-0.6,0.4s-0.7,0.9-0.8,0.9
				c-0.1,0.1-0.5,0.2-0.7,0.2c-0.2,0-0.4-0.2-0.9-0.3c-0.4-0.2-0.3-0.2-1.4-0.5c-1.1-0.3,0,0-0.4-0.1c-0.4-0.1-0.6-0.3-0.9-0.4
				s-0.2,0-0.3,0c-0.1,0-0.3,0.1-0.3,0.2c-0.1,0-0.5,0.3-0.5,0.3s-0.3,0.2-0.8,0.2c-0.4,0-0.4,0.2-1,0.1c-0.5-0.1-0.6,0-0.9-0.1
				c-0.3-0.1-0.4-0.4-0.6-0.6c-0.2-0.2,0-0.2,1-0.6c1.1-0.4,0,0,0-0.1c0-0.1,0,0-0.4-0.1c-0.4-0.1-0.5,0-1.1,0c-0.6,0-0.5,0-0.7,0
				c-0.3,0-0.9,0-1.5-0.1c-0.7,0-0.3,0-0.9,0c-0.6,0-0.4,0-0.8,0c-0.4,0-0.3-0.1-1-0.3c-0.7-0.2-0.3-0.1-0.9-0.3
				c-0.5-0.3-0.3-0.1-0.9-0.4c-0.6-0.3-0.4,0-0.9,0s-0.2,0.1-0.6,0.2c-0.4,0.1,0,0-0.6,0.1c-0.6,0.1-0.5,0.2-1,0.3
				c-0.4,0.1-0.4,0.3-1,0.5c-0.6,0.2-0.4,0.3-0.7,0.3c-0.3,0.1-0.3,0-0.5,0s-0.3,0-0.7-0.1c-0.3-0.1-0.2,0-0.9,0s-0.3,0.3-0.6,0.4
				c-0.2,0.1-0.3,0-0.4,0c-0.2,0-0.3,0.1-0.6,0.2c-0.4,0.1-0.2,0.1-0.3,0.3c-0.1,0.2-0.2,0.3-0.3,0.5c-0.1,0.3-0.3,0.4-0.4,0.4
				c-0.1,0-0.5,0-0.5,0s-0.3,0-0.8-0.5c-0.4-0.5-0.4-0.3-0.7-0.3c-0.3-0.2-0.2,0-0.8-0.3c-0.6-0.3,0,0-0.6-0.3
				c-0.6-0.4-0.3-0.2-0.9-0.4c-0.6-0.3-0.3,0-0.6,0c-0.3-0.1-0.2,0-1-0.1c-0.8-0.2-0.4,0-1-0.1c-0.5-0.1-0.3,0.3-0.3,0.3
				s-0.7,0.4-1,0.4c-0.4,0-0.3,0.1-0.4,0.3c-0.2,0.2,0.1,0.5,0.1,0.5s0.4,0.7-0.2,0.6c-0.5,0-0.3-0.1-0.6-0.3
				c-0.4-0.3,0-0.2-0.4-0.4s-0.3-0.4-0.8-0.9c-0.5-0.5-0.3-0.4-0.4-0.8s0-0.4-0.2-0.8c-0.2-0.3,0,0-0.6-0.2c-0.6-0.2-0.3,0-0.9-0.1
				c-0.6-0.1-0.3,0-0.4,0.1c-0.1,0.1-0.1,0.3-0.2,0.3c-0.1,0.1-0.3,0.3-0.5,0.3s-0.2,0.1-0.6,0.1h-1c-0.4,0-0.2,0-0.4,0.2
				c-0.2,0.1-0.2,0.3-0.3,0.3c-0.1,0-0.8,0.2-1.7,0c-0.9-0.2-0.3,0-1,0c-0.6,0-0.5,0.1-0.7,0.1s-0.3,0.3-0.4,0.3s-0.3,0-0.7,0
				c-0.3,0-0.2,0-0.4-0.2s-0.1-0.3-0.3-0.5c-0.1-0.3,0,0-0.4-0.1c-0.4-0.1-0.2,0.1-0.4,0.1c-0.3,0-0.1,0.4-0.5,0.4
				c-0.3,0-0.5-0.1-0.9-0.3c-0.3-0.2,0,0-0.3-0.1c-0.3-0.1-0.3,0-0.5,0s-0.9-0.1-1.1-0.3c-0.3-0.2,0,0-0.3-0.2
				c-0.3-0.2-0.4-0.1-0.4-0.1h-0.3c0,0-0.4,0.6-0.6,0.5c-0.4-0.1-1.6,0.2-1.6,0.2l-0.9,0.5c0,0,0,0-0.9-0.1c-0.9-0.1,0,0-0.2-0.1
				c-0.2-0.1,0,0-0.3-0.1c-0.3-0.1-0.3,0.1-0.5-0.3c-0.3-0.4,0,0-0.3-0.2c-0.3-0.2-0.5,0.2-1.4,0.1c-0.9-0.1-0.3,0.3-0.3,0.3
				s-0.3,0.4-0.6,0.4c-0.3-0.1-0.3-0.1-0.5-0.4c-0.2-0.4-0.4-0.1-0.4-0.1s-0.6,0.3-0.9,0.3c-0.3-0.1-0.4,0.1-0.9-0.4
				c-0.2-0.2-0.2-0.2-0.2-0.2s0,0-0.2-0.2c-0.4-0.3,0,0-1.8,0.3c-1.8,0.3-0.3,0.5-0.3,0.5s-0.3,0.4-1.3,0.2c-1-0.3,0,0-0.2-0.4
				c-0.2-0.3,0,0-0.8-0.3c-0.1,0-0.2-0.1-0.3-0.1c-0.3-0.1-0.6,0.1-1,0c-0.4-0.1-0.9,0.1-2.1,0.3c-1.3,0.2,0,0-0.3,0.1
				c-0.3,0.1-0.3,0.4-0.7,0.5c-0.4,0.1-0.4,0-1-0.4c-0.5-0.3,0,0-0.1-0.5c-0.1-0.5,0,0-0.3-0.3c-0.3-0.3-0.4,0-0.6,0
				c-0.3,0-0.8,0.3-0.8,0.3s0,0-0.3-0.3c-0.3-0.3-0.8,0-2,0.1c-1.2,0.1,0,0-1,0.3c-1,0.3,0,0-0.3,0c-0.4,0,0,0-1-0.4
				c-1-0.4,0,0-0.3-0.3c0,0,0-0.1,0-0.2c-0.2-0.3-0.6-0.4-1-0.6c-0.3-0.2-0.6-0.1-0.8,0.3c-0.1,0-0.1,0-0.2,0.1
				c-0.3,0.2-0.8,1.4-0.8,1.4s-1.1-0.3-2.1-0.6c-1-0.3-0.4-0.2-0.7-0.3c-0.3-0.1-1.8,0.1-2.5,0.1c-0.7,0-0.9,0.3-1.1,0.3
				c-0.3,0.1-0.7,0.3-1.1,0.3c-0.4,0.1-0.5,0.3-1,0.4c-0.4,0.1-0.7-0.1-1-0.3c-0.3-0.2-0.3-0.2-0.9-0.5c-0.5-0.3-0.8-0.1-1.4-0.2
				c-0.6-0.1-0.8,0-1.5,0h-1.2c-0.4,0-0.4,0-1.1,0.3c-0.6,0.3,0,0-0.3,0.1c-0.3,0.1-0.1,0.4-0.1,0.4s-0.5-0.2-0.8-0.2h-5.1
				c-0.5,0-0.8,0.2-1.2,0.4c-0.4,0.3,0,0-0.3,0.1c-0.3,0.1-0.7,0-1.1,0s-0.8,0-1.1-0.2c-0.4-0.2-0.5-0.1-0.8-0.3
				c-0.3-0.3-0.5-0.5-0.9-0.8c-0.4-0.3-1.5-0.8-1.5-0.8s-1.8-0.4-2.8-0.4c-1,0-0.4,0.4-1.1,0.7c-0.7,0.3,0,0-0.6,0.2
				c-0.6,0.2-0.4,0.1-0.9,0.3c-0.4,0.2-0.4,0.3-1.4,0.3c-1-0.1-0.3-0.1-0.4-0.4c-0.2-0.4,0,0-0.3-0.6c-0.4-0.5-0.1-0.2-0.7,0
				c-0.4-0.1-0.8-0.1-1.1,0c-0.3,0.1-0.2,0.5,0.1,0.4c0.2,0,0.4,0,0.4,0c-0.3,0.3,0,0,0,0.3c0,0.3,0.3,0.3,0.7,0.3
				c0.4,0-0.2,0.3-0.2,0.3s-0.5,0.1-0.9-0.1c-0.3-0.2-0.3,0-0.6-0.4c-0.3-0.3,0,0-0.1-0.3c-0.1-0.3-0.4-0.1-0.6-0.3
				c-0.3-0.2-0.3,0.1-1.1,0.2c-0.8,0.1-0.3,0.3-0.3,0.3l-0.2,0.9c0,0,0,0-0.3,0c-0.3,0-0.4,0-0.5-0.5c-0.2-0.5,0.3-0.7,0.3-1.2
				c-0.1-0.4,0-0.2-0.5-0.2c0,0,0,0,0-0.1c-0.2-0.3-0.5-0.4-0.8-0.2c-0.1,0.1-0.1,0.1-0.1,0.2c-0.6,0-0.1,0.3-0.5,0.5
				c-0.5,0.3,0,0-0.7-0.1c-0.7-0.1,0,0-0.8-0.4c-0.8-0.3,0,0-0.3-0.1c-0.3-0.1-0.7,0.2-1.2,0.3c-0.5,0.1-0.3,0.4-0.6,0.6
				c-0.3,0.3-0.3,0.3-0.4,0.4c-0.9,0.4-1,0.7-1.4,0.7c-0.2,0-0.3,0-0.4-0.2c0-0.2,0.1-0.4,0.2-0.6c0.1-0.1,0.2-0.1,0.3-0.2
				c0.3-0.3,0.2-0.3,0-0.5c-0.2-0.3-0.3,0-0.8,0.2c-0.4,0.2-0.4,0.3-0.7,0.4c-0.4,0-0.7,0-1.1,0c-0.2-0.2-0.2-0.3-0.2-0.3
				s0,0-0.4-0.5c-0.4-0.5,0,0-0.9,0.3c0,0-0.4,0.4-0.9,0.3c-0.4-0.3,0,0-0.4-0.2c-0.3-0.2-0.3,0.1-1,0c-0.6-0.1-1.1,0.1-1.4,0
				c-0.3-0.1-0.5,0.1-1.1,0.1c-0.6,0,0,0-0.4,0.2c-0.4,0.2-0.3,0.3-0.3,0.3s-0.7,0.2-1.4,0.2s-0.4-0.1-0.9-0.2
				c-0.4-0.1-0.4-0.2-0.5-0.3c0-0.4,0.1-0.7,0-1.1c0-0.2-0.2-0.3-0.3-0.3c-0.3-0.1-0.2-0.3-0.2-0.4c0-0.3-0.4-0.3-0.4,0
				c0,0.3-0.1,0.7,0.3,0.9c0.1,0.1,0.2,0.2,0.2,0.3c-0.2-0.2-0.3-0.3-0.4,0c-0.2,0.4-0.8,1.7-0.8,1.7l-4.2,0.1
				C71.9,42.9,54,37.9,54,37.9v-8.6c0,0,0,0,0.1,0.1c0.2,0.1,0.5,0.4,0.8,0.4c0.4,0.2,0.2-0.6,0.8-0.8c0.6-0.2,2-0.9,2.1-1.7
				c0.2-0.8-7.8-5.4-9.3-6.4c-1.3-1.1-20-10.1-20.4-10.3c-0.4-0.3-3.8-1.6-3.8-1.6s-0.4-1.5-0.5-2c-0.2-0.5-0.6-0.7-0.6-0.7
				c-0.7-0.3-0.8,0.4-0.8,0.4l-0.3,1.8C9.4,14.9-12.9,27-13.2,28.1c-0.3,1.1,4.6,1.2,4.6,1.2l-1.1,14.9H-13l0.2,22h425.3v-0.4
				c0-0.1,0-0.2-0.1-0.4C412.1,65,412.1,65.1,411.6,64.7z M161,43.9C161,43.9,161,43.9,161,43.9C161,43.9,161,43.9,161,43.9
				C161,43.9,161,43.9,161,43.9C161,43.9,161,43.9,161,43.9z"/>
			<path class="st9" d="M293,44.1C293,44.1,293,44.1,293,44.1C293,44.1,293,44.1,293,44.1z"/>
			<path class="st8" d="M87.9,41.6c0.2,0,0.4,0,0.6,0c0.3,0.1,0.3-0.4,0-0.4c-0.2,0-0.4,0-0.6,0C87.6,41.1,87.6,41.6,87.9,41.6z"/>
			<path class="st8" d="M187.2,42.5L187.2,42.5c0.9,0.1,1.6,0,2.4,0h0.1c0,0,0.6,0.1,0.7,0.1c0.2,0-0.3-0.5-0.7-0.5
				c-0.1,0-0.2,0-0.2,0c-0.7,0-1.4,0.1-2.1,0h-0.1l-0.5,0.1C186.5,42.2,187,42.5,187.2,42.5z"/>
			<path class="st8" d="M189.1,43.9c-0.3,0-0.3,0.4,0,0.4h1.1c0.3,0-0.3-0.4-0.5-0.4H189.1z"/>
			<path class="st8" d="M204,43c3.5,0,7.4,0.1,10.9,0c1.7-0.1,3.4-0.2,5.2-0.1c1.6,0.1,3.9-0.3,5.5,0.1c0.4,0.1-0.3-0.3-0.5-0.4
				c-1.4-0.3-2.8-0.1-4.1-0.1c0,0,0,0-0.1,0c-0.6-0.3-1.2-0.2-1.9-0.3c-0.1,0-0.3,0.1-0.5,0.1c-0.1,0-0.1,0.1-0.2,0.1c0,0,0,0,0,0
				c0,0,0,0,0,0c0,0,0.1-0.1,0.2-0.1c0.1,0,0.1-0.1,0.1-0.1c-1.1-0.1-2,0.1-3.1,0.2c-3.7,0.3-8,0.1-11.6,0.1
				C203.4,42.5,203.7,43,204,43z"/>
			<path class="st8" d="M218.2,42.4c0,0,0.1-0.1,0.2-0.1C218.3,42.4,218.2,42.4,218.2,42.4z"/>
			<path class="st8" d="M230.1,42.7c0.3,0,0.1-0.5-0.3-0.5C229.6,42.2,229.8,42.7,230.1,42.7z"/>
			<path class="st8" d="M276,44.2c0.3,0,0.3-0.4,0-0.4S275.7,44.2,276,44.2z"/>
			<path class="st8" d="M277.6,44.2c0.8,0.1,1.7,0,2.4,0.1c0,0.2,0,0.3,0.2,0.3c1.2,0,2.5,0,3.8,0.1c0.3,0.1,0.3-0.4,0-0.4
				c-0.3,0-0.8,0-1.2-0.1v-0.1c-0.2-0.4-1.1-0.2-1.5-0.2c-1.2,0-2.4-0.1-3.7-0.2C277.3,43.8,277.3,44.2,277.6,44.2z"/>
		</g>
	</g>
</g>
</svg>
