<?xml version="1.0" encoding="utf-8"?>
<!-- Generator: Adobe Illustrator 16.0.0, SVG Export Plug-In . SVG Version: 6.00 Build 0)  -->
<!DOCTYPE svg PUBLIC "-//W3C//DTD SVG 1.1//EN" "http://www.w3.org/Graphics/SVG/1.1/DTD/svg11.dtd">
<svg version="1.1" id="Layer_1" xmlns="http://www.w3.org/2000/svg" xmlns:xlink="http://www.w3.org/1999/xlink" x="0px" y="0px"
	 width="320px" height="80px" viewBox="0 0 320 80" style="enable-background:new 0 0 320 80;" xml:space="preserve">
<style type="text/css">
<![CDATA[
	.st0{clip-path:url(#SVGID_2_);}
	.st1{fill:#D1CDB2;}
]]>
</style>
<g id="Layer_1_1_">
	<g>
		<g>
			<g>
				<defs>
					<rect id="SVGID_1_" width="320" height="80"/>
				</defs>
				<clipPath id="SVGID_2_">
					<use xlink:href="#SVGID_1_"  style="overflow:visible;"/>
				</clipPath>
				<g class="st0">
					<path class="st1" d="M1130.8,353.9c-17.5-32-36-63.5-54.8-94.7c-0.8-1.3-1.5-2.6-2.2-3.9c-3.3-6.3-3.3-6.3-9.2-2.7
						c-30.4,18.3-61.2,36-91.8,53.9c-5,2.9-5.6,2.8-8.6-2.2c-14.1-24-27.6-48.3-41.4-72.5c-9.7-16.9-19.7-33.6-29.7-50.3
						c-2.9-4.8-4.1-5-9.2-1.9c-30.6,18.7-61.7,36.4-92.6,54.4c-6.2,3.6-6.5,3.5-10.1-2.6c-8.3-14-17.2-27.8-24.9-42.2
						c-2.7-5-3.5-5.4-8.5-2.4c-19.8,11.7-39.6,23.4-59.5,34.9c-12.5,7.3-25.1,14.6-37.6,21.9c-7,4.1-7.7,3.8-11.3-3.2
						c-11-21.2-23.4-41.5-35.9-61.8c-16.1-26.1-30-53.4-45.9-79.7c-12.6-20.8-25.4-41.5-37.4-62.7C509.5,17,498.7-2.4,487.5-21.5
						c-3.7-6.3-7.8-12.4-11.4-18.8c-0.8-1.5-2.5-2.9-1.1-5c-3.3,0-6.7,0-10,0c15.8,27.2,33.2,53.5,47,81.8c1.7,3.5,1.2,5-2.2,6.9
						c-29.5,17.1-58.9,34.4-88.3,51.7c-2.9,1.7-4,1.4-5.7-1.4c-13.7-23.4-27.6-46.7-41.3-70.1c-3.9-6.8-6.9-14-10.7-20.9
						c-1.7-3-1.2-4.5,1.8-6.2c12.6-7.2,25-14.5,37.5-21.9c11-6.5,22.2-12.6,32.8-19.9c-5.3,0-10.7,0-16,0
						c-15.2,10.2-31.4,18.6-47.1,28c-4.7,2.8-9.5,5.5-14.3,8.2c-1.3,0.7-2.4,2-3.6-0.2c-6.6-12.3-15-23.5-21.1-36.1c-3,0-6,0-9,0
						c2.3,7,6.6,13,10.4,19.2c12,20.1,24.4,40,35.4,60.8c1,1.9,1.9,3.9,2.8,5.8c3.7,7.9,3.7,7.9-4,12.3
						c-28.3,16.5-56.6,33-84.8,49.7c-2.7,1.6-3.9,1.4-5.4-1.2C271,87.1,263,72.9,254.5,59c-8.7-14.2-17-28.6-24.5-43.4
						c-4.8-9.5-4.9-9.6,4.4-15.1c15-8.9,30.2-17.5,45.2-26.4c10.8-6.4,21.6-13.1,32.3-19.6c-5.3,0-10.7,0-16,0c0,2.6-2.3,3.1-3.9,4
						c-22.6,13.4-45.4,26.7-68.2,39.9c-0.6,0.3-1.2,0.6-1.8,1c-5.9,3.4-6.3,4.3-2.8,10.1c8,13,15.6,26.4,23.4,39.6
						c3.7,6.3,3.6,7-2.8,10.9c-20.9,12.8-42.2,24.8-63.3,37.3c-8.8,5.2-17.6,10.2-26.4,15.3c-5,2.9-6.3,2.6-9.3-2.2
						C132,96,123.1,81.8,115,67c-2.6-4.6-3.1-4.9-7.6-2.1c-31.1,18.7-62.6,36.8-94,55.1c-10.6,6.2-9.4,5-3.6,14.7
						c7.4,12.5,14.7,25,22,37.5c3.1,5.4,3.1,5.8-2.2,9c-19.7,12.2-39.9,23.5-59.8,35.3c-11.5,6.8-23,13.4-34.5,20.2
						c-5.2,3.1-5.6,4.5-2.3,9.5c11.4,17.1,20.9,35.2,31.4,52.8c2.9,4.8,2.7,5.5-1.9,8.4c-30.8,18.9-61.6,37.9-92.6,56.4
						c-1.3,0.8-2.6,1.6-4.1,1.7c-0.2,0-0.4,0-0.5,0c-1.5,3,1.4,4.9,2.5,7.2c3,0,6,0,9,0c-1.6-2.9-1-4.4,2.2-6.3
						c28.9-17.3,57.7-34.9,86.4-52.5c3.5-2.1,5.3-2.3,7.6,1.8c10.7,19.1,21.8,38,32.8,57c2.7,0,5.3,0,8,0
						c-3.4-6.8-6.7-13.7-10.2-20.5c-1.5-3-1.5-4.7,1.9-6.6c29.8-17.2,59.4-34.7,89-52.2c2.5-1.5,3.5-1.1,4.9,1.3
						c13.3,22.8,26.8,45.5,40.2,68.2c1.9,3.1,3.4,6.5,5.1,9.7c3,0,6,0,9,0c-2.9-8.4-7.8-15.8-12.1-23.4c-5.1-9.2-5.4-9.2,3.6-14.5
						c28.2-16.7,56.5-33.2,84.7-49.8c1.7-1,2.9-1.9,4.3,0.6c16.4,29.3,35.2,57.2,50.5,87.1c3.3,0,6.7,0,10,0
						c-6.2-11.7-12.3-23.6-18.7-35.2c-2.2-4.1-1.4-6.1,2.7-8.4c27.6-16,55.1-32.2,82.5-48.4c8-4.8,7.9-5,12.5,3
						c14.7,25.3,30.8,49.7,44.3,75.7c2.3,4.4,4.5,8.9,6.7,13.4c4,0,8,0,12,0c-9-15.1-18-30.3-25.4-46.4c-1.3-2.8-0.7-3.5,1.6-4.8
						c29.6-17.3,59.1-34.7,88.6-52.1c2.9-1.7,4.5-2.2,6.5,1.4c13.8,25,30,48.7,43.5,74c3.1,5.9,5.8,12,8.9,17.9
						c1.3,2.5,0.5,3.5-1.7,4.6c-3.1,1.6-6,3.6-8.9,5.4c9.3,0,18.7,0,28,0c-10.3-17.3-20.5-34.6-29.4-52.7c-1.5-3-1.3-4.4,1.7-6.2
						c29.4-17.2,58.8-34.5,88.1-51.9c3.4-2,4.8-1.3,6.8,1.9c13.5,23.3,27.4,46.3,40.9,69.6c4,6.9,7.2,14.2,10.8,21.3
						c1.3,2.6,0.7,4-1.9,5.5c-7.1,3.9-14,8.2-21,12.4c5.7,0,11.3,0,17,0c6-3.7,12-7.3,18-11c-0.7-2-1.3-4-2-6
						c-1.5-1.4-2.1-3.1-2.9-5.7c2.5,1.7,2.8,4,3.9,5.7c1,2,2,4,3,6c2,3.7,4,7.3,6,11c2.7,0,5.3,0,8,0c-3.3-4.5-4.6-9.9-7.4-14.7
						c-1.4-2.4,0-3.5,1.9-4.7c21.1-12.3,42.1-24.7,63.2-37c8.7-5.1,17.5-10.1,26.2-15.4c2.1-1.3,3.4-1.6,4.8,0.8
						c13.6,23,27.2,46,40.8,69c0.3,0.5,0.3,1.3,0.5,1.9c3.3,0,6.7,0,10,0c-3.4-6.8-6.7-13.7-10.2-20.5c-1.5-3-1.5-4.6,1.9-6.6
						c29.8-17.2,59.4-34.7,89-52.2c2.5-1.5,3.5-1.1,4.9,1.3c13.3,22.8,26.8,45.5,40.2,68.2c1.9,3.1,3.4,6.5,5.1,9.7c2.7,0,5.3,0,8,0
						c-4.1-10.4-10.6-19.5-15.9-29.2c-4.6-8.5-9.4-16.8-14.3-25.1c-1.5-2.5-1.2-3.8,1.5-5.4c29.4-17.2,58.8-34.5,88-51.9
						c3.5-2.1,5.2-1.8,7.2,1.8c14.6,26.3,31.1,51.5,45.4,77.9c2,3.6,3.1,7.8,5.4,11.2c3,4.5,1.2,6.4-2.8,8.6
						c-7,3.8-13.7,8.1-20.6,12.2c6,0,12,0,18,0c3.4-2,6.9-3.8,10-6.1c3.1-2.3,4.6-1.4,5.8,1.7c0.6,1.5,1.4,3,2.2,4.4
						c2.7,0,5.3,0,8,0C1137.4,367,1134.3,360.3,1130.8,353.9z M431.7,99.9c28.1-16.5,56.2-33,84.3-49.6c2.4-1.4,3.8-1.7,5.4,1.2
						c13.5,23.1,27.3,46.1,40.8,69.2c4.3,7.5,7.9,15.4,11.8,23.1c0.3,0.6,0.5,1.2,0.7,1.7c0.4,1.9-1.2,2.3-2.3,2.9
						c-30,17.6-59.9,35.2-89.9,52.9c-1.8,1-3,1.6-4.4-0.8c-16.6-29.2-35.3-57.2-50.4-87.3C423.5,104.7,423.6,104.6,431.7,99.9z
						 M291.2,109.2c29.3-17,58.6-34.2,87.8-51.4c2.3-1.4,4-2.3,5.9,1.1c16.2,29.6,35.7,57.3,50.5,87.7c1,2.1,1.8,4.3,2.6,6.1
						c0.1,2.6-1.8,3-3.1,3.7c-26.5,15.6-53,31.2-79.6,46.7c-3.2,1.9-6.4,3.6-9.5,5.6c-1.9,1.3-3.1,1.3-4.3-0.9
						c-15.7-28-33.6-54.7-48.3-83.2c-1.4-2.7-2.3-5.6-3.9-8C287,113.1,287.7,111.3,291.2,109.2z M153.6,119
						c27.9-16.2,55.8-32.5,83.6-48.8c2.9-1.7,5.6-3.5,8.2-5.1c1.9-0.1,2.3,1.1,2.8,2.1c16.3,28.6,34.2,56.3,49.6,85.5
						c5.4,10.1,5.4,10.2-4.5,16c-18.8,11-37.7,21.9-56.5,32.9c-8.9,5.2-17.8,10.4-26.6,15.8c-2.9,1.8-4.2,0.9-5.8-1.7
						c-13.8-23.5-27.9-46.9-41.5-70.6c-4-7-7.9-14.2-10.9-21.8C151.1,120.9,151.6,120.1,153.6,119z M27.2,153.9
						c-4.2-7.2-7.4-14.9-11.3-22.2c-1.5-2.9-0.7-4.3,2-5.9c29.3-17.1,58.4-34.4,87.6-51.6c1.1-0.7,2.4-1.2,3.5-1.8
						c2.2,0.2,2.4,2.2,3.2,3.4c8.2,13.7,16.1,27.5,24.4,41.2c7.9,13.1,15.5,26.4,22.8,39.8c1.4,2.6,2.1,5.7,3.8,8.1
						c3.2,4.6,1.3,6.5-2.9,8.9c-28.6,16.6-57.2,33.3-85.6,50.2c-3.5,2.1-5,2.4-7.4-1.8C54.2,199.3,40.5,176.7,27.2,153.9z
						 M88.3,286.8C58.5,304.1,28.9,321.6-0.8,339c-1.6,1-3,2.1-4.4-0.5c-16.6-30.4-36.6-58.8-51.6-90.1c-3-6.4-3-6.3,3-9.8
						c28.1-16.5,56.2-33.1,84.3-49.6c1.6-0.9,3.2-1.7,4.5-2.3c1.9,0.1,2.4,1.2,3,2.2c17,30.7,36.9,59.7,52.3,91.4
						C91.9,283.6,91.5,284.9,88.3,286.8z M223.5,278.4c-15.7,9.3-31.6,18.5-47.3,27.8c-13.2,7.7-26.4,15.5-39.5,23.4
						c-3.5,2.1-5.2,2.1-7.5-1.9C112,297.9,93.1,269,77.8,238.1c-1.4-2.9-1.6-4.5,1.5-6.4c29.8-17.3,59.5-34.7,89.2-52.2
						c2.7-1.6,3.7-1.4,5.3,1.3c13.7,23.4,27.6,46.7,41.2,70.1c3.9,6.8,7.2,13.9,10.7,20.9c0.5,1,0.8,2.2,1.2,3.4
						C226.7,277.2,224.8,277.7,223.5,278.4z M360.8,270.9c-29.6,17.2-59.2,34.5-88.6,51.9c-2.9,1.7-4.2,1.8-6-1.4
						c-15.1-26.6-31.8-52.3-46.2-79.2c-2.3-4.2-4.1-8.7-6.3-13c-1.6-3.1,0.9-3.8,2.6-4.9c11.3-6.7,22.6-13.3,34-20
						c18.1-10.6,36.2-21.2,54.2-31.7c1-0.6,2.1-1.1,3-1.6c1.7-0.1,2.1,1.2,2.6,2.1c16.5,30,36.3,58.1,51.2,88.9c0.5,1,1,2.1,1.5,3.1
						C363.9,267.8,363.4,269.4,360.8,270.9z M497.8,261.4c-30.2,17.5-60.3,35.2-90.5,52.8c-0.7,0.4-1.4,0.9-2,1.2
						c-1.6-0.2-2-1.5-2.5-2.5c-16.5-29.8-36.3-57.8-51-88.6c-3.3-6.8-3.3-6.8,3-10.5c28.2-16.6,56.5-33.2,84.7-49.9
						c3.6-2.1,5.3-2.4,7.8,2c10.6,18.6,21.8,36.9,32.8,55.4c6.8,11.4,13.1,23.2,18.8,35.2C499.9,258.7,500.2,260,497.8,261.4z
						 M635.7,252c-1.1,3.8-8.1,6-12.6,8.7c-26.2,15.4-52.5,30.8-78.8,46.2c-0.7,0.4-1.4,0.8-2,1.2c-1.5,0.4-1.9-0.7-2.3-1.5
						c-16.8-30.5-37-58.9-52-90.4c-2.2-4.7-1.5-6.8,2.8-9.3c28.9-16.7,57.7-33.8,86.6-50.6c1.8-1,3.4-2.7,5.2,0.5
						c15.4,27.3,32.8,53.3,47.3,81C632.4,242.4,636.9,248.1,635.7,252z M803.3,293.7c-19.4,11.4-38.7,22.7-58.1,34
						c-10.2,6-20.4,11.8-30.5,18c-3,1.9-4.5,2-6.5-1.4c-13.8-23.7-28-47.2-41.7-70.9c-3.8-6.6-7.3-13.4-10.2-20.5
						c-1.1-2.7-1-3.8,1.7-5.3c17.3-9.9,34.5-20,51.7-30.2c11.9-7,23.8-14,35.5-21.3c3.8-2.3,5.7-2.6,8.3,2
						c15.8,28.1,33.7,55,48.3,83.8c1.5,3,2.8,6,4.1,8.8C805.9,292.7,804.4,293,803.3,293.7z M938.7,287.2
						c-29.7,17.2-59.1,34.6-88.6,52c-1.8,1.1-3,1.5-4.3-0.8c-16.7-30.5-36.7-59.1-51.9-90.5c-2.2-4.5-1.5-6.5,2.7-8.9
						c28.6-16.6,57.1-33.5,85.7-50.2c1.3-0.8,2.7-1.4,3.7-1.9c1.8-0.2,2.4,0.8,3,1.9c16.9,30.6,36.7,59.5,52.1,90.9
						C942.8,283.4,942.5,284.9,938.7,287.2z"/>
					<path class="st1" d="M235.4,14.5c8.3,13.6,16.4,27.4,24.6,41.1c7.4,12.6,14.8,25.2,22.2,37.8c0.8,1.3,1.2,3.2,3.7,3.2
						c0.6-0.4,1.5-0.9,2.3-1.4c7.4-4.4,14.8-8.9,22.3-13.2c19-11,37.9-22.1,57-33c3-1.7,3-3.4,1.3-6.1c-3.2-5-6.3-10.2-9.3-15.3
						c-12.3-21.1-24.6-42.3-36.9-63.4c-3.4-5.9-3.5-5.9-9.3-2.5C288.1-23.5,263-8.4,237.6,6.2C233.1,8.8,233,10.6,235.4,14.5z
						 M244.6,9.6c23.1-13.5,46.2-27.1,69.2-40.8c3-1.8,4.1,0,5.3,2.1c9.4,16.1,18.7,32.2,28.1,48.3c4.3,7.3,8.6,14.6,13,21.9
						c0.5,0.8,1,1.7,1.5,2.4c-0.1,1.6-1.4,2-2.4,2.5c-23.2,13.6-46.5,27.2-69.7,41c-2.1,1.3-3.1,1.6-4.6-0.9
						c-13.8-23.7-27.6-47.4-41.6-71C241.9,12.5,241.9,11.2,244.6,9.6z"/>
					<path class="st1" d="M167.9,140.7c13.4,22.8,26.8,45.6,40.1,68.4c1.4,2.4,2.4,2.8,5,1.3c11.8-7.2,23.7-14.1,35.6-21
						c14.5-8.5,29-17,43.5-25.4c2.9-1.7,4.1-3,1.8-6.4c-5.1-8-9.7-16.3-14.5-24.4c-11.1-18.9-22.2-37.9-33.4-56.8
						c-0.7-1.1-1.1-2.5-3-2.2c-0.9,0.5-1.9,1-2.9,1.6c-7.3,4.3-14.6,8.7-21.9,12.9c-18.8,11-37.6,22.1-56.5,32.8
						c-3.7,2.1-3.4,4-1.5,7C163,132.4,165.5,136.5,167.9,140.7z M170.3,124c21.6-12.5,43.1-25.2,64.6-37.9c7.2-4.2,7.1-4.3,11.2,2.7
						c12.5,21.2,25.1,42.4,37.6,63.6c1.1,1.9,2,3.8,3,5.6c0.2,1.9-1.2,2.3-2.3,2.9c-13.6,8-27.3,16-40.9,24
						c-9.2,5.4-18.4,10.8-27.5,16.3c-2.7,1.6-4.3,1.8-6.2-1.5c-13.5-23.5-27.2-46.9-41.1-70.2C166.8,126.5,167.7,125.6,170.3,124z"
						/>
					<path class="st1" d="M285.7,78.2c1.8,3.2,3.4,2.1,5.5,0.8c20.2-11.9,40.3-23.8,60.6-35.6c2.5-1.5,2.9-2.4,1.2-4.8
						c-13.4-18.7-25.6-38-34.7-59.2c-0.4-1-0.8-2.3-2.5-2c-0.8,0.4-1.7,0.9-2.5,1.3C292.8-10.4,273.2,2.3,253,13.8
						c-3,1.7-3.2,3.3-1.4,6.3C263.1,39.4,274.4,58.7,285.7,78.2z M269,35.4c-1.3-0.1-2-1.1-1.9-2.3c0-1.1,0.7-1.8,1.8-1.7
						c1.2,0.2,2.1,0.8,2,2.1C270.6,34.7,270.1,35.5,269,35.4z M280,54.6c-0.7,0.1-1.5-0.4-1.3-1c0.6-2.3,2.7-2.7,5.1-3.8
						C283.5,52.9,282.1,54.2,280,54.6z M273.5,43.5c4.8-1.8,8.8-3.2,12.8-4.6c0.4-0.1,0.9,0.2,1.4,0.4
						C284.9,44.6,279.9,46.3,273.5,43.5z M275.8,37.7c2.3-3.1,3.8-5.3,7-4.5c0.7,0.2,1.6,0.8,1.8,1.4c0.3,1-0.8,1.3-1.5,1.5
						C281,36.7,278.9,37.1,275.8,37.7z M296.1,68.1c-1.6,2.3-3.8,5-6.8,4.4c-2.9-0.6-2.2-4-2.7-6.3c-1.7-8.4,1.1-15.5,6.7-22.6
						c1.1,2.5,0.4,4.1-0.1,5.8c-1.3,4.8-2.5,9.6-3.8,14.4c-0.2,1-0.7,2,0.5,2.6c1.1,0.5,1.9-0.2,2.7-0.8c2.2-1.6,2.7-4.1,3.3-6.5
						c1.1-4.6,1.5-9.4,4.4-13.4C301.4,53.6,301,61.4,296.1,68.1z M307.3,63.2c-2.5-0.1-0.9-2.6-1.5-3.9c0.1-1.6-0.4-3.9,1.4-3.9
						c2.2-0.1,2.4,2.4,2.6,4.2C310.1,61.5,309.1,63.3,307.3,63.2z M320,56c-2.1,1.6-4.5,0.7-6.5-0.5c-4.6-2.7-6.8-8.1-4.9-12.8
						c1.8,2.9,3.3,5.6,5,8.2c0.7,1,1,3,2.6,2.4c1.7-0.7,2.2-2.5,1.3-4.2c-1.7-3.4-3.6-6.7-5.6-10.5c2.8,0.1,4.1,1.6,5.2,3.4
						c1.7,2.7,2.9,5.6,3.6,8.7C321.1,52.4,321.9,54.6,320,56z M330.1,50.5c-3.2,0.3-4.3-2-5.5-4.5c3.3-1.1,5.3,0.2,6.7,2.7
						C331.8,49.8,330.8,50.5,330.1,50.5z M345,36.3c2.9,3.5,2.4,4.8-2.2,6c-10.2,2.6-18.3-1.8-26.7-8.4c4.9-0.5,8.4,1,11.9,2.4
						c2.2,0.9,4.3,1.9,6.6,2.2c1.8,0.3,4.5,2.4,5.4,0.2c1-2.4-2.1-3.8-4-4.8c-5.4-2.8-11.5-2.9-17.7-4.4c2.1-2.4,4.6-2.8,7.1-2.7
						C333.2,27.3,340,30,345,36.3z M335.2,20.1c0.6,0.1,1.1,1,0.6,1.6c-1.4,1.8-3.3,1.6-6.2,2C331.4,20.7,333,19.7,335.2,20.1z
						 M320.1,2.9c0.3-1.2,1.1-2,2.4-2c0.8,0,1.2,0.5,1.2,1.2c-0.4,1.3-1.4,1.7-2.6,2C320.2,4.2,319.9,3.6,320.1,2.9z M325.3,8.8
						c4,0.2,5.7,2.9,3.9,6.5c-2.2,4.2-6.1,5.7-11.1,6.7c1.8-2.8,4.4-3.4,6.1-5c1.2-1.2,3.9-2.2,3-4c-1.3-2.5-3.5-0.4-5.2,0.4
						c-3,1.4-5.3,3.9-9.4,4.5C314.8,12,319.9,8.5,325.3,8.8z M310.1-14c3-2.4,4.6-1.8,5.7,1.6c1.2,3.8,1.1,7.5-0.4,11.2
						c-1.8,4.4-3.4,8.8-6.5,13.3c-1.7-3.8,0.3-6.3,1.4-8.8c1.3-3.1,2.5-6.2,2.7-9.5c0.1-1.1,0.3-2.6-1-3.1c-1.7-0.7-2.5,0.9-2.9,2
						c-1.7,4.5-3.2,9-4.9,13.6c-0.3,0.9-0.9,1.7-2,3.7C301-0.2,302.8-8,310.1-14z M302.4,20.3c3.3,0.3,5.3,2.5,5.6,5.4
						c0.1,3.8-3.5,8.4-6.2,7.8c-3.1-0.6-6-2.1-5.8-6.2C296,24,299.2,20,302.4,20.3z M296.9-7.1c2.1,0.4,2,2.2,2.1,3.9
						c-0.2,1,0.2,2.9-1.3,2.5c-2-0.4-2.3-2.6-2.6-4.3C294.9-6.3,295.3-7.4,296.9-7.1z M285.2,1.2c1.6-2.2,3.7-1.6,5.7-0.4l0,0
						c3.5,2.8,4,3.7,6.4,11.8c-2.7-1.1-3-3.6-4.1-5.3c-1.1-1.8-2.2-3.7-3.2-5.5c-3.3,1-3.2,3.4-2.1,5.9c1.1,2.5,2.4,5,3.9,7.9
						c-4,0-5.3-2.7-6.5-5.3C284.1,7.3,283.2,4.2,285.2,1.2z M276.6,4.9c2.1,0.2,3,1.8,3.3,3.5c0.1,1.3-0.1,2.4-1.4,2.4
						c-2.1-0.1-3.1-1.6-3.5-3.5C274.8,6.1,274.9,4.7,276.6,4.9z M258.5,16.1c6.6-3.9,20.2-3.8,27.7,5.3c-4.8,0.3-8.4-1.6-12.1-2.7
						c-3.3-1-8.4-2.7-9.4,0.4c-0.9,2.9,4.4,3.8,7.5,4.7c3.9,1.1,8,1.7,12.7,2.7c-4,2.3-7.4,2.4-11.3,1.6c-5.9-1.1-11-3.3-15.4-7.5
						C256.3,18.8,256,17.5,258.5,16.1z"/>
				</g>
			</g>
		</g>
	</g>
</g>
<g id="Layer_2">
</g>
<g id="Layer_3_1_">
</g>
</svg>
